SplineFontDB: 3.2
FontName: DayRoman
FullName: Day Roman
FamilyName: Day Roman
Weight: Book
Copyright: 2002, Fredrick Nader. All rights reserved. apostrophe@apostrophiclab.com
Version: 1.0; December 2002
ItalicAngle: 0
UnderlinePosition: -147
UnderlineWidth: 40
Ascent: 800
Descent: 200
InvalidEm: 0
sfntRevision: 0x00010000
LayerCount: 2
Layer: 0 1 "Hinten" 1
Layer: 1 1 "Vorne" 0
XUID: [1021 256 -1967491057 14686]
StyleMap: 0x0040
FSType: 0
OS2Version: 2
OS2_WeightWidthSlopeOnly: 0
OS2_UseTypoMetrics: 0
CreationTime: 1039457615
ModificationTime: 1641443399
PfmFamily: 17
TTFWeight: 400
TTFWidth: 5
LineGap: 27
VLineGap: 0
Panose: 2 2 5 0 6 4 11 2 4 3
OS2TypoAscent: 797
OS2TypoAOffset: 0
OS2TypoDescent: -274
OS2TypoDOffset: 0
OS2TypoLinegap: 53
OS2WinAscent: 1002
OS2WinAOffset: 0
OS2WinDescent: 291
OS2WinDOffset: 0
HheadAscent: 1002
HheadAOffset: 0
HheadDescent: -291
HheadDOffset: 0
OS2SubXSize: 700
OS2SubYSize: 650
OS2SubXOff: 0
OS2SubYOff: 140
OS2SupXSize: 700
OS2SupYSize: 650
OS2SupXOff: 0
OS2SupYOff: 477
OS2StrikeYSize: 50
OS2StrikeYPos: 250
OS2FamilyClass: 258
OS2Vendor: 'APOS'
OS2CodePages: 20000111.00000000
OS2UnicodeRanges: 80000027.4000004a.00000000.00000000
Lookup: 1 0 0 "'smcp' Gemeine in Kapit+AOQA-lchen in Lateinisch Nachschlagetabelle 0" { "'smcp' Gemeine in Kapit+AOQA-lchen in Lateinisch Nachschlagetabelle 0 Subtabelle"  } ['smcp' ('latn' <'dflt' > ) ]
Lookup: 1 0 0 "'c2sc' Versalien in Kapit+AOQA-lchen in Lateinisch Nachschlagetabelle 0" { "'c2sc' Versalien in Kapit+AOQA-lchen in Lateinisch Nachschlagetabelle 0 Subtabelle"  } ['c2sc' ('latn' <'dflt' > ) ]
Lookup: 258 0 0 "'kern' Horizontale Unterschneidung in Lateinisch Nachschlagetabelle 0" { "'kern' Horizontale Unterschneidung in Lateinisch Nachschlagetabelle 0 Subtabelle"  } ['kern' ('DFLT' <'dflt' > 'latn' <'dflt' > ) ]
MarkAttachClasses: 1
DEI: 91125
ShortTable: maxp 16
  1
  0
  248
  235
  7
  0
  0
  1
  0
  0
  0
  0
  0
  0
  0
  0
EndShort

StartChar: breve
Encoding: 5 5 4
Width: 469
Flags: W
LayerCount: 2
Fore
SplineSet
240 572 m 0,0,1
 256 572 256 572 270.5 578 c 128,-1,2
 285 584 285 584 296 594.5 c 128,-1,3
 307 605 307 605 313.5 618.5 c 128,-1,4
 320 632 320 632 320 648 c 1,5,-1
 361 648 l 1,6,7
 361 622 361 622 350.5 600 c 128,-1,8
 340 578 340 578 323 561.5 c 128,-1,9
 306 545 306 545 283.5 535.5 c 128,-1,10
 261 526 261 526 236 526 c 0,11,12
 232 526 232 526 226 528 c 0,13,14
 206 529 206 529 187.5 540.5 c 128,-1,15
 169 552 169 552 154.5 569.5 c 128,-1,16
 140 587 140 587 131 607.5 c 128,-1,17
 122 628 122 628 121 648 c 1,18,-1
 168 648 l 1,19,20
 169 635 169 635 174.5 622 c 128,-1,21
 180 609 180 609 189 598.5 c 128,-1,22
 198 588 198 588 209.5 581 c 128,-1,23
 221 574 221 574 234 573 c 0,24,25
 236 572 236 572 240 572 c 0,0,1
EndSplineSet
Validated: 1
EndChar

StartChar: dotaccent
Encoding: 6 6 5
Width: 455
Flags: W
LayerCount: 2
Fore
SplineSet
308 623 m 0,0,1
 308 596 308 596 288.5 577 c 128,-1,2
 269 558 269 558 242 558 c 0,3,4
 238 558 238 558 237 559 c 0,5,6
 226 560 226 560 216 566.5 c 128,-1,7
 206 573 206 573 198.5 582.5 c 128,-1,8
 191 592 191 592 186.5 603.5 c 128,-1,9
 182 615 182 615 182 626 c 0,10,11
 182 649 182 649 200 668 c 128,-1,12
 218 687 218 687 241 687 c 0,13,14
 267 687 267 687 287.5 668 c 128,-1,15
 308 649 308 649 308 623 c 0,0,1
EndSplineSet
Validated: 1
EndChar

StartChar: ring
Encoding: 8 8 6
Width: 463
Flags: W
LayerCount: 2
Fore
SplineSet
297 620 m 256,0,1
 297 645 297 645 278.5 662.5 c 128,-1,2
 260 680 260 680 236 680 c 0,3,4
 214 680 214 680 198 663 c 128,-1,5
 182 646 182 646 182 624 c 0,6,7
 182 614 182 614 186 603.5 c 128,-1,8
 190 593 190 593 197 584 c 128,-1,9
 204 575 204 575 213 569 c 128,-1,10
 222 563 222 563 232 562 c 0,11,12
 233 561 233 561 237 561 c 0,13,14
 262 561 262 561 279.5 578 c 128,-1,15
 297 595 297 595 297 620 c 256,0,1
329 620 m 0,16,17
 329 600 329 600 321.5 583 c 128,-1,18
 314 566 314 566 301 553.5 c 128,-1,19
 288 541 288 541 270.5 533.5 c 128,-1,20
 253 526 253 526 234 526 c 0,21,22
 228 526 228 526 226 528 c 0,23,24
 210 529 210 529 195.5 538.5 c 128,-1,25
 181 548 181 548 170 562 c 128,-1,26
 159 576 159 576 152.5 592.5 c 128,-1,27
 146 609 146 609 146 625 c 0,28,29
 146 642 146 642 153 658 c 128,-1,30
 160 674 160 674 172 686.5 c 128,-1,31
 184 699 184 699 199.5 706.5 c 128,-1,32
 215 714 215 714 232 714 c 0,33,34
 275 714 275 714 302 687 c 128,-1,35
 329 660 329 660 329 620 c 0,16,17
EndSplineSet
Validated: 1
EndChar

StartChar: hungarumlaut
Encoding: 10 10 7
Width: 520
Flags: W
LayerCount: 2
Fore
SplineSet
254 701 m 0,0,1
 260 696 260 696 263 694.5 c 128,-1,2
 266 693 266 693 268.5 691 c 128,-1,3
 271 689 271 689 275.5 686 c 128,-1,4
 280 683 280 683 289 677 c 0,5,6
 297 674 297 674 296.5 666.5 c 128,-1,7
 296 659 296 659 291 655 c 0,8,9
 284 647 284 647 266 624.5 c 128,-1,10
 248 602 248 602 228 577.5 c 128,-1,11
 208 553 208 553 190.5 533 c 128,-1,12
 173 513 173 513 168 510 c 0,13,14
 159 504 159 504 151.5 509.5 c 128,-1,15
 144 515 144 515 150 526 c 0,16,17
 155 539 155 539 166 562.5 c 128,-1,18
 177 586 177 586 189 611.5 c 128,-1,19
 201 637 201 637 212.5 660 c 128,-1,20
 224 683 224 683 231 695 c 0,21,22
 236 703 236 703 240.5 705 c 128,-1,23
 245 707 245 707 254 701 c 0,0,1
387 701 m 0,24,25
 393 696 393 696 396 694.5 c 128,-1,26
 399 693 399 693 401.5 691 c 128,-1,27
 404 689 404 689 408.5 686 c 128,-1,28
 413 683 413 683 422 677 c 0,29,30
 430 674 430 674 429.5 666.5 c 128,-1,31
 429 659 429 659 424 655 c 0,32,33
 417 647 417 647 399 624.5 c 128,-1,34
 381 602 381 602 361 577.5 c 128,-1,35
 341 553 341 553 323.5 533 c 128,-1,36
 306 513 306 513 301 510 c 0,37,38
 292 504 292 504 284.5 509.5 c 128,-1,39
 277 515 277 515 283 526 c 0,40,41
 288 539 288 539 299 562.5 c 128,-1,42
 310 586 310 586 322 611.5 c 128,-1,43
 334 637 334 637 345.5 660 c 128,-1,44
 357 683 357 683 364 695 c 0,45,46
 369 703 369 703 373.5 705 c 128,-1,47
 378 707 378 707 387 701 c 0,24,25
EndSplineSet
Validated: 1
EndChar

StartChar: ogonek
Encoding: 11 11 8
Width: 473
Flags: W
LayerCount: 2
Fore
SplineSet
282 -45 m 0,0,1
 285 -20 285 -20 298 -2.5 c 128,-1,2
 311 15 311 15 329.5 25 c 128,-1,3
 348 35 348 35 370.5 38.5 c 128,-1,4
 393 42 393 42 416 39 c 0,5,6
 419 38 419 38 420 32.5 c 128,-1,7
 421 27 421 27 416 1 c 1,8,9
 407 2 407 2 395.5 -2 c 128,-1,10
 384 -6 384 -6 374.5 -13 c 128,-1,11
 365 -20 365 -20 358 -30 c 128,-1,12
 351 -40 351 -40 350 -50 c 0,13,14
 347 -73 347 -73 360 -92.5 c 128,-1,15
 373 -112 373 -112 411 -113 c 0,16,17
 433 -114 433 -114 452 -112 c 128,-1,18
 471 -110 471 -110 496 -104 c 1,19,20
 501 -110 501 -110 501.5 -115 c 128,-1,21
 502 -120 502 -120 503 -128 c 1,22,23
 480 -137 480 -137 456 -145.5 c 128,-1,24
 432 -154 432 -154 408 -155 c 0,25,26
 380 -156 380 -156 355.5 -148 c 128,-1,27
 331 -140 331 -140 314 -125 c 128,-1,28
 297 -110 297 -110 288 -89.5 c 128,-1,29
 279 -69 279 -69 282 -45 c 0,0,1
EndSplineSet
Validated: 33
EndChar

StartChar: caron
Encoding: 12 12 9
Width: 422
Flags: W
LayerCount: 2
Fore
SplineSet
326 699 m 0,0,1
 332 699 332 699 332 692 c 0,2,3
 332 689 332 689 325.5 675 c 128,-1,4
 319 661 319 661 308.5 642 c 128,-1,5
 298 623 298 623 285.5 601 c 128,-1,6
 273 579 273 579 261.5 560 c 128,-1,7
 250 541 250 541 240.5 527 c 128,-1,8
 231 513 231 513 227 510 c 1,9,10
 218 515 218 515 217 518 c 0,11,12
 188 566 188 566 161.5 608.5 c 128,-1,13
 135 651 135 651 121 688 c 0,14,15
 119 694 119 694 119 696 c 0,16,17
 119 704 119 704 128 703 c 0,18,19
 133 702 133 702 145 687.5 c 128,-1,20
 157 673 157 673 171.5 654 c 128,-1,21
 186 635 186 635 201 617.5 c 128,-1,22
 216 600 216 600 227 593 c 1,23,24
 238 600 238 600 251.5 617.5 c 128,-1,25
 265 635 265 635 278 653 c 128,-1,26
 291 671 291 671 303.5 685 c 128,-1,27
 316 699 316 699 326 699 c 0,0,1
EndSplineSet
Validated: 1
EndChar

StartChar: dotlessi
Encoding: 13 13 10
Width: 313
Flags: W
LayerCount: 2
Fore
SplineSet
274 5 m 0,0,1
 274 -6 274 -6 263.5 -7 c 128,-1,2
 253 -8 253 -8 246 -8 c 0,3,4
 228 -8 228 -8 210.5 -5.5 c 128,-1,5
 193 -3 193 -3 176 -3 c 0,6,7
 150 -3 150 -3 123 -5.5 c 128,-1,8
 96 -8 96 -8 70 -8 c 2,9,-1
 59 -8 l 2,10,11
 51 -8 51 -8 44 -6 c 128,-1,12
 37 -4 37 -4 37 7 c 0,13,14
 37 10 37 10 39 12 c 128,-1,15
 41 14 41 14 43 16 c 0,16,17
 52 23 52 23 63.5 24.5 c 128,-1,18
 75 26 75 26 86 27.5 c 128,-1,19
 97 29 97 29 105.5 34.5 c 128,-1,20
 114 40 114 40 117 56 c 0,21,22
 119 66 119 66 119 70 c 2,23,-1
 119 85 l 2,24,25
 120 117 120 117 119.5 147.5 c 128,-1,26
 119 178 119 178 120 210 c 0,27,28
 121 234 121 234 122.5 257.5 c 128,-1,29
 124 281 124 281 124 305 c 0,30,31
 124 317 124 317 122.5 334 c 128,-1,32
 121 351 121 351 113 361 c 0,33,34
 108 367 108 367 99 371 c 128,-1,35
 90 375 90 375 81.5 378.5 c 128,-1,36
 73 382 73 382 66.5 385.5 c 128,-1,37
 60 389 60 389 60 394 c 256,38,39
 60 399 60 399 66 403 c 128,-1,40
 72 407 72 407 80.5 410.5 c 128,-1,41
 89 414 89 414 97 416.5 c 128,-1,42
 105 419 105 419 109 420 c 0,43,44
 116 422 116 422 129 429 c 128,-1,45
 142 436 142 436 155.5 443.5 c 128,-1,46
 169 451 169 451 180 457 c 128,-1,47
 191 463 191 463 195 463 c 0,48,49
 201 463 201 463 201 458 c 0,50,51
 201 443 201 443 200.5 428.5 c 128,-1,52
 200 414 200 414 199 399 c 0,53,54
 198 369 198 369 197.5 338.5 c 128,-1,55
 197 308 197 308 197 278 c 0,56,57
 197 241 197 241 197.5 204.5 c 128,-1,58
 198 168 198 168 199 131 c 0,59,60
 199 114 199 114 198.5 96.5 c 128,-1,61
 198 79 198 79 200 62 c 0,62,63
 202 41 202 41 213.5 34 c 128,-1,64
 225 27 225 27 238.5 24.5 c 128,-1,65
 252 22 252 22 263 19.5 c 128,-1,66
 274 17 274 17 274 5 c 0,0,1
EndSplineSet
Validated: 33
EndChar

StartChar: fraction
Encoding: 25 25 11
Width: 265
Flags: W
LayerCount: 2
Fore
SplineSet
415 646 m 1,0,1
 387 604 387 604 356 564.5 c 128,-1,2
 325 525 325 525 293 485 c 0,3,4
 199 365 199 365 106 248 c 128,-1,5
 13 131 13 131 -75 7 c 1,6,7
 -80 9 -80 9 -93 18 c 128,-1,8
 -106 27 -106 27 -129 35 c 1,9,10
 -8 197 -8 197 116 353 c 128,-1,11
 240 509 240 509 360 674 c 1,12,13
 371 674 371 674 387.5 663 c 128,-1,14
 404 652 404 652 415 646 c 1,0,1
EndSplineSet
Validated: 1
EndChar

StartChar: fi
Encoding: 26 26 12
Width: 610
Flags: W
LayerCount: 2
Fore
SplineSet
571 5 m 0,0,1
 571 -6 571 -6 560.5 -7 c 128,-1,2
 550 -8 550 -8 543 -8 c 0,3,4
 525 -8 525 -8 507.5 -5.5 c 128,-1,5
 490 -3 490 -3 473 -3 c 0,6,7
 447 -3 447 -3 420 -5.5 c 128,-1,8
 393 -8 393 -8 367 -8 c 2,9,-1
 356 -8 l 2,10,11
 348 -8 348 -8 341 -6 c 128,-1,12
 334 -4 334 -4 334 7 c 0,13,14
 334 10 334 10 336 12 c 128,-1,15
 338 14 338 14 340 16 c 0,16,17
 349 23 349 23 360.5 24.5 c 128,-1,18
 372 26 372 26 383 27.5 c 128,-1,19
 394 29 394 29 402.5 34.5 c 128,-1,20
 411 40 411 40 414 56 c 0,21,22
 416 66 416 66 416 70 c 2,23,-1
 416 85 l 2,24,25
 417 117 417 117 416.5 147.5 c 128,-1,26
 416 178 416 178 417 210 c 0,27,28
 418 234 418 234 419.5 257.5 c 128,-1,29
 421 281 421 281 421 305 c 0,30,31
 421 321 421 321 418.5 337 c 128,-1,32
 416 353 416 353 409 366 c 128,-1,33
 402 379 402 379 389.5 387.5 c 128,-1,34
 377 396 377 396 357 397 c 2,35,-1
 253 397 l 2,36,37
 229 397 229 397 211 396.5 c 128,-1,38
 193 396 193 396 186 396 c 1,39,40
 179 389 179 389 179.5 374 c 128,-1,41
 180 359 180 359 180 350 c 0,42,43
 180 281 180 281 179.5 215 c 128,-1,44
 179 149 179 149 179 80 c 0,45,46
 179 58 179 58 186 47 c 128,-1,47
 193 36 193 36 204 30.5 c 128,-1,48
 215 25 215 25 230 23.5 c 128,-1,49
 245 22 245 22 262 19 c 0,50,51
 266 15 266 15 266 8 c 256,52,53
 266 1 266 1 261 -1 c 1,54,-1
 260 -4 l 1,55,56
 253 -8 253 -8 241 -8 c 0,57,58
 222 -8 222 -8 203 -5 c 128,-1,59
 184 -2 184 -2 165 -2 c 0,60,61
 136 -2 136 -2 107 -5 c 128,-1,62
 78 -8 78 -8 49 -8 c 0,63,64
 44 -8 44 -8 33.5 -7 c 128,-1,65
 23 -6 23 -6 23 2 c 0,66,67
 23 16 23 16 35 19 c 128,-1,68
 47 22 47 22 62 25.5 c 128,-1,69
 77 29 77 29 89 39.5 c 128,-1,70
 101 50 101 50 101 79 c 2,71,-1
 101 366 l 2,72,73
 101 379 101 379 98 393 c 1,74,75
 74 396 74 396 51 396 c 0,76,77
 43 396 43 396 33 398 c 128,-1,78
 23 400 23 400 23 411 c 0,79,80
 23 415 23 415 23.5 420.5 c 128,-1,81
 24 426 24 426 26 430 c 0,82,83
 29 435 29 435 38.5 437 c 128,-1,84
 48 439 48 439 59.5 440.5 c 128,-1,85
 71 442 71 442 82.5 443 c 128,-1,86
 94 444 94 444 100 447 c 1,87,88
 103 486 103 486 104 526.5 c 128,-1,89
 105 567 105 567 115 605 c 0,90,91
 124 643 124 643 142 677.5 c 128,-1,92
 160 712 160 712 186.5 738 c 128,-1,93
 213 764 213 764 247.5 779 c 128,-1,94
 282 794 282 794 323 793 c 0,95,96
 344 793 344 793 365.5 790 c 128,-1,97
 387 787 387 787 404 778.5 c 128,-1,98
 421 770 421 770 432 756 c 128,-1,99
 443 742 443 742 444 721 c 0,100,101
 447 709 447 709 440.5 698 c 128,-1,102
 434 687 434 687 423 680.5 c 128,-1,103
 412 674 412 674 399.5 673 c 128,-1,104
 387 672 387 672 379 679 c 0,105,106
 373 683 373 683 369.5 694 c 128,-1,107
 366 705 366 705 356.5 715.5 c 128,-1,108
 347 726 347 726 327 734.5 c 128,-1,109
 307 743 307 743 268 743 c 0,110,111
 247 743 247 743 232 730 c 128,-1,112
 217 717 217 717 207 696.5 c 128,-1,113
 197 676 197 676 191 650 c 128,-1,114
 185 624 185 624 182 597.5 c 128,-1,115
 179 571 179 571 178 547 c 128,-1,116
 177 523 177 523 177 506 c 2,117,-1
 177 492 l 2,118,119
 177 480 177 480 177.5 463.5 c 128,-1,120
 178 447 178 447 183 442 c 1,121,-1
 412 442 l 2,122,123
 428 442 428 442 441 446.5 c 128,-1,124
 454 451 454 451 464.5 456 c 128,-1,125
 475 461 475 461 482 463.5 c 128,-1,126
 489 466 489 466 492 463 c 0,127,128
 494 461 494 461 496 460.5 c 128,-1,129
 498 460 498 460 498 458 c 0,130,131
 498 443 498 443 497.5 428.5 c 128,-1,132
 497 414 497 414 496 399 c 0,133,134
 495 369 495 369 494.5 338.5 c 128,-1,135
 494 308 494 308 494 278 c 0,136,137
 494 241 494 241 494.5 204.5 c 128,-1,138
 495 168 495 168 496 131 c 0,139,140
 496 114 496 114 495.5 96.5 c 128,-1,141
 495 79 495 79 497 62 c 0,142,143
 499 41 499 41 510.5 34 c 128,-1,144
 522 27 522 27 535.5 24.5 c 128,-1,145
 549 22 549 22 560 19.5 c 128,-1,146
 571 17 571 17 571 5 c 0,0,1
EndSplineSet
Validated: 33
EndChar

StartChar: fl
Encoding: 27 27 13
Width: 616
Flags: W
LayerCount: 2
Fore
SplineSet
576 8 m 0,0,1
 576 -3 576 -3 566 -6 c 0,2,3
 565 -7 565 -7 561 -7 c 2,4,-1
 557 -7 l 2,5,6
 534 -7 534 -7 510.5 -4.5 c 128,-1,7
 487 -2 487 -2 464 -2 c 0,8,9
 435 -2 435 -2 407 -5 c 128,-1,10
 379 -8 379 -8 350 -8 c 0,11,12
 345 -8 345 -8 335 -6.5 c 128,-1,13
 325 -5 325 -5 325 3 c 0,14,15
 325 16 325 16 331 17.5 c 128,-1,16
 337 19 337 19 350 23 c 0,17,18
 367 28 367 28 382 34.5 c 128,-1,19
 397 41 397 41 404 59 c 0,20,21
 407 67 407 67 408 79 c 128,-1,22
 409 91 409 91 409 100 c 0,23,24
 409 235 409 235 409.5 365.5 c 128,-1,25
 410 496 410 496 410 631 c 0,26,27
 410 668 410 668 398 693 c 128,-1,28
 386 718 386 718 366 731.5 c 128,-1,29
 346 745 346 745 320.5 747.5 c 128,-1,30
 295 750 295 750 268 743 c 0,31,32
 236 735 236 735 218 706.5 c 128,-1,33
 200 678 200 678 191 642 c 128,-1,34
 182 606 182 606 179.5 568.5 c 128,-1,35
 177 531 177 531 177 506 c 2,36,-1
 177 492 l 2,37,38
 177 480 177 480 177.5 463.5 c 128,-1,39
 178 447 178 447 183 442 c 1,40,-1
 295 442 l 2,41,42
 308 442 308 442 314 436 c 0,43,44
 314 431 314 431 314.5 427 c 128,-1,45
 315 423 315 423 315 418 c 0,46,47
 315 407 315 407 310 399 c 0,48,49
 305 398 305 398 299 397.5 c 128,-1,50
 293 397 293 397 287 397 c 2,51,-1
 225 397 l 2,52,53
 215 397 215 397 205 397 c 0,54,55
 196 397 196 397 186 396 c 1,56,57
 179 389 179 389 179.5 374 c 128,-1,58
 180 359 180 359 180 350 c 0,59,60
 180 281 180 281 179.5 215 c 128,-1,61
 179 149 179 149 179 80 c 0,62,63
 179 58 179 58 186 47 c 128,-1,64
 193 36 193 36 204 30.5 c 128,-1,65
 215 25 215 25 230 23.5 c 128,-1,66
 245 22 245 22 262 19 c 0,67,68
 266 15 266 15 266 8 c 256,69,70
 266 1 266 1 261 -1 c 1,71,-1
 260 -4 l 1,72,73
 253 -8 253 -8 241 -8 c 0,74,75
 222 -8 222 -8 203 -5 c 128,-1,76
 184 -2 184 -2 165 -2 c 0,77,78
 136 -2 136 -2 107 -5 c 128,-1,79
 78 -8 78 -8 49 -8 c 0,80,81
 44 -8 44 -8 33.5 -7 c 128,-1,82
 23 -6 23 -6 23 2 c 0,83,84
 23 16 23 16 35 19 c 128,-1,85
 47 22 47 22 62 25.5 c 128,-1,86
 77 29 77 29 89 39.5 c 128,-1,87
 101 50 101 50 101 79 c 2,88,-1
 101 366 l 2,89,90
 101 379 101 379 98 393 c 1,91,92
 74 396 74 396 51 396 c 0,93,94
 43 396 43 396 33 398 c 128,-1,95
 23 400 23 400 23 411 c 0,96,97
 23 415 23 415 23.5 420.5 c 128,-1,98
 24 426 24 426 26 430 c 0,99,100
 29 435 29 435 38.5 437 c 128,-1,101
 48 439 48 439 59.5 440.5 c 128,-1,102
 71 442 71 442 82.5 443 c 128,-1,103
 94 444 94 444 100 447 c 1,104,105
 103 486 103 486 104 526.5 c 128,-1,106
 105 567 105 567 115 605 c 0,107,108
 124 643 124 643 142 677.5 c 128,-1,109
 160 712 160 712 186.5 738 c 128,-1,110
 213 764 213 764 247.5 779 c 128,-1,111
 282 794 282 794 323 793 c 0,112,113
 353 792 353 792 377 785.5 c 128,-1,114
 401 779 401 779 418 760 c 1,115,116
 440 768 440 768 458.5 774.5 c 128,-1,117
 477 781 477 781 483 783 c 1,118,119
 489 779 489 779 489 779 c 1,120,121
 489 765 489 765 489.5 752 c 128,-1,122
 490 739 490 739 490 725 c 0,123,124
 490 561 490 561 489.5 401 c 128,-1,125
 489 241 489 241 489 77 c 0,126,127
 489 44 489 44 506.5 35.5 c 128,-1,128
 524 27 524 27 551 24 c 0,129,130
 553 22 553 22 555.5 22.5 c 128,-1,131
 558 23 558 23 560 23 c 0,132,133
 576 23 576 23 576 8 c 0,0,1
EndSplineSet
Validated: 33
EndChar

StartChar: Lslash
Encoding: 28 28 14
Width: 627
Flags: W
LayerCount: 2
Fore
SplineSet
40 304 m 0,0,1
 39 307 39 307 45 311.5 c 128,-1,2
 51 316 51 316 59.5 320.5 c 128,-1,3
 68 325 68 325 77.5 329.5 c 128,-1,4
 87 334 87 334 92 337 c 0,5,6
 106 343 106 343 120.5 351.5 c 128,-1,7
 135 360 135 360 149 368 c 1,8,-1
 149 600 l 2,9,10
 149 625 149 625 145 645 c 0,11,12
 141 667 141 667 123.5 674.5 c 128,-1,13
 106 682 106 682 86.5 684.5 c 128,-1,14
 67 687 67 687 51.5 689.5 c 128,-1,15
 36 692 36 692 36 706 c 256,16,17
 36 720 36 720 47.5 722 c 128,-1,18
 59 724 59 724 70 724 c 0,19,20
 105 724 105 724 138.5 720.5 c 128,-1,21
 172 717 172 717 207 717 c 0,22,23
 244 717 244 717 277.5 719 c 128,-1,24
 311 721 311 721 353 721 c 1,25,26
 362 713 362 713 362 705 c 0,27,28
 362 693 362 693 350.5 689.5 c 128,-1,29
 339 686 339 686 323 684.5 c 128,-1,30
 307 683 307 683 291 681.5 c 128,-1,31
 275 680 275 680 265 672 c 0,32,33
 258 666 258 666 254.5 656 c 128,-1,34
 251 646 251 646 249.5 635 c 128,-1,35
 248 624 248 624 247.5 613 c 128,-1,36
 247 602 247 602 247 594 c 0,37,38
 247 549 247 549 246.5 505 c 128,-1,39
 246 461 246 461 246 416 c 1,40,41
 275 430 275 430 302.5 444 c 128,-1,42
 330 458 330 458 349 467 c 0,43,44
 354 469 354 469 361.5 453 c 128,-1,45
 369 437 369 437 379 417 c 0,46,47
 380 414 380 414 376 410.5 c 128,-1,48
 372 407 372 407 366 403 c 128,-1,49
 360 399 360 399 353 396 c 128,-1,50
 346 393 346 393 340 390 c 2,51,-1
 245 341 l 1,52,-1
 245 199 l 2,53,54
 245 181 245 181 245.5 159.5 c 128,-1,55
 246 138 246 138 248 118.5 c 128,-1,56
 250 99 250 99 254 83.5 c 128,-1,57
 258 68 258 68 265 62 c 0,58,59
 290 43 290 43 322.5 39 c 128,-1,60
 355 35 355 35 386 39.5 c 128,-1,61
 417 44 417 44 442 53 c 128,-1,62
 467 62 467 62 476 68 c 0,63,64
 492 77 492 77 509.5 99.5 c 128,-1,65
 527 122 527 122 542 146.5 c 128,-1,66
 557 171 557 171 568 190.5 c 128,-1,67
 579 210 579 210 582 213 c 0,68,69
 591 220 591 220 602 217.5 c 128,-1,70
 613 215 613 215 617 206 c 1,71,72
 592 166 592 166 578 126.5 c 128,-1,73
 564 87 564 87 556 55.5 c 128,-1,74
 548 24 548 24 542.5 4.5 c 128,-1,75
 537 -15 537 -15 530 -15 c 0,76,77
 464 -15 464 -15 394 -6 c 128,-1,78
 324 3 324 3 258 3 c 0,79,80
 225 3 225 3 200.5 1 c 128,-1,81
 176 -1 176 -1 153.5 -3 c 128,-1,82
 131 -5 131 -5 106.5 -7 c 128,-1,83
 82 -9 82 -9 49 -9 c 0,84,85
 43 -9 43 -9 39 -4 c 128,-1,86
 35 1 35 1 35 7 c 0,87,88
 35 21 35 21 45 24.5 c 128,-1,89
 55 28 55 28 70 29 c 128,-1,90
 85 30 85 30 102 32.5 c 128,-1,91
 119 35 119 35 133 48 c 0,92,93
 145 60 145 60 149 88 c 128,-1,94
 153 116 153 116 153.5 151.5 c 128,-1,95
 154 187 154 187 152 224.5 c 128,-1,96
 150 262 150 262 149 292 c 1,97,-1
 110 272 l 2,98,99
 106 270 106 270 98 266.5 c 128,-1,100
 90 263 90 263 82.5 260 c 128,-1,101
 75 257 75 257 69 255.5 c 128,-1,102
 63 254 63 254 63 256 c 0,103,104
 59 261 59 261 55 270.5 c 128,-1,105
 51 280 51 280 40 304 c 0,0,1
EndSplineSet
Validated: 33
EndChar

StartChar: lslash
Encoding: 29 29 15
Width: 317
Flags: W
LayerCount: 2
Fore
SplineSet
284 7 m 0,0,1
 284 -4 284 -4 274 -7 c 0,2,3
 273 -8 273 -8 269 -8 c 2,4,-1
 265 -8 l 2,5,6
 242 -8 242 -8 218.5 -5.5 c 128,-1,7
 195 -3 195 -3 172 -3 c 0,8,9
 143 -3 143 -3 115 -6 c 128,-1,10
 87 -9 87 -9 58 -9 c 0,11,12
 53 -9 53 -9 43 -7.5 c 128,-1,13
 33 -6 33 -6 33 2 c 0,14,15
 33 15 33 15 39 16.5 c 128,-1,16
 45 18 45 18 58 22 c 0,17,18
 75 27 75 27 90 33.5 c 128,-1,19
 105 40 105 40 112 58 c 0,20,21
 115 66 115 66 116 78 c 128,-1,22
 117 90 117 90 117 99 c 2,23,-1
 117 328 l 1,24,-1
 69 303 l 2,25,26
 65 301 65 301 57 297.5 c 128,-1,27
 49 294 49 294 41.5 291 c 128,-1,28
 34 288 34 288 28 286.5 c 128,-1,29
 22 285 22 285 22 287 c 0,30,31
 18 292 18 292 14 301.5 c 128,-1,32
 10 311 10 311 -1 335 c 0,33,34
 -2 338 -2 338 4 342.5 c 128,-1,35
 10 347 10 347 18.5 351.5 c 128,-1,36
 27 356 27 356 36.5 360.5 c 128,-1,37
 46 365 46 365 51 368 c 0,38,39
 59 371 59 371 71 378 c 128,-1,40
 83 385 83 385 118 402 c 1,41,-1
 118 461 l 2,42,43
 118 489 118 489 118.5 516 c 128,-1,44
 119 543 119 543 119 570 c 2,45,-1
 119 630 l 2,46,47
 119 645 119 645 117.5 662.5 c 128,-1,48
 116 680 116 680 105 692 c 0,49,50
 101 696 101 696 93.5 700 c 128,-1,51
 86 704 86 704 78.5 708 c 128,-1,52
 71 712 71 712 65 716 c 128,-1,53
 59 720 59 720 59 725 c 0,54,55
 59 727 59 727 59 729 c 0,56,57
 59 732 59 732 61 732 c 0,58,59
 70 732 70 732 91.5 738.5 c 128,-1,60
 113 745 113 745 135.5 753.5 c 128,-1,61
 158 762 158 762 174.5 770 c 128,-1,62
 191 778 191 778 191 782 c 1,63,64
 197 778 197 778 197 778 c 1,65,66
 197 764 197 764 197.5 751 c 128,-1,67
 198 738 198 738 198 724 c 2,68,-1
 198 650 l 2,69,70
 198 616 198 616 197.5 583 c 128,-1,71
 197 550 197 550 197 515 c 2,72,-1
 197 442 l 1,73,74
 209 448 209 448 218.5 453 c 128,-1,75
 228 458 228 458 238 463.5 c 128,-1,76
 248 469 248 469 260.5 475.5 c 128,-1,77
 273 482 273 482 290 491 c 0,78,79
 295 493 295 493 302.5 477 c 128,-1,80
 310 461 310 461 320 441 c 0,81,82
 321 438 321 438 317 434.5 c 128,-1,83
 313 431 313 431 307 427 c 128,-1,84
 301 423 301 423 294 420 c 128,-1,85
 287 417 287 417 281 414 c 2,86,-1
 197 369 l 1,87,-1
 197 76 l 2,88,89
 197 43 197 43 214.5 34.5 c 128,-1,90
 232 26 232 26 259 23 c 0,91,92
 261 21 261 21 263.5 21.5 c 128,-1,93
 266 22 266 22 268 22 c 0,94,95
 284 22 284 22 284 7 c 0,0,1
EndSplineSet
Validated: 1
EndChar

StartChar: Zcaron
Encoding: 30 30 16
Width: 757
Flags: W
LayerCount: 2
Fore
SplineSet
503 941 m 0,0,1
 509 941 509 941 509 934 c 0,2,3
 509 931 509 931 502.5 917 c 128,-1,4
 496 903 496 903 485.5 884 c 128,-1,5
 475 865 475 865 462.5 843 c 128,-1,6
 450 821 450 821 438.5 802 c 128,-1,7
 427 783 427 783 417.5 769 c 128,-1,8
 408 755 408 755 404 752 c 1,9,10
 395 757 395 757 394 760 c 0,11,12
 365 808 365 808 338.5 850.5 c 128,-1,13
 312 893 312 893 298 930 c 0,14,15
 296 936 296 936 296 938 c 0,16,17
 296 946 296 946 305 945 c 0,18,19
 310 944 310 944 322 929.5 c 128,-1,20
 334 915 334 915 348.5 896 c 128,-1,21
 363 877 363 877 378 859.5 c 128,-1,22
 393 842 393 842 404 835 c 1,23,24
 415 842 415 842 428.5 859.5 c 128,-1,25
 442 877 442 877 455 895 c 128,-1,26
 468 913 468 913 480.5 927 c 128,-1,27
 493 941 493 941 503 941 c 0,0,1
90 732 m 0,28,29
 101 732 101 732 106 731 c 128,-1,30
 111 730 111 730 115 728.5 c 128,-1,31
 119 727 119 727 124.5 725 c 128,-1,32
 130 723 130 723 141 722 c 1,33,34
 150 716 150 716 168 714 c 128,-1,35
 186 712 186 712 202 712 c 2,36,-1
 221 712 l 2,37,38
 266 712 266 712 321 713 c 128,-1,39
 376 714 376 714 433.5 714.5 c 128,-1,40
 491 715 491 715 546.5 716 c 128,-1,41
 602 717 602 717 647 717 c 0,42,43
 657 717 657 717 672 719.5 c 128,-1,44
 687 722 687 722 699.5 723 c 128,-1,45
 712 724 712 724 720.5 720 c 128,-1,46
 729 716 729 716 726 704 c 0,47,48
 726 703 726 703 709 682.5 c 128,-1,49
 692 662 692 662 663.5 629 c 128,-1,50
 635 596 635 596 598.5 553.5 c 128,-1,51
 562 511 562 511 523.5 466 c 128,-1,52
 485 421 485 421 446.5 376.5 c 128,-1,53
 408 332 408 332 376.5 294.5 c 128,-1,54
 345 257 345 257 322.5 230.5 c 128,-1,55
 300 204 300 204 293 195 c 0,56,57
 285 184 285 184 268.5 164.5 c 128,-1,58
 252 145 252 145 234.5 123.5 c 128,-1,59
 217 102 217 102 203.5 82.5 c 128,-1,60
 190 63 190 63 188 51 c 0,61,62
 188 43 188 43 194.5 39 c 128,-1,63
 201 35 201 35 210 34 c 128,-1,64
 219 33 219 33 229 33.5 c 128,-1,65
 239 34 239 34 247 34 c 0,66,67
 292 34 292 34 344.5 34.5 c 128,-1,68
 397 35 397 35 442 35 c 0,69,70
 477 35 477 35 518 36.5 c 128,-1,71
 559 38 559 38 594 48 c 0,72,73
 619 58 619 58 632.5 75.5 c 128,-1,74
 646 93 646 93 660 116 c 0,75,76
 666 127 666 127 670 140.5 c 128,-1,77
 674 154 674 154 679.5 164 c 128,-1,78
 685 174 685 174 692.5 176.5 c 128,-1,79
 700 179 700 179 712 169 c 1,80,81
 715 152 715 152 715 137 c 0,82,83
 715 120 715 120 710.5 102.5 c 128,-1,84
 706 85 706 85 703 68 c 0,85,86
 701 56 701 56 699.5 42.5 c 128,-1,87
 698 29 698 29 694 17.5 c 128,-1,88
 690 6 690 6 682 -1 c 128,-1,89
 674 -8 674 -8 658 -8 c 0,90,91
 620 -8 620 -8 582 -6 c 128,-1,92
 544 -4 544 -4 506 -4 c 2,93,-1
 419 -4 l 2,94,95
 328 -4 328 -4 229.5 -7.5 c 128,-1,96
 131 -11 131 -11 40 -11 c 0,97,98
 24 -11 24 -11 24 4 c 0,99,100
 24 6 24 6 40.5 26.5 c 128,-1,101
 57 47 57 47 83.5 80.5 c 128,-1,102
 110 114 110 114 145 156.5 c 128,-1,103
 180 199 180 199 217 244 c 128,-1,104
 254 289 254 289 290.5 333.5 c 128,-1,105
 327 378 327 378 357.5 414.5 c 128,-1,106
 388 451 388 451 409.5 477.5 c 128,-1,107
 431 504 431 504 438 513 c 256,108,109
 445 522 445 522 464 543 c 128,-1,110
 483 564 483 564 503 586.5 c 128,-1,111
 523 609 523 609 540 629 c 128,-1,112
 557 649 557 649 560 656 c 0,113,114
 562 658 562 658 565 663.5 c 128,-1,115
 568 669 568 669 569 672 c 0,116,117
 570 676 570 676 562.5 677.5 c 128,-1,118
 555 679 555 679 544 679 c 0,119,120
 534 679 534 679 524 678.5 c 128,-1,121
 514 678 514 678 511 678 c 2,122,-1
 441 678 l 2,123,124
 412 678 412 678 381 677.5 c 128,-1,125
 350 677 350 677 319.5 676.5 c 128,-1,126
 289 676 289 676 260.5 675.5 c 128,-1,127
 232 675 232 675 210 674 c 0,128,129
 178 672 178 672 152 664 c 128,-1,130
 126 656 126 656 103 631 c 0,131,132
 95 623 95 623 88 611 c 128,-1,133
 81 599 81 599 74.5 587 c 128,-1,134
 68 575 68 575 61 566.5 c 128,-1,135
 54 558 54 558 48 558 c 0,136,137
 43 558 43 558 33.5 560.5 c 128,-1,138
 24 563 24 563 27 571 c 0,139,140
 33 597 33 597 41 623 c 128,-1,141
 49 649 49 649 57 675 c 0,142,143
 65 697 65 697 70.5 714.5 c 128,-1,144
 76 732 76 732 90 732 c 0,28,29
EndSplineSet
Validated: 1
EndChar

StartChar: zcaron
Encoding: 31 31 17
Width: 465
Flags: W
LayerCount: 2
Fore
SplineSet
334 689 m 0,0,1
 340 689 340 689 340 682 c 0,2,3
 340 679 340 679 333.5 665 c 128,-1,4
 327 651 327 651 316.5 632 c 128,-1,5
 306 613 306 613 293.5 591 c 128,-1,6
 281 569 281 569 269.5 550 c 128,-1,7
 258 531 258 531 248.5 517 c 128,-1,8
 239 503 239 503 235 500 c 1,9,10
 226 505 226 505 225 508 c 0,11,12
 196 556 196 556 169.5 598.5 c 128,-1,13
 143 641 143 641 129 678 c 0,14,15
 127 684 127 684 127 686 c 0,16,17
 127 694 127 694 136 693 c 0,18,19
 141 692 141 692 153 677.5 c 128,-1,20
 165 663 165 663 179.5 644 c 128,-1,21
 194 625 194 625 209 607.5 c 128,-1,22
 224 590 224 590 235 583 c 1,23,24
 246 590 246 590 259.5 607.5 c 128,-1,25
 273 625 273 625 286 643 c 128,-1,26
 299 661 299 661 311.5 675 c 128,-1,27
 324 689 324 689 334 689 c 0,0,1
421 86 m 2,28,29
 421 74 421 74 420.5 60 c 128,-1,30
 420 46 420 46 418.5 33.5 c 128,-1,31
 417 21 417 21 415 11.5 c 128,-1,32
 413 2 413 2 410 0 c 0,33,34
 406 -7 406 -7 399.5 -3.5 c 128,-1,35
 393 0 393 0 386 0 c 0,36,37
 311 0 311 0 241 -1 c 128,-1,38
 171 -2 171 -2 96 -2 c 2,39,-1
 82 -2 l 2,40,41
 74 -2 74 -2 65 -1.5 c 128,-1,42
 56 -1 56 -1 48 0 c 128,-1,43
 40 1 40 1 34.5 3.5 c 128,-1,44
 29 6 29 6 29 9 c 0,45,46
 29 14 29 14 31 17 c 128,-1,47
 33 20 33 20 35 24 c 0,48,49
 43 36 43 36 53 47 c 128,-1,50
 63 58 63 58 72 69 c 0,51,52
 117 126 117 126 158.5 183.5 c 128,-1,53
 200 241 200 241 242 299 c 0,54,55
 248 308 248 308 260 323.5 c 128,-1,56
 272 339 272 339 284 355.5 c 128,-1,57
 296 372 296 372 306.5 387 c 128,-1,58
 317 402 317 402 320 410 c 0,59,60
 321 414 321 414 313 415.5 c 128,-1,61
 305 417 305 417 293.5 417.5 c 128,-1,62
 282 418 282 418 271 417.5 c 128,-1,63
 260 417 260 417 254 417 c 2,64,-1
 223 417 l 2,65,66
 197 417 197 417 168.5 416.5 c 128,-1,67
 140 416 140 416 120 411 c 0,68,69
 103 408 103 408 93.5 399 c 128,-1,70
 84 390 84 390 76.5 380 c 128,-1,71
 69 370 69 370 62 362.5 c 128,-1,72
 55 355 55 355 43 355 c 0,73,74
 38 355 38 355 33 356.5 c 128,-1,75
 28 358 28 358 30 365 c 0,76,77
 33 375 33 375 34.5 379 c 128,-1,78
 36 383 36 383 37.5 386 c 128,-1,79
 39 389 39 389 40.5 393 c 128,-1,80
 42 397 42 397 45 407 c 0,81,82
 47 415 47 415 49.5 424 c 128,-1,83
 52 433 52 433 55 441 c 0,84,85
 57 447 57 447 61 452.5 c 128,-1,86
 65 458 65 458 73 458 c 0,87,88
 87 458 87 458 97.5 453.5 c 128,-1,89
 108 449 108 449 130 449 c 2,90,-1
 286 449 l 2,91,92
 304 449 304 449 322.5 450 c 128,-1,93
 341 451 341 451 359 451 c 2,94,-1
 374 451 l 2,95,96
 388 451 388 451 405 449 c 128,-1,97
 422 447 422 447 427 442 c 0,98,99
 432 435 432 435 428 427 c 0,100,101
 380 361 380 361 333.5 297.5 c 128,-1,102
 287 234 287 234 239 168 c 0,103,104
 218 139 218 139 191.5 105.5 c 128,-1,105
 165 72 165 72 151 40 c 0,106,107
 149 35 149 35 158 35 c 2,108,-1
 215 35 l 2,109,110
 236 35 236 35 260 35.5 c 128,-1,111
 284 36 284 36 306.5 38.5 c 128,-1,112
 329 41 329 41 346 44.5 c 128,-1,113
 363 48 363 48 370 54 c 256,114,115
 377 60 377 60 381 70.5 c 128,-1,116
 385 81 385 81 387.5 91.5 c 128,-1,117
 390 102 390 102 392.5 112 c 128,-1,118
 395 122 395 122 400 127 c 1,119,-1
 405 127 l 2,120,121
 415 128 415 128 418 123 c 128,-1,122
 421 118 421 118 421 109 c 2,123,-1
 421 86 l 2,28,29
EndSplineSet
Validated: 1
EndChar

StartChar: exclam
Encoding: 33 33 18
Width: 242
Flags: W
LayerCount: 2
Fore
SplineSet
179 45 m 0,0,1
 179 17 179 17 159.5 1 c 128,-1,2
 140 -15 140 -15 114 -15 c 0,3,4
 90 -15 90 -15 74 4 c 128,-1,5
 58 23 58 23 58 46 c 0,6,7
 58 72 58 72 75.5 90.5 c 128,-1,8
 93 109 93 109 119 109 c 0,9,10
 143 109 143 109 161 89 c 128,-1,11
 179 69 179 69 179 45 c 0,0,1
62 700 m 0,12,13
 61 715 61 715 64 720 c 128,-1,14
 67 725 67 725 74.5 725.5 c 128,-1,15
 82 726 82 726 94 724 c 128,-1,16
 106 722 106 722 124 722 c 0,17,18
 139 722 139 722 151 723.5 c 128,-1,19
 163 725 163 725 172 725 c 0,20,21
 183 725 183 725 188 720.5 c 128,-1,22
 193 716 193 716 191 700 c 0,23,24
 187 663 187 663 179.5 601.5 c 128,-1,25
 172 540 172 540 163.5 471 c 128,-1,26
 155 402 155 402 146 333.5 c 128,-1,27
 137 265 137 265 129 215 c 0,28,29
 128 210 128 210 120.5 211 c 128,-1,30
 113 212 113 212 109 215 c 0,31,32
 104 269 104 269 97 331.5 c 128,-1,33
 90 394 90 394 82.5 458 c 128,-1,34
 75 522 75 522 69.5 584.5 c 128,-1,35
 64 647 64 647 62 700 c 0,12,13
EndSplineSet
Validated: 1
EndChar

StartChar: quotedbl
Encoding: 34 34 19
Width: 297
Flags: W
LayerCount: 2
Fore
SplineSet
216 728 m 2,0,1
 222 728 222 728 229 727.5 c 128,-1,2
 236 727 236 727 248 727 c 0,3,4
 256 730 256 730 259.5 722.5 c 128,-1,5
 263 715 263 715 261 710 c 0,6,7
 259 699 259 699 255.5 670.5 c 128,-1,8
 252 642 252 642 248.5 610.5 c 128,-1,9
 245 579 245 579 241 552.5 c 128,-1,10
 237 526 237 526 234 520 c 0,11,12
 232 515 232 515 227 513 c 128,-1,13
 222 511 222 511 216.5 511.5 c 128,-1,14
 211 512 211 512 206 515.5 c 128,-1,15
 201 519 201 519 200 525 c 0,16,17
 198 538 198 538 194 564 c 128,-1,18
 190 590 190 590 186.5 618 c 128,-1,19
 183 646 183 646 180.5 671.5 c 128,-1,20
 178 697 178 697 178 711 c 0,21,22
 177 720 177 720 179.5 724 c 128,-1,23
 182 728 182 728 193 728 c 2,24,-1
 216 728 l 2,0,1
75 728 m 2,25,26
 81 728 81 728 88 727.5 c 128,-1,27
 95 727 95 727 107 727 c 0,28,29
 115 730 115 730 118.5 722.5 c 128,-1,30
 122 715 122 715 120 710 c 0,31,32
 118 699 118 699 114.5 670.5 c 128,-1,33
 111 642 111 642 107.5 610.5 c 128,-1,34
 104 579 104 579 100 552.5 c 128,-1,35
 96 526 96 526 93 520 c 0,36,37
 91 515 91 515 86 513 c 128,-1,38
 81 511 81 511 75.5 511.5 c 128,-1,39
 70 512 70 512 65 515.5 c 128,-1,40
 60 519 60 519 59 525 c 0,41,42
 57 538 57 538 53 564 c 128,-1,43
 49 590 49 590 45.5 618 c 128,-1,44
 42 646 42 646 39.5 671.5 c 128,-1,45
 37 697 37 697 37 711 c 0,46,47
 36 720 36 720 38.5 724 c 128,-1,48
 41 728 41 728 52 728 c 2,49,-1
 75 728 l 2,25,26
EndSplineSet
Validated: 1
EndChar

StartChar: numbersign
Encoding: 35 35 20
Width: 512
Flags: W
LayerCount: 2
Fore
SplineSet
316 328 m 1,0,1
 295 328 295 328 271 327.5 c 128,-1,2
 247 327 247 327 220 327 c 1,3,4
 213 296 213 296 208.5 273.5 c 128,-1,5
 204 251 204 251 199 232 c 1,6,-1
 296 232 l 1,7,8
 301 256 301 256 306 279.5 c 128,-1,9
 311 303 311 303 316 328 c 1,0,1
480 360 m 1,10,11
 480 352 480 352 479.5 342.5 c 128,-1,12
 479 333 479 333 474 327 c 1,13,14
 464 328 464 328 453 328 c 0,15,16
 443 328 443 328 430 328 c 2,17,-1
 369 328 l 1,18,19
 362 296 362 296 357.5 273.5 c 128,-1,20
 353 251 353 251 348 232 c 1,21,-1
 435 232 l 1,22,23
 448 214 448 214 445.5 199.5 c 128,-1,24
 443 185 443 185 435 168 c 1,25,26
 413 167 413 167 387.5 166.5 c 128,-1,27
 362 166 362 166 335 166 c 1,28,29
 329 137 329 137 323 100.5 c 128,-1,30
 317 64 317 64 307 2 c 1,31,32
 302 2 302 2 289.5 1 c 128,-1,33
 277 0 277 0 252 2 c 1,34,35
 261 53 261 53 268.5 92.5 c 128,-1,36
 276 132 276 132 283 166 c 1,37,-1
 186 166 l 1,38,39
 180 137 180 137 174 100.5 c 128,-1,40
 168 64 168 64 158 2 c 1,41,42
 153 2 153 2 140.5 1 c 128,-1,43
 128 0 128 0 103 2 c 1,44,45
 112 53 112 53 119.5 92.5 c 128,-1,46
 127 132 127 132 134 167 c 1,47,48
 107 167 107 167 84 167.5 c 128,-1,49
 61 168 61 168 43 169 c 1,50,51
 43 178 43 178 40.5 185 c 128,-1,52
 38 192 38 192 38 201 c 0,53,54
 38 207 38 207 40.5 216 c 128,-1,55
 43 225 43 225 44 231 c 1,56,57
 62 231 62 231 88.5 231.5 c 128,-1,58
 115 232 115 232 147 232 c 1,59,60
 152 256 152 256 157 279 c 128,-1,61
 162 302 162 302 167 327 c 1,62,-1
 88 327 l 1,63,64
 77 344 77 344 76 356.5 c 128,-1,65
 75 369 75 369 88 391 c 1,66,67
 111 391 111 391 133.5 390.5 c 128,-1,68
 156 390 156 390 179 390 c 1,69,70
 185 423 185 423 191.5 462.5 c 128,-1,71
 198 502 198 502 206 551 c 1,72,73
 216 554 216 554 234 554 c 0,74,75
 242 554 242 554 249.5 553.5 c 128,-1,76
 257 553 257 553 262 552 c 1,77,78
 257 510 257 510 249.5 470 c 128,-1,79
 242 430 242 430 233 390 c 1,80,81
 259 390 259 390 282 389.5 c 128,-1,82
 305 389 305 389 328 389 c 1,83,84
 334 423 334 423 340.5 461.5 c 128,-1,85
 347 500 347 500 355 551 c 1,86,87
 365 554 365 554 383 554 c 0,88,89
 391 554 391 554 398.5 553.5 c 128,-1,90
 406 553 406 553 411 552 c 1,91,92
 406 510 406 510 398.5 470.5 c 128,-1,93
 391 431 391 431 382 389 c 1,94,-1
 478 389 l 1,95,96
 480 379 480 379 480 374 c 2,97,-1
 480 360 l 1,98,-1
 480 360 l 1,10,11
EndSplineSet
Validated: 37
EndChar

StartChar: dollar
Encoding: 36 36 21
Width: 521
Flags: W
LayerCount: 2
Fore
SplineSet
128 587 m 0,0,1
 128 540 128 540 160 507 c 128,-1,2
 192 474 192 474 237 448 c 1,3,4
 237 523 237 523 237.5 586 c 128,-1,5
 238 649 238 649 238 703 c 1,6,7
 192 697 192 697 160 667.5 c 128,-1,8
 128 638 128 638 128 587 c 0,0,1
389 152 m 0,9,10
 388 206 388 206 355.5 240.5 c 128,-1,11
 323 275 323 275 275 303 c 1,12,-1
 275 17 l 1,13,14
 326 25 326 25 358 60 c 128,-1,15
 390 95 390 95 389 152 c 0,9,10
255 800 m 1,16,17
 260 800 260 800 266 799.5 c 128,-1,18
 272 799 272 799 276 795 c 1,19,20
 275 789 275 789 275 782 c 0,21,22
 275 776 275 776 275 769 c 256,23,24
 275 762 275 762 275 754 c 0,25,26
 275 747 275 747 274 739 c 1,27,28
 294 737 294 737 317.5 727 c 128,-1,29
 341 717 341 717 358 707 c 0,30,31
 369 701 369 701 374.5 706.5 c 128,-1,32
 380 712 380 712 385 722 c 128,-1,33
 390 732 390 732 397.5 741 c 128,-1,34
 405 750 405 750 420 750 c 0,35,36
 427 750 427 750 429 740 c 128,-1,37
 431 730 431 730 431 716 c 256,38,39
 431 702 431 702 429.5 687 c 128,-1,40
 428 672 428 672 428 661 c 0,41,42
 429 609 429 609 425 557 c 0,43,44
 423 548 423 548 420 545 c 128,-1,45
 417 542 417 542 413 542 c 256,46,47
 409 542 409 542 405 543 c 128,-1,48
 401 544 401 544 398 544 c 0,49,50
 392 544 392 544 388 553 c 128,-1,51
 384 562 384 562 381 574.5 c 128,-1,52
 378 587 378 587 375 600.5 c 128,-1,53
 372 614 372 614 366 624 c 0,54,55
 352 657 352 657 327 677 c 128,-1,56
 302 697 302 697 274 702 c 1,57,-1
 274 428 l 1,58,59
 303 413 303 413 332.5 398.5 c 128,-1,60
 362 384 362 384 386 369 c 0,61,62
 428 341 428 341 451.5 296 c 128,-1,63
 475 251 475 251 476 200 c 0,64,65
 476 100 476 100 420.5 44.5 c 128,-1,66
 365 -11 365 -11 275 -21 c 1,67,68
 274 -31 274 -31 274 -39 c 0,69,70
 274 -48 274 -48 274 -56 c 256,71,72
 274 -64 274 -64 274 -71 c 0,73,74
 274 -79 274 -79 273 -86 c 1,75,-1
 253 -86 l 2,76,77
 241 -86 241 -86 238 -85 c 0,78,79
 237 -79 237 -79 237 -72 c 256,80,81
 237 -65 237 -65 237 -57 c 2,82,-1
 237 -24 l 1,83,84
 218 -24 218 -24 201.5 -19 c 128,-1,85
 185 -14 185 -14 171 -8.5 c 128,-1,86
 157 -3 157 -3 144.5 2 c 128,-1,87
 132 7 132 7 122 7 c 0,88,89
 110 7 110 7 104.5 0.5 c 128,-1,90
 99 -6 99 -6 94 -14.5 c 128,-1,91
 89 -23 89 -23 82 -29.5 c 128,-1,92
 75 -36 75 -36 60 -36 c 0,93,94
 53 -36 53 -36 51 -23.5 c 128,-1,95
 49 -11 49 -11 49 6 c 256,96,97
 49 23 49 23 50.5 41 c 128,-1,98
 52 59 52 59 52 70 c 0,99,100
 52 96 52 96 52.5 117 c 128,-1,101
 53 138 53 138 55 164 c 0,102,103
 56 173 56 173 59.5 176 c 128,-1,104
 63 179 63 179 67 179 c 256,105,106
 71 179 71 179 74.5 178 c 128,-1,107
 78 177 78 177 81 177 c 0,108,109
 88 177 88 177 92 168.5 c 128,-1,110
 96 160 96 160 99 147.5 c 128,-1,111
 102 135 102 135 105.5 121 c 128,-1,112
 109 107 109 107 114 97 c 0,113,114
 130 60 130 60 164.5 39 c 128,-1,115
 199 18 199 18 237 15 c 1,116,-1
 237 324 l 1,117,118
 202 343 202 343 168 362.5 c 128,-1,119
 134 382 134 382 107 406.5 c 128,-1,120
 80 431 80 431 63 463 c 128,-1,121
 46 495 46 495 46 539 c 256,122,123
 46 583 46 583 60.5 618.5 c 128,-1,124
 75 654 75 654 101 679.5 c 128,-1,125
 127 705 127 705 162 720 c 128,-1,126
 197 735 197 735 238 739 c 1,127,-1
 238 798 l 1,128,129
 244 800 244 800 246 800 c 2,130,-1
 255 800 l 1,131,-1
 255 800 l 1,16,17
EndSplineSet
Validated: 37
EndChar

StartChar: percent
Encoding: 37 37 22
Width: 780
Flags: W
LayerCount: 2
Fore
SplineSet
661 145 m 0,0,1
 661 194 661 194 634.5 223 c 128,-1,2
 608 252 608 252 570 252 c 0,3,4
 539 252 539 252 512.5 224.5 c 128,-1,5
 486 197 486 197 485 152 c 0,6,7
 483 101 483 101 509 75.5 c 128,-1,8
 535 50 535 50 572 50 c 0,9,10
 605 50 605 50 632.5 74 c 128,-1,11
 660 98 660 98 661 145 c 0,0,1
294 550 m 0,12,13
 294 599 294 599 267.5 628 c 128,-1,14
 241 657 241 657 203 657 c 0,15,16
 172 657 172 657 145.5 629.5 c 128,-1,17
 119 602 119 602 118 557 c 0,18,19
 116 506 116 506 142 480.5 c 128,-1,20
 168 455 168 455 205 455 c 0,21,22
 238 455 238 455 265.5 479 c 128,-1,23
 293 503 293 503 294 550 c 0,12,13
655 646 m 1,24,25
 627 604 627 604 596 564.5 c 128,-1,26
 565 525 565 525 533 485 c 0,27,28
 439 365 439 365 346 248 c 128,-1,29
 253 131 253 131 165 7 c 1,30,31
 160 9 160 9 147 18 c 128,-1,32
 134 27 134 27 111 35 c 1,33,34
 232 197 232 197 356 353 c 128,-1,35
 480 509 480 509 600 674 c 1,36,37
 611 674 611 674 627.5 663 c 128,-1,38
 644 652 644 652 655 646 c 1,24,25
730 155 m 0,39,40
 730 121 730 121 718.5 91 c 128,-1,41
 707 61 707 61 686 38.5 c 128,-1,42
 665 16 665 16 636 2.5 c 128,-1,43
 607 -11 607 -11 572 -11 c 0,44,45
 536 -11 536 -11 506.5 0 c 128,-1,46
 477 11 477 11 456 32 c 128,-1,47
 435 53 435 53 423.5 82 c 128,-1,48
 412 111 412 111 412 147 c 0,49,50
 412 181 412 181 423.5 211 c 128,-1,51
 435 241 435 241 456 263.5 c 128,-1,52
 477 286 477 286 506 299 c 128,-1,53
 535 312 535 312 570 312 c 0,54,55
 602 312 602 312 631 300 c 128,-1,56
 660 288 660 288 682 267 c 128,-1,57
 704 246 704 246 717 217 c 128,-1,58
 730 188 730 188 730 155 c 0,39,40
363 560 m 0,59,60
 363 526 363 526 351.5 496 c 128,-1,61
 340 466 340 466 319 443.5 c 128,-1,62
 298 421 298 421 269 407.5 c 128,-1,63
 240 394 240 394 205 394 c 0,64,65
 169 394 169 394 139.5 405 c 128,-1,66
 110 416 110 416 89 437 c 128,-1,67
 68 458 68 458 56.5 487 c 128,-1,68
 45 516 45 516 45 552 c 0,69,70
 45 586 45 586 56.5 616 c 128,-1,71
 68 646 68 646 89 668.5 c 128,-1,72
 110 691 110 691 139 704 c 128,-1,73
 168 717 168 717 203 717 c 0,74,75
 235 717 235 717 264 705 c 128,-1,76
 293 693 293 693 315 672 c 128,-1,77
 337 651 337 651 350 622 c 128,-1,78
 363 593 363 593 363 560 c 0,59,60
EndSplineSet
Validated: 33
EndChar

StartChar: ampersand
Encoding: 38 38 23
Width: 792
Flags: W
LayerCount: 2
Fore
SplineSet
391 535 m 0,0,1
 391 573 391 573 370.5 598.5 c 128,-1,2
 350 624 350 624 310 624 c 0,3,4
 275 624 275 624 253 601 c 128,-1,5
 231 578 231 578 231 543 c 0,6,7
 231 522 231 522 240 503 c 0,8,9
 244 493 244 493 253.5 480.5 c 128,-1,10
 263 468 263 468 275 456 c 128,-1,11
 287 444 287 444 299.5 434 c 128,-1,12
 312 424 312 424 321 419 c 1,13,14
 326 421 326 421 329.5 423.5 c 128,-1,15
 333 426 333 426 337 428 c 0,16,17
 363 446 363 446 377 474.5 c 128,-1,18
 391 503 391 503 391 535 c 0,0,1
263 356 m 1,19,20
 212 336 212 336 179 293 c 128,-1,21
 146 250 146 250 146 193 c 0,22,23
 146 161 146 161 158 134 c 128,-1,24
 170 107 170 107 191 87 c 128,-1,25
 212 67 212 67 239.5 55.5 c 128,-1,26
 267 44 267 44 299 44 c 0,27,28
 347 44 347 44 381 64 c 128,-1,29
 415 84 415 84 447 117 c 0,30,31
 454 124 454 124 459.5 132.5 c 128,-1,32
 465 141 465 141 471 149 c 1,33,34
 465 164 465 164 454 176 c 128,-1,35
 443 188 443 188 432 202 c 0,36,37
 396 247 396 247 353.5 285.5 c 128,-1,38
 311 324 311 324 263 356 c 1,19,20
303 651 m 0,39,40
 334 651 334 651 362 645 c 128,-1,41
 390 639 390 639 411 625.5 c 128,-1,42
 432 612 432 612 444.5 590 c 128,-1,43
 457 568 457 568 457 536 c 0,44,45
 457 512 457 512 446.5 492 c 128,-1,46
 436 472 436 472 419 455.5 c 128,-1,47
 402 439 402 439 381.5 426 c 128,-1,48
 361 413 361 413 342 404 c 1,49,50
 351 396 351 396 360.5 389.5 c 128,-1,51
 370 383 370 383 380 375 c 0,52,53
 399 360 399 360 418 341 c 128,-1,54
 437 322 437 322 455.5 301.5 c 128,-1,55
 474 281 474 281 492 260.5 c 128,-1,56
 510 240 510 240 526 222 c 1,57,58
 530 224 530 224 532.5 227.5 c 128,-1,59
 535 231 535 231 537 234 c 0,60,61
 547 247 547 247 559 261 c 128,-1,62
 571 275 571 275 580.5 289 c 128,-1,63
 590 303 590 303 596.5 318 c 128,-1,64
 603 333 603 333 603 349 c 0,65,66
 603 368 603 368 598 374.5 c 128,-1,67
 593 381 593 381 587.5 383 c 128,-1,68
 582 385 582 385 577 387.5 c 128,-1,69
 572 390 572 390 572 402 c 0,70,71
 572 406 572 406 580 408 c 128,-1,72
 588 410 588 410 595 410 c 2,73,-1
 660 410 l 2,74,75
 682 410 682 410 704 412 c 128,-1,76
 726 414 726 414 749 414 c 0,77,78
 755 414 755 414 760 410.5 c 128,-1,79
 765 407 765 407 765 400 c 256,80,81
 765 393 765 393 760 389.5 c 128,-1,82
 755 386 755 386 748.5 384 c 128,-1,83
 742 382 742 382 734 381.5 c 128,-1,84
 726 381 726 381 720 381 c 0,85,86
 706 381 706 381 690 368 c 128,-1,87
 674 355 674 355 659 338 c 128,-1,88
 644 321 644 321 632.5 304.5 c 128,-1,89
 621 288 621 288 615 280 c 0,90,91
 598 258 598 258 580 234 c 128,-1,92
 562 210 562 210 545 189 c 1,93,94
 564 162 564 162 584.5 136.5 c 128,-1,95
 605 111 605 111 627.5 91 c 128,-1,96
 650 71 650 71 675.5 57.5 c 128,-1,97
 701 44 701 44 731 41 c 0,98,99
 738 38 738 38 746.5 35.5 c 128,-1,100
 755 33 755 33 760.5 29 c 128,-1,101
 766 25 766 25 766.5 18.5 c 128,-1,102
 767 12 767 12 760 1 c 0,103,104
 754 -1 754 -1 744.5 -2.5 c 128,-1,105
 735 -4 735 -4 724.5 -4.5 c 128,-1,106
 714 -5 714 -5 704 -5.5 c 128,-1,107
 694 -6 694 -6 687 -6 c 0,108,109
 639 -6 639 -6 608 8.5 c 128,-1,110
 577 23 577 23 556 43 c 128,-1,111
 535 63 535 63 519.5 84.5 c 128,-1,112
 504 106 504 106 488 120 c 0,113,114
 487 119 487 119 486.5 118 c 128,-1,115
 486 117 486 117 485 116 c 0,116,117
 474 99 474 99 457 80.5 c 128,-1,118
 440 62 440 62 420 44.5 c 128,-1,119
 400 27 400 27 379 12.5 c 128,-1,120
 358 -2 358 -2 340 -9 c 0,121,122
 301 -25 301 -25 252 -25 c 0,123,124
 220 -25 220 -25 193 -18 c 0,125,126
 163 -11 163 -11 138 5 c 128,-1,127
 113 21 113 21 96 43.5 c 128,-1,128
 79 66 79 66 69.5 94 c 128,-1,129
 60 122 60 122 60 153 c 2,130,-1
 60 172 l 2,131,132
 60 224 60 224 90 264.5 c 128,-1,133
 120 305 120 305 162 332 c 0,134,135
 179 343 179 343 201.5 353.5 c 128,-1,136
 224 364 224 364 238 378 c 0,137,138
 236 381 236 381 227 388 c 0,139,140
 203 409 203 409 182.5 441.5 c 128,-1,141
 162 474 162 474 162 507 c 0,142,143
 162 537 162 537 173 563 c 128,-1,144
 184 589 184 589 202.5 608.5 c 128,-1,145
 221 628 221 628 247 639.5 c 128,-1,146
 273 651 273 651 303 651 c 0,39,40
EndSplineSet
Validated: 1
EndChar

StartChar: quotesingle
Encoding: 39 39 24
Width: 156
Flags: W
LayerCount: 2
Fore
SplineSet
75 728 m 2,0,1
 81 728 81 728 88 727.5 c 128,-1,2
 95 727 95 727 107 727 c 0,3,4
 115 730 115 730 118.5 722.5 c 128,-1,5
 122 715 122 715 120 710 c 0,6,7
 118 699 118 699 114.5 670.5 c 128,-1,8
 111 642 111 642 107.5 610.5 c 128,-1,9
 104 579 104 579 100 552.5 c 128,-1,10
 96 526 96 526 93 520 c 0,11,12
 91 515 91 515 86 513 c 128,-1,13
 81 511 81 511 75.5 511.5 c 128,-1,14
 70 512 70 512 65 515.5 c 128,-1,15
 60 519 60 519 59 525 c 0,16,17
 57 538 57 538 53 564 c 128,-1,18
 49 590 49 590 45.5 618 c 128,-1,19
 42 646 42 646 39.5 671.5 c 128,-1,20
 37 697 37 697 37 711 c 0,21,22
 36 720 36 720 38.5 724 c 128,-1,23
 41 728 41 728 52 728 c 2,24,-1
 75 728 l 2,0,1
EndSplineSet
Validated: 1
EndChar

StartChar: parenleft
Encoding: 40 40 25
Width: 353
Flags: W
LayerCount: 2
Fore
SplineSet
317 717 m 0,0,1
 316 711 316 711 310 705 c 0,2,3
 274 669 274 669 250 635 c 0,4,5
 193 553 193 553 163.5 458 c 128,-1,6
 134 363 134 363 134 263 c 0,7,8
 134 227 134 227 138 187.5 c 128,-1,9
 142 148 142 148 150.5 108.5 c 128,-1,10
 159 69 159 69 172 32 c 128,-1,11
 185 -5 185 -5 203 -36 c 0,12,13
 225 -76 225 -76 248 -117 c 128,-1,14
 271 -158 271 -158 307 -188 c 0,15,16
 314 -197 314 -197 311 -207.5 c 128,-1,17
 308 -218 308 -218 297 -218 c 0,18,19
 288 -218 288 -218 274 -206 c 128,-1,20
 260 -194 260 -194 254 -188 c 0,21,22
 163 -95 163 -95 110.5 13 c 128,-1,23
 58 121 58 121 58 253 c 0,24,25
 58 310 58 310 70 368 c 128,-1,26
 82 426 82 426 104.5 481.5 c 128,-1,27
 127 537 127 537 159 587 c 128,-1,28
 191 637 191 637 231 678 c 0,29,30
 235 683 235 683 244 692 c 128,-1,31
 253 701 253 701 263.5 710 c 128,-1,32
 274 719 274 719 284 726 c 128,-1,33
 294 733 294 733 300 734 c 0,34,35
 311 728 311 728 317 717 c 0,0,1
EndSplineSet
Validated: 1
EndChar

StartChar: parenright
Encoding: 41 41 26
Width: 353
Flags: W
LayerCount: 2
Fore
SplineSet
290 263 m 0,0,1
 290 176 290 176 263.5 91.5 c 128,-1,2
 237 7 237 7 192 -65 c 0,3,4
 180 -85 180 -85 164.5 -106.5 c 128,-1,5
 149 -128 149 -128 130.5 -149 c 128,-1,6
 112 -170 112 -170 92 -188 c 128,-1,7
 72 -206 72 -206 52 -218 c 1,8,9
 34 -213 34 -213 30 -197 c 1,10,11
 63 -158 63 -158 94.5 -117 c 128,-1,12
 126 -76 126 -76 149 -30 c 0,13,14
 183 36 183 36 198.5 108.5 c 128,-1,15
 214 181 214 181 214 256 c 0,16,17
 214 304 214 304 207.5 354.5 c 128,-1,18
 201 405 201 405 187.5 454 c 128,-1,19
 174 503 174 503 153 549 c 128,-1,20
 132 595 132 595 104 634 c 256,21,22
 76 673 76 673 60 688.5 c 128,-1,23
 44 704 44 704 36 715 c 0,24,25
 34 719 34 719 40.5 727.5 c 128,-1,26
 47 736 47 736 52 736 c 0,27,28
 55 736 55 736 61 732.5 c 128,-1,29
 67 729 67 729 73 724 c 128,-1,30
 79 719 79 719 84.5 714.5 c 128,-1,31
 90 710 90 710 93 707 c 0,32,33
 184 616 184 616 237 505 c 128,-1,34
 290 394 290 394 290 263 c 0,0,1
EndSplineSet
Validated: 1
EndChar

StartChar: asterisk
Encoding: 42 42 27
Width: 520
Flags: W
LayerCount: 2
Fore
SplineSet
490 567 m 0,0,1
 495 557 495 557 491.5 553.5 c 128,-1,2
 488 550 488 550 480 547 c 0,3,4
 467 542 467 542 442 535 c 128,-1,5
 417 528 417 528 389.5 520.5 c 128,-1,6
 362 513 362 513 337 506.5 c 128,-1,7
 312 500 312 500 299 497 c 0,8,9
 287 493 287 493 283.5 501.5 c 128,-1,10
 280 510 280 510 286 517 c 0,11,12
 290 522 290 522 313.5 535.5 c 128,-1,13
 337 549 337 549 365 564.5 c 128,-1,14
 393 580 393 580 418.5 594 c 128,-1,15
 444 608 444 608 452 614 c 0,16,17
 457 616 457 616 464 615.5 c 128,-1,18
 471 615 471 615 472 606 c 0,19,20
 477 596 477 596 479 591 c 128,-1,21
 481 586 481 586 482.5 583 c 128,-1,22
 484 580 484 580 485.5 577 c 128,-1,23
 487 574 487 574 490 567 c 0,0,1
255 730 m 2,24,25
 258 730 258 730 263 729.5 c 128,-1,26
 268 729 268 729 279 729 c 0,27,28
 288 731 288 731 291 724 c 128,-1,29
 294 717 294 717 292 712 c 0,30,31
 290 701 290 701 287.5 672.5 c 128,-1,32
 285 644 285 644 282 613 c 128,-1,33
 279 582 279 582 275.5 555.5 c 128,-1,34
 272 529 272 529 269 523 c 0,35,36
 265 513 265 513 256 513 c 0,37,38
 248 513 248 513 246 527 c 0,39,40
 243 540 243 540 239 565.5 c 128,-1,41
 235 591 235 591 231 619 c 128,-1,42
 227 647 227 647 224 673 c 128,-1,43
 221 699 221 699 220 713 c 0,44,45
 221 721 221 721 223.5 725.5 c 128,-1,46
 226 730 226 730 237 730 c 2,47,-1
 255 730 l 2,24,25
92 324 m 0,48,49
 84 332 84 332 84 335 c 0,50,51
 84 340 84 340 91 347 c 0,52,53
 100 357 100 357 119 375 c 128,-1,54
 138 393 138 393 159 411.5 c 128,-1,55
 180 430 180 430 200 446.5 c 128,-1,56
 220 463 220 463 231 471 c 0,57,58
 241 480 241 480 248 474.5 c 128,-1,59
 255 469 255 469 251 458 c 0,60,61
 249 452 249 452 234.5 430 c 128,-1,62
 220 408 220 408 202 382 c 128,-1,63
 184 356 184 356 167.5 332.5 c 128,-1,64
 151 309 151 309 145 300 c 0,65,66
 143 295 143 295 136 292 c 128,-1,67
 129 289 129 289 124 297 c 0,68,69
 115 304 115 304 111.5 307 c 128,-1,70
 108 310 108 310 105.5 312 c 128,-1,71
 103 314 103 314 100.5 316.5 c 128,-1,72
 98 319 98 319 92 324 c 0,48,49
391 293 m 0,73,74
 378 283 378 283 366 297 c 0,75,76
 359 308 359 308 346 330.5 c 128,-1,77
 333 353 333 353 318.5 377.5 c 128,-1,78
 304 402 304 402 291.5 424.5 c 128,-1,79
 279 447 279 447 273 459 c 0,80,81
 267 470 267 470 273.5 476 c 128,-1,82
 280 482 280 482 289 476 c 0,83,84
 295 474 295 474 314.5 455 c 128,-1,85
 334 436 334 436 356 413 c 128,-1,86
 378 390 378 390 397.5 369 c 128,-1,87
 417 348 417 348 424 342 c 0,88,89
 429 338 429 338 430.5 331 c 128,-1,90
 432 324 432 324 424 321 c 0,91,92
 415 313 415 313 411 309 c 128,-1,93
 407 305 407 305 404.5 303 c 128,-1,94
 402 301 402 301 399.5 299 c 128,-1,95
 397 297 397 297 391 293 c 0,73,74
29 566 m 0,96,97
 32 573 32 573 33.5 576 c 128,-1,98
 35 579 35 579 36 582 c 128,-1,99
 37 585 37 585 39 589.5 c 128,-1,100
 41 594 41 594 46 605 c 0,101,102
 47 615 47 615 54 615 c 0,103,104
 62 615 62 615 67 610 c 0,105,106
 76 604 76 604 101 590.5 c 128,-1,107
 126 577 126 577 153.5 561.5 c 128,-1,108
 181 546 181 546 204 532.5 c 128,-1,109
 227 519 227 519 231 514 c 0,110,111
 238 506 238 506 234 497.5 c 128,-1,112
 230 489 230 489 217 492 c 0,113,114
 205 495 205 495 180 501.5 c 128,-1,115
 155 508 155 508 127.5 516 c 128,-1,116
 100 524 100 524 74.5 531.5 c 128,-1,117
 49 539 49 539 37 545 c 0,118,119
 29 548 29 548 26.5 552 c 128,-1,120
 24 556 24 556 29 566 c 0,96,97
EndSplineSet
Validated: 1
EndChar

StartChar: plus
Encoding: 43 43 28
Width: 480
Flags: W
LayerCount: 2
Fore
SplineSet
239 47 m 1,0,1
 231 47 231 47 221.5 47.5 c 128,-1,2
 212 48 212 48 206 53 c 1,3,4
 208 79 208 79 207.5 117 c 128,-1,5
 207 155 207 155 207 217 c 1,6,-1
 48 217 l 1,7,8
 37 234 37 234 36 246.5 c 128,-1,9
 35 259 35 259 48 281 c 1,10,11
 69 280 69 280 89 280 c 256,12,13
 109 280 109 280 129 280 c 2,14,-1
 206 280 l 1,15,-1
 206 439 l 1,16,17
 223 450 223 450 235.5 451 c 128,-1,18
 248 452 248 452 270 439 c 1,19,20
 269 418 269 418 269 397 c 0,21,22
 269 377 269 377 269 357 c 2,23,-1
 269 279 l 1,24,-1
 438 279 l 1,25,26
 440 269 440 269 440 264 c 2,27,-1
 440 250 l 2,28,29
 440 242 440 242 439.5 232.5 c 128,-1,30
 439 223 439 223 434 217 c 1,31,32
 408 219 408 219 369.5 218.5 c 128,-1,33
 331 218 331 218 268 218 c 1,34,-1
 268 49 l 1,35,36
 258 47 258 47 253 47 c 2,37,-1
 239 47 l 1,38,-1
 239 47 l 1,0,1
EndSplineSet
Validated: 37
EndChar

StartChar: comma
Encoding: 44 44 29
Width: 258
Flags: W
LayerCount: 2
Fore
SplineSet
212 -9 m 0,0,1
 212 -44 212 -44 196.5 -75 c 128,-1,2
 181 -106 181 -106 156 -130 c 0,3,4
 137 -149 137 -149 111.5 -165.5 c 128,-1,5
 86 -182 86 -182 66 -185 c 0,6,7
 61 -186 61 -186 56 -180 c 128,-1,8
 51 -174 51 -174 52 -169 c 0,9,10
 54 -162 54 -162 69.5 -152.5 c 128,-1,11
 85 -143 85 -143 102.5 -128.5 c 128,-1,12
 120 -114 120 -114 134.5 -94.5 c 128,-1,13
 149 -75 149 -75 149 -49 c 0,14,15
 149 -33 149 -33 145 -24.5 c 128,-1,16
 141 -16 141 -16 133.5 -11.5 c 128,-1,17
 126 -7 126 -7 116 -4 c 128,-1,18
 106 -1 106 -1 94 4 c 0,19,20
 77 12 77 12 64.5 22.5 c 128,-1,21
 52 33 52 33 52 53 c 0,22,23
 52 68 52 68 58.5 78.5 c 128,-1,24
 65 89 65 89 75.5 95.5 c 128,-1,25
 86 102 86 102 98.5 105 c 128,-1,26
 111 108 111 108 124 108 c 0,27,28
 145 108 145 108 161.5 96.5 c 128,-1,29
 178 85 178 85 189 67.5 c 128,-1,30
 200 50 200 50 206 29.5 c 128,-1,31
 212 9 212 9 212 -9 c 0,0,1
EndSplineSet
Validated: 1
EndChar

StartChar: hyphen
Encoding: 45 45 30
Width: 377
Flags: W
LayerCount: 2
Fore
SplineSet
47 271 m 0,0,1
 47 276 47 276 62 277 c 128,-1,2
 77 278 77 278 91 278 c 2,3,-1
 108 278 l 2,4,5
 165 278 165 278 222 277 c 128,-1,6
 279 276 279 276 336 279 c 0,7,8
 342 279 342 279 342 261 c 2,9,-1
 342 221 l 2,10,11
 342 216 342 216 331.5 214.5 c 128,-1,12
 321 213 321 213 309 213 c 2,13,-1
 83 213 l 2,14,15
 71 213 71 213 59 214 c 128,-1,16
 47 215 47 215 47 218 c 0,17,18
 46 225 46 225 46.5 235 c 128,-1,19
 47 245 47 245 47 271 c 0,0,1
EndSplineSet
Validated: 33
EndChar

StartChar: period
Encoding: 46 46 31
Width: 251
Flags: W
LayerCount: 2
Fore
SplineSet
177 43 m 256,0,1
 177 17 177 17 160 1 c 128,-1,2
 143 -15 143 -15 117 -15 c 256,3,4
 91 -15 91 -15 73.5 1.5 c 128,-1,5
 56 18 56 18 56 45 c 256,6,7
 56 72 56 72 74.5 89.5 c 128,-1,8
 93 107 93 107 119 107 c 0,9,10
 147 107 147 107 162 88 c 128,-1,11
 177 69 177 69 177 43 c 256,0,1
EndSplineSet
Validated: 1
EndChar

StartChar: slash
Encoding: 47 47 32
Width: 378
Flags: W
LayerCount: 2
Fore
SplineSet
351 727 m 1,0,1
 337 678 337 678 319 631.5 c 128,-1,2
 301 585 301 585 283 537 c 0,3,4
 229 394 229 394 176 254.5 c 128,-1,5
 123 115 123 115 75 -30 c 1,6,7
 70 -30 70 -30 57.5 -31 c 128,-1,8
 45 -32 45 -32 20 -30 c 1,9,10
 89 161 89 161 160 347 c 128,-1,11
 231 533 231 533 295 726 c 1,12,13
 305 729 305 729 323 729 c 0,14,15
 331 729 331 729 338.5 728.5 c 128,-1,16
 346 728 346 728 351 727 c 1,0,1
EndSplineSet
Validated: 33
EndChar

StartChar: zero
Encoding: 48 48 33
Width: 578
Flags: W
LayerCount: 2
Fore
SplineSet
444 213 m 0,0,1
 444 247 444 247 435.5 281.5 c 128,-1,2
 427 316 427 316 408.5 344 c 128,-1,3
 390 372 390 372 359.5 389.5 c 128,-1,4
 329 407 329 407 286 407 c 0,5,6
 248 408 248 408 220 391 c 128,-1,7
 192 374 192 374 174 347 c 128,-1,8
 156 320 156 320 147 286.5 c 128,-1,9
 138 253 138 253 137 221 c 0,10,11
 136 186 136 186 144 153 c 128,-1,12
 152 120 152 120 170.5 94 c 128,-1,13
 189 68 189 68 218.5 52 c 128,-1,14
 248 36 248 36 290 35 c 0,15,16
 330 34 330 34 358.5 49.5 c 128,-1,17
 387 65 387 65 405.5 90.5 c 128,-1,18
 424 116 424 116 433.5 148 c 128,-1,19
 443 180 443 180 444 213 c 0,0,1
528 228 m 0,20,21
 528 177 528 177 510.5 131.5 c 128,-1,22
 493 86 493 86 462 52 c 128,-1,23
 431 18 431 18 387 -2 c 128,-1,24
 343 -22 343 -22 291 -22 c 0,25,26
 238 -22 238 -22 193.5 -5 c 128,-1,27
 149 12 149 12 117 43.5 c 128,-1,28
 85 75 85 75 67.5 118.5 c 128,-1,29
 50 162 50 162 50 216 c 0,30,31
 50 267 50 267 67.5 312 c 128,-1,32
 85 357 85 357 116.5 390.5 c 128,-1,33
 148 424 148 424 191.5 444 c 128,-1,34
 235 464 235 464 287 464 c 0,35,36
 336 464 336 464 379.5 446 c 128,-1,37
 423 428 423 428 456 396.5 c 128,-1,38
 489 365 489 365 508.5 321.5 c 128,-1,39
 528 278 528 278 528 228 c 0,20,21
EndSplineSet
Validated: 33
EndChar

StartChar: one
Encoding: 49 49 34
Width: 364
Flags: W
LayerCount: 2
Fore
SplineSet
330 431 m 0,0,1
 330 417 330 417 319.5 414 c 128,-1,2
 309 411 309 411 295 411 c 0,3,4
 268 411 268 411 253 406 c 128,-1,5
 238 401 238 401 231 392 c 128,-1,6
 224 383 224 383 223 369 c 128,-1,7
 222 355 222 355 222 337 c 0,8,9
 222 280 222 280 220.5 224 c 128,-1,10
 219 168 219 168 219 111 c 2,11,-1
 219 97 l 1,12,-1
 219 111 l 1,13,-1
 219 87 l 1,14,-1
 219 97 l 1,15,16
 220 83 220 83 223 68 c 128,-1,17
 226 53 226 53 236 44 c 0,18,19
 245 36 245 36 260.5 33 c 128,-1,20
 276 30 276 30 290.5 27.5 c 128,-1,21
 305 25 305 25 316 22 c 128,-1,22
 327 19 327 19 327 10 c 0,23,24
 327 -5 327 -5 312.5 -6.5 c 128,-1,25
 298 -8 298 -8 283 -8 c 0,26,27
 255 -8 255 -8 227 -5 c 128,-1,28
 199 -2 199 -2 171 -2 c 0,29,30
 156 -2 156 -2 145 -3 c 128,-1,31
 134 -4 134 -4 124.5 -5.5 c 128,-1,32
 115 -7 115 -7 104 -8 c 128,-1,33
 93 -9 93 -9 78 -9 c 2,34,-1
 64 -9 l 2,35,36
 54 -9 54 -9 44.5 -5.5 c 128,-1,37
 35 -2 35 -2 35 10 c 0,38,39
 35 19 35 19 45 22.5 c 128,-1,40
 55 26 55 26 68.5 28.5 c 128,-1,41
 82 31 82 31 97 34.5 c 128,-1,42
 112 38 112 38 122 47 c 0,43,44
 132 55 132 55 134.5 75.5 c 128,-1,45
 137 96 137 96 137 115 c 2,46,-1
 137 136 l 1,47,-1
 138 207 l 2,48,49
 138 233 138 233 138.5 258 c 128,-1,50
 139 283 139 283 139 308 c 2,51,-1
 139 327 l 2,52,53
 139 344 139 344 136 364 c 128,-1,54
 133 384 133 384 127 392 c 0,55,56
 116 403 116 403 101 405.5 c 128,-1,57
 86 408 86 408 72 409 c 128,-1,58
 58 410 58 410 48.5 414 c 128,-1,59
 39 418 39 418 39 432 c 0,60,61
 39 442 39 442 48.5 443.5 c 128,-1,62
 58 445 58 445 66 445 c 2,63,-1
 77 445 l 2,64,65
 106 445 106 445 128 442 c 128,-1,66
 150 439 150 439 179 439 c 0,67,68
 193 439 193 439 208 440.5 c 128,-1,69
 223 442 223 442 237 442 c 2,70,-1
 324 442 l 1,71,72
 330 436 330 436 330 431 c 0,0,1
EndSplineSet
Validated: 5
EndChar

StartChar: two
Encoding: 50 50 35
Width: 456
Flags: W
LayerCount: 2
Fore
SplineSet
46 354 m 0,0,1
 46 358 46 358 49.5 365.5 c 128,-1,2
 53 373 53 373 58.5 380.5 c 128,-1,3
 64 388 64 388 69 395 c 128,-1,4
 74 402 74 402 77 405 c 0,5,6
 97 427 97 427 114 438.5 c 128,-1,7
 131 450 131 450 146.5 455 c 128,-1,8
 162 460 162 460 176.5 461 c 128,-1,9
 191 462 191 462 206 462 c 0,10,11
 278 462 278 462 311 416.5 c 128,-1,12
 344 371 344 371 323 296 c 0,13,14
 318 276 318 276 303.5 250.5 c 128,-1,15
 289 225 289 225 269.5 197.5 c 128,-1,16
 250 170 250 170 228 143.5 c 128,-1,17
 206 117 206 117 186 95.5 c 128,-1,18
 166 74 166 74 151 59.5 c 128,-1,19
 136 45 136 45 131 42 c 1,20,21
 144 36 144 36 174.5 34 c 128,-1,22
 205 32 205 32 238.5 33.5 c 128,-1,23
 272 35 272 35 300.5 41 c 128,-1,24
 329 47 329 47 337 57 c 0,25,26
 347 70 347 70 358.5 86 c 128,-1,27
 370 102 370 102 380.5 117 c 128,-1,28
 391 132 391 132 399 143.5 c 128,-1,29
 407 155 407 155 409 158 c 0,30,31
 417 169 417 169 428.5 164.5 c 128,-1,32
 440 160 440 160 444 151 c 1,33,34
 419 111 419 111 409.5 79.5 c 128,-1,35
 400 48 400 48 397 27 c 128,-1,36
 394 6 394 6 393 -5 c 128,-1,37
 392 -16 392 -16 384 -15 c 0,38,39
 356 -13 356 -13 314 -6.5 c 128,-1,40
 272 0 272 0 209 2 c 0,41,42
 183 2 183 2 150.5 1.5 c 128,-1,43
 118 1 118 1 92 1 c 0,44,45
 88 1 88 1 81.5 -7.5 c 128,-1,46
 75 -16 75 -16 71 -14 c 0,47,48
 61 -14 61 -14 56 -10 c 128,-1,49
 51 -6 51 -6 51 7 c 0,50,51
 51 12 51 12 56 17 c 0,52,53
 84 48 84 48 112 84 c 128,-1,54
 140 120 140 120 164.5 156 c 128,-1,55
 189 192 189 192 208 225.5 c 128,-1,56
 227 259 227 259 238 286 c 0,57,58
 259 341 259 341 238 373 c 128,-1,59
 217 405 217 405 166 405 c 0,60,61
 135 405 135 405 117.5 396.5 c 128,-1,62
 100 388 100 388 90 376.5 c 128,-1,63
 80 365 80 365 74.5 355 c 128,-1,64
 69 345 69 345 63 342 c 256,65,66
 57 339 57 339 51.5 343 c 128,-1,67
 46 347 46 347 46 354 c 0,0,1
EndSplineSet
Validated: 33
EndChar

StartChar: three
Encoding: 51 51 36
Width: 407
Flags: W
LayerCount: 2
Fore
SplineSet
41 370 m 0,0,1
 40 383 40 383 52.5 399 c 128,-1,2
 65 415 65 415 85 429 c 128,-1,3
 105 443 105 443 129.5 453 c 128,-1,4
 154 463 154 463 177 463 c 0,5,6
 201 463 201 463 223.5 457 c 128,-1,7
 246 451 246 451 264 437.5 c 128,-1,8
 282 424 282 424 293 403 c 128,-1,9
 304 382 304 382 304 351 c 0,10,11
 304 330 304 330 290 303.5 c 128,-1,12
 276 277 276 277 256.5 252.5 c 128,-1,13
 237 228 237 228 216 207.5 c 128,-1,14
 195 187 195 187 181 177 c 1,15,16
 225 181 225 181 260.5 169.5 c 128,-1,17
 296 158 296 158 320.5 134.5 c 128,-1,18
 345 111 345 111 358 78 c 128,-1,19
 371 45 371 45 371 7 c 0,20,21
 371 -50 371 -50 341 -101.5 c 128,-1,22
 311 -153 311 -153 265 -192 c 128,-1,23
 219 -231 219 -231 163.5 -254 c 128,-1,24
 108 -277 108 -277 56 -278 c 0,25,26
 50 -278 50 -278 47.5 -274.5 c 128,-1,27
 45 -271 45 -271 45.5 -266.5 c 128,-1,28
 46 -262 46 -262 48.5 -258.5 c 128,-1,29
 51 -255 51 -255 55 -255 c 0,30,31
 101 -242 101 -242 143 -221.5 c 128,-1,32
 185 -201 185 -201 216.5 -172.5 c 128,-1,33
 248 -144 248 -144 266.5 -107 c 128,-1,34
 285 -70 285 -70 285 -24 c 0,35,36
 285 0 285 0 278 24 c 128,-1,37
 271 48 271 48 258 68.5 c 128,-1,38
 245 89 245 89 225.5 103 c 128,-1,39
 206 117 206 117 181 122 c 0,40,41
 161 126 161 126 139 128 c 128,-1,42
 117 130 117 130 96 119 c 0,43,44
 89 116 89 116 76.5 107.5 c 128,-1,45
 64 99 64 99 59 99 c 0,46,47
 44 99 44 99 44 116 c 0,48,49
 44 125 44 125 57.5 131.5 c 128,-1,50
 71 138 71 138 77 141 c 0,51,52
 99 153 99 153 125.5 172.5 c 128,-1,53
 152 192 152 192 175.5 216.5 c 128,-1,54
 199 241 199 241 214.5 268.5 c 128,-1,55
 230 296 230 296 230 323 c 0,56,57
 230 371 230 371 206 394 c 128,-1,58
 182 417 182 417 150 417 c 256,59,60
 118 417 118 417 98.5 401 c 128,-1,61
 79 385 79 385 56 359 c 0,62,63
 52 355 52 355 47 359.5 c 128,-1,64
 42 364 42 364 41 370 c 0,0,1
EndSplineSet
Validated: 33
EndChar

StartChar: four
Encoding: 52 52 37
Width: 578
Flags: W
LayerCount: 2
Fore
SplineSet
566 23 m 0,0,1
 566 2 566 2 545 2 c 0,2,3
 533 2 533 2 521 3 c 128,-1,4
 509 4 509 4 496 4 c 2,5,-1
 477 4 l 2,6,7
 459 4 459 4 444 4.5 c 128,-1,8
 429 5 429 5 418.5 3.5 c 128,-1,9
 408 2 408 2 402 -3 c 128,-1,10
 396 -8 396 -8 396 -19 c 2,11,-1
 396 -218 l 2,12,13
 396 -226 396 -226 395.5 -233.5 c 128,-1,14
 395 -241 395 -241 398 -249 c 0,15,16
 396 -265 396 -265 381 -271.5 c 128,-1,17
 366 -278 366 -278 349 -278 c 0,18,19
 335 -278 335 -278 324 -274 c 128,-1,20
 313 -270 313 -270 313 -264 c 0,21,22
 315 -247 315 -247 315.5 -220 c 128,-1,23
 316 -193 316 -193 316 -165 c 2,24,-1
 316 -74 l 2,25,26
 316 -67 316 -67 316.5 -58 c 128,-1,27
 317 -49 317 -49 317 -40 c 0,28,29
 317 -19 317 -19 310 -9.5 c 128,-1,30
 303 0 303 0 292.5 3 c 128,-1,31
 282 6 282 6 269.5 5 c 128,-1,32
 257 4 257 4 246 4 c 0,33,34
 189 4 189 4 134 0 c 128,-1,35
 79 -4 79 -4 22 -4 c 0,36,37
 14 -4 14 -4 10 4.5 c 128,-1,38
 6 13 6 13 12 21 c 0,39,40
 24 39 24 39 43 66 c 128,-1,41
 62 93 62 93 84.5 124 c 128,-1,42
 107 155 107 155 131.5 188.5 c 128,-1,43
 156 222 156 222 178.5 252.5 c 128,-1,44
 201 283 201 283 220.5 309 c 128,-1,45
 240 335 240 335 253 351 c 0,46,47
 267 369 267 369 273 379 c 128,-1,48
 279 389 279 389 283.5 397.5 c 128,-1,49
 288 406 288 406 293.5 416 c 128,-1,50
 299 426 299 426 312 445 c 0,51,52
 319 455 319 455 332.5 459 c 128,-1,53
 346 463 346 463 360 463 c 256,54,55
 374 463 374 463 384 458 c 128,-1,56
 394 453 394 453 393 445 c 0,57,58
 393 442 393 442 394 432 c 128,-1,59
 395 422 395 422 395 387 c 2,60,-1
 395 70 l 2,61,62
 395 56 395 56 416 56 c 2,63,-1
 464 56 l 2,64,65
 485 56 485 56 504 56.5 c 128,-1,66
 523 57 523 57 532 57 c 0,67,68
 546 57 546 57 556 47 c 128,-1,69
 566 37 566 37 566 23 c 0,0,1
95 67 m 0,70,71
 95 59 95 59 102 56.5 c 128,-1,72
 109 54 109 54 115 54 c 0,73,74
 125 54 125 54 151 55 c 128,-1,75
 177 56 177 56 206 56.5 c 128,-1,76
 235 57 235 57 259 58 c 128,-1,77
 283 59 283 59 289 59 c 0,78,79
 309 59 309 59 313 64.5 c 128,-1,80
 317 70 317 70 317 83 c 2,81,-1
 317 140 l 2,82,83
 317 174 317 174 316.5 213 c 128,-1,84
 316 252 316 252 316 292 c 2,85,-1
 316 367 l 1,86,87
 278 316 278 316 227 252 c 128,-1,88
 176 188 176 188 122 112 c 0,89,90
 116 103 116 103 105.5 90.5 c 128,-1,91
 95 78 95 78 95 67 c 0,70,71
EndSplineSet
Validated: 1
EndChar

StartChar: five
Encoding: 53 53 38
Width: 487
Flags: W
LayerCount: 2
Fore
SplineSet
418 537 m 0,0,1
 421 534 421 534 420 525 c 128,-1,2
 419 516 419 516 415.5 502.5 c 128,-1,3
 412 489 412 489 407 471.5 c 128,-1,4
 402 454 402 454 398 434 c 0,5,6
 395 424 395 424 391.5 413 c 128,-1,7
 388 402 388 402 381.5 392.5 c 128,-1,8
 375 383 375 383 364.5 377 c 128,-1,9
 354 371 354 371 338 371 c 0,10,11
 325 371 325 371 296 371 c 0,12,13
 268 371 268 371 237 371 c 256,14,15
 206 371 206 371 181 369.5 c 128,-1,16
 156 368 156 368 151 365 c 0,17,18
 143 365 143 365 135 345 c 128,-1,19
 127 325 127 325 119.5 299.5 c 128,-1,20
 112 274 112 274 105.5 249.5 c 128,-1,21
 99 225 99 225 93 215 c 1,22,23
 108 222 108 222 126 233 c 128,-1,24
 144 244 144 244 167.5 253.5 c 128,-1,25
 191 263 191 263 220 268.5 c 128,-1,26
 249 274 249 274 285 269 c 0,27,28
 329 262 329 262 361.5 241.5 c 128,-1,29
 394 221 394 221 414.5 191 c 128,-1,30
 435 161 435 161 443 122.5 c 128,-1,31
 451 84 451 84 446 41 c 0,32,33
 438 -26 438 -26 400 -82 c 128,-1,34
 362 -138 362 -138 308 -178 c 0,35,36
 288 -193 288 -193 279 -193 c 256,37,38
 270 -193 270 -193 258 -177 c 0,39,40
 255 -174 255 -174 267.5 -162 c 128,-1,41
 280 -150 280 -150 298 -128 c 128,-1,42
 316 -106 316 -106 334 -72.5 c 128,-1,43
 352 -39 352 -39 359 9 c 0,44,45
 364 47 364 47 362.5 76.5 c 128,-1,46
 361 106 361 106 350 128.5 c 128,-1,47
 339 151 339 151 317.5 168.5 c 128,-1,48
 296 186 296 186 261 200 c 0,49,50
 248 205 248 205 226 203.5 c 128,-1,51
 204 202 204 202 180 196.5 c 128,-1,52
 156 191 156 191 134 182.5 c 128,-1,53
 112 174 112 174 100 166 c 0,54,55
 92 163 92 163 87.5 156 c 128,-1,56
 83 149 83 149 77.5 143 c 128,-1,57
 72 137 72 137 63 134.5 c 128,-1,58
 54 132 54 132 39 138 c 0,59,60
 30 145 30 145 30 155 c 0,61,62
 30 172 30 172 39.5 187 c 128,-1,63
 49 202 49 202 52 210 c 0,64,65
 59 229 59 229 68.5 257 c 128,-1,66
 78 285 78 285 87 316 c 128,-1,67
 96 347 96 347 103 377 c 128,-1,68
 110 407 110 407 112 429 c 0,69,70
 113 434 113 434 115 438.5 c 128,-1,71
 117 443 117 443 124 443 c 0,72,73
 134 444 134 444 154.5 443.5 c 128,-1,74
 175 443 175 443 203.5 442.5 c 128,-1,75
 232 442 232 442 267 442.5 c 128,-1,76
 302 443 302 443 342 446 c 1,77,-1
 393 538 l 2,78,79
 398 545 398 545 405.5 542 c 128,-1,80
 413 539 413 539 418 537 c 0,0,1
EndSplineSet
Validated: 33
EndChar

StartChar: six
Encoding: 54 54 39
Width: 572
Flags: W
LayerCount: 2
Fore
SplineSet
515 229 m 0,0,1
 515 182 515 182 499 138.5 c 128,-1,2
 483 95 483 95 454.5 61 c 128,-1,3
 426 27 426 27 386 7 c 128,-1,4
 346 -13 346 -13 297 -13 c 0,5,6
 249 -13 249 -13 201 7 c 0,7,8
 162 24 162 24 134.5 50.5 c 128,-1,9
 107 77 107 77 89.5 110.5 c 128,-1,10
 72 144 72 144 63.5 182.5 c 128,-1,11
 55 221 55 221 55 261 c 0,12,13
 55 340 55 340 80.5 411.5 c 128,-1,14
 106 483 106 483 151 544 c 128,-1,15
 196 605 196 605 256 653.5 c 128,-1,16
 316 702 316 702 385 734 c 0,17,18
 396 739 396 739 410.5 745 c 128,-1,19
 425 751 425 751 436 752 c 0,20,21
 441 749 441 749 446.5 744 c 128,-1,22
 452 739 452 739 452 732 c 0,23,24
 452 727 452 727 444.5 721 c 128,-1,25
 437 715 437 715 427.5 710 c 128,-1,26
 418 705 418 705 408 700.5 c 128,-1,27
 398 696 398 696 394 694 c 0,28,29
 377 684 377 684 361.5 672.5 c 128,-1,30
 346 661 346 661 331 648 c 0,31,32
 265 591 265 591 222.5 516.5 c 128,-1,33
 180 442 180 442 162 357 c 1,34,35
 174 369 174 369 191.5 382 c 128,-1,36
 209 395 209 395 230 406 c 128,-1,37
 251 417 251 417 275.5 424 c 128,-1,38
 300 431 300 431 327 431 c 0,39,40
 370 431 370 431 405 415.5 c 128,-1,41
 440 400 440 400 464.5 373 c 128,-1,42
 489 346 489 346 502 309 c 128,-1,43
 515 272 515 272 515 229 c 0,0,1
288 386 m 0,44,45
 267 386 267 386 247 377.5 c 128,-1,46
 227 369 227 369 209.5 357 c 128,-1,47
 192 345 192 345 177.5 331.5 c 128,-1,48
 163 318 163 318 154 307 c 1,49,50
 152 288 152 288 150.5 273 c 128,-1,51
 149 258 149 258 149 239 c 0,52,53
 149 204 149 204 155.5 165.5 c 128,-1,54
 162 127 162 127 178 94 c 128,-1,55
 194 61 194 61 222 39.5 c 128,-1,56
 250 18 250 18 293 18 c 0,57,58
 330 18 330 18 355.5 36 c 128,-1,59
 381 54 381 54 397 82 c 128,-1,60
 413 110 413 110 420 143.5 c 128,-1,61
 427 177 427 177 427 208 c 0,62,63
 427 241 427 241 419 273 c 128,-1,64
 411 305 411 305 394.5 330 c 128,-1,65
 378 355 378 355 351.5 370.5 c 128,-1,66
 325 386 325 386 288 386 c 0,44,45
EndSplineSet
Validated: 1
EndChar

StartChar: seven
Encoding: 55 55 40
Width: 483
Flags: W
LayerCount: 2
Fore
SplineSet
463 429 m 0,0,1
 463 426 463 426 457.5 412.5 c 128,-1,2
 452 399 452 399 443 380 c 128,-1,3
 434 361 434 361 424 338.5 c 128,-1,4
 414 316 414 316 404 295.5 c 128,-1,5
 394 275 394 275 386.5 259 c 128,-1,6
 379 243 379 243 376 237 c 0,7,8
 316 105 316 105 257 -23 c 128,-1,9
 198 -151 198 -151 126 -277 c 0,10,11
 123 -282 123 -282 115 -281.5 c 128,-1,12
 107 -281 107 -281 99 -277 c 128,-1,13
 91 -273 91 -273 86 -267 c 128,-1,14
 81 -261 81 -261 83 -256 c 0,15,16
 131 -157 131 -157 178 -62 c 128,-1,17
 225 33 225 33 273 132 c 0,18,19
 296 183 296 183 319.5 232 c 128,-1,20
 343 281 343 281 363 332 c 0,21,22
 364 337 364 337 365 342 c 128,-1,23
 366 347 366 347 366 352 c 0,24,25
 366 362 366 362 356.5 363.5 c 128,-1,26
 347 365 347 365 340 365 c 2,27,-1
 36 365 l 2,28,29
 27 365 27 365 19.5 367.5 c 128,-1,30
 12 370 12 370 15 378 c 0,31,32
 24 402 24 402 31 427.5 c 128,-1,33
 38 453 38 453 44 474 c 128,-1,34
 50 495 50 495 55.5 508.5 c 128,-1,35
 61 522 61 522 66 522 c 256,36,37
 71 522 71 522 79.5 520 c 128,-1,38
 88 518 88 518 88 510 c 0,39,40
 87 491 87 491 87.5 475.5 c 128,-1,41
 88 460 88 460 87 443 c 1,42,-1
 126 442 l 1,43,-1
 206 442 l 2,44,45
 226 442 226 442 246 442 c 0,46,47
 267 442 267 442 287 443 c 0,48,49
 319 444 319 444 351.5 445.5 c 128,-1,50
 384 447 384 447 416 447 c 2,51,-1
 429 447 l 2,52,53
 440 447 440 447 451.5 443.5 c 128,-1,54
 463 440 463 440 463 429 c 0,0,1
EndSplineSet
Validated: 33
EndChar

StartChar: eight
Encoding: 56 56 41
Width: 496
Flags: W
LayerCount: 2
Fore
SplineSet
453 182 m 0,0,1
 454 141 454 141 439 105.5 c 128,-1,2
 424 70 424 70 397.5 43.5 c 128,-1,3
 371 17 371 17 335 2 c 128,-1,4
 299 -13 299 -13 259 -13 c 0,5,6
 220 -13 220 -13 182.5 -4.5 c 128,-1,7
 145 4 145 4 115.5 23 c 128,-1,8
 86 42 86 42 67.5 73.5 c 128,-1,9
 49 105 49 105 48 151 c 0,10,11
 47 182 47 182 57 208 c 128,-1,12
 67 234 67 234 85 256 c 128,-1,13
 103 278 103 278 126 295.5 c 128,-1,14
 149 313 149 313 174 327 c 2,15,-1
 195 339 l 1,16,17
 190 344 190 344 185 347.5 c 128,-1,18
 180 351 180 351 175 355 c 0,19,20
 152 370 152 370 129.5 387 c 128,-1,21
 107 404 107 404 89.5 424.5 c 128,-1,22
 72 445 72 445 60.5 469 c 128,-1,23
 49 493 49 493 48 523 c 0,24,25
 47 566 47 566 63.5 600.5 c 128,-1,26
 80 635 80 635 108 659.5 c 128,-1,27
 136 684 136 684 173 697 c 128,-1,28
 210 710 210 710 250 710 c 0,29,30
 286 710 286 710 321 699.5 c 128,-1,31
 356 689 356 689 383.5 669 c 128,-1,32
 411 649 411 649 428.5 618.5 c 128,-1,33
 446 588 446 588 447 549 c 0,34,35
 448 513 448 513 436 486.5 c 128,-1,36
 424 460 424 460 403.5 440.5 c 128,-1,37
 383 421 383 421 356 405.5 c 128,-1,38
 329 390 329 390 301 376 c 1,39,40
 307 371 307 371 314 367 c 128,-1,41
 321 363 321 363 328 359 c 0,42,43
 351 345 351 345 373.5 326.5 c 128,-1,44
 396 308 396 308 413.5 285.5 c 128,-1,45
 431 263 431 263 442 237 c 128,-1,46
 453 211 453 211 453 182 c 0,0,1
372 147 m 0,47,48
 371 182 371 182 358.5 210 c 128,-1,49
 346 238 346 238 326 259 c 128,-1,50
 306 280 306 280 279.5 296 c 128,-1,51
 253 312 253 312 224 323 c 1,52,53
 175 304 175 304 148 261 c 128,-1,54
 121 218 121 218 123 166 c 0,55,56
 124 137 124 137 130.5 110.5 c 128,-1,57
 137 84 137 84 150.5 63.5 c 128,-1,58
 164 43 164 43 185.5 30.5 c 128,-1,59
 207 18 207 18 238 18 c 0,60,61
 258 18 258 18 275 20 c 128,-1,62
 292 22 292 22 311 31 c 0,63,64
 346 48 346 48 360 78.5 c 128,-1,65
 374 109 374 109 372 147 c 0,47,48
372 544 m 0,66,67
 371 572 371 572 361.5 597.5 c 128,-1,68
 352 623 352 623 335.5 641.5 c 128,-1,69
 319 660 319 660 295 671 c 128,-1,70
 271 682 271 682 241 682 c 0,71,72
 188 682 188 682 155.5 646.5 c 128,-1,73
 123 611 123 611 123 558 c 0,74,75
 124 520 124 520 148 485 c 0,76,77
 156 474 156 474 171 459.5 c 128,-1,78
 186 445 186 445 203.5 431 c 128,-1,79
 221 417 221 417 238.5 406.5 c 128,-1,80
 256 396 256 396 270 393 c 1,81,82
 294 400 294 400 313 416 c 128,-1,83
 332 432 332 432 345 452.5 c 128,-1,84
 358 473 358 473 365 497 c 128,-1,85
 372 521 372 521 372 544 c 0,66,67
EndSplineSet
Validated: 33
EndChar

StartChar: nine
Encoding: 57 57 42
Width: 572
Flags: W
LayerCount: 2
Fore
SplineSet
282 45 m 0,0,1
 303 45 303 45 323 53.5 c 128,-1,2
 343 62 343 62 360.5 74 c 128,-1,3
 378 86 378 86 392.5 99.5 c 128,-1,4
 407 113 407 113 416 124 c 1,5,6
 418 143 418 143 419.5 158 c 128,-1,7
 421 173 421 173 421 192 c 0,8,9
 421 226 421 226 414.5 265 c 128,-1,10
 408 304 408 304 392 337 c 128,-1,11
 376 370 376 370 348 391.5 c 128,-1,12
 320 413 320 413 277 413 c 0,13,14
 240 413 240 413 214.5 395 c 128,-1,15
 189 377 189 377 173 349 c 128,-1,16
 157 321 157 321 150 287.5 c 128,-1,17
 143 254 143 254 143 223 c 0,18,19
 143 190 143 190 151 158 c 128,-1,20
 159 126 159 126 175.5 101 c 128,-1,21
 192 76 192 76 218.5 60.5 c 128,-1,22
 245 45 245 45 282 45 c 0,0,1
55 202 m 0,23,24
 55 249 55 249 71 292.5 c 128,-1,25
 87 336 87 336 115.5 370 c 128,-1,26
 144 404 144 404 184 424 c 128,-1,27
 224 444 224 444 273 444 c 0,28,29
 321 444 321 444 369 424 c 0,30,31
 408 407 408 407 435.5 380.5 c 128,-1,32
 463 354 463 354 480.5 320.5 c 128,-1,33
 498 287 498 287 506.5 248.5 c 128,-1,34
 515 210 515 210 515 170 c 0,35,36
 515 91 515 91 492.5 22.5 c 128,-1,37
 470 -46 470 -46 432.5 -101 c 128,-1,38
 395 -156 395 -156 345 -196.5 c 128,-1,39
 295 -237 295 -237 241 -259 c 0,40,41
 230 -264 230 -264 215.5 -270 c 128,-1,42
 201 -276 201 -276 190 -277 c 0,43,44
 185 -274 185 -274 179.5 -269 c 128,-1,45
 174 -264 174 -264 174 -257 c 0,46,47
 174 -254 174 -254 186 -246 c 128,-1,48
 198 -238 198 -238 214 -228.5 c 128,-1,49
 230 -219 230 -219 246 -209.5 c 128,-1,50
 262 -200 262 -200 270 -193 c 0,51,52
 330 -141 330 -141 360 -75.5 c 128,-1,53
 390 -10 390 -10 408 74 c 1,54,55
 396 62 396 62 378.5 49 c 128,-1,56
 361 36 361 36 340 25 c 128,-1,57
 319 14 319 14 294.5 7 c 128,-1,58
 270 0 270 0 243 0 c 0,59,60
 199 0 199 0 164.5 15.5 c 128,-1,61
 130 31 130 31 105.5 58 c 128,-1,62
 81 85 81 85 68 122 c 128,-1,63
 55 159 55 159 55 202 c 0,23,24
EndSplineSet
Validated: 1
EndChar

StartChar: colon
Encoding: 58 58 43
Width: 257
Flags: W
LayerCount: 2
Fore
SplineSet
183 396 m 0,0,1
 183 369 183 369 163.5 350 c 128,-1,2
 144 331 144 331 117 331 c 0,3,4
 113 331 113 331 112 332 c 0,5,6
 101 333 101 333 91 339.5 c 128,-1,7
 81 346 81 346 73.5 355.5 c 128,-1,8
 66 365 66 365 61.5 376.5 c 128,-1,9
 57 388 57 388 57 399 c 0,10,11
 57 422 57 422 75 441 c 128,-1,12
 93 460 93 460 116 460 c 0,13,14
 142 460 142 460 162.5 441 c 128,-1,15
 183 422 183 422 183 396 c 0,0,1
183 50 m 0,16,17
 183 24 183 24 164 3 c 128,-1,18
 145 -18 145 -18 118 -18 c 0,19,20
 105 -18 105 -18 93.5 -12 c 128,-1,21
 82 -6 82 -6 74 3.5 c 128,-1,22
 66 13 66 13 61 25 c 128,-1,23
 56 37 56 37 56 50 c 0,24,25
 56 76 56 76 74.5 93.5 c 128,-1,26
 93 111 93 111 119 111 c 0,27,28
 143 111 143 111 163 93 c 128,-1,29
 183 75 183 75 183 50 c 0,16,17
EndSplineSet
Validated: 1
EndChar

StartChar: semicolon
Encoding: 59 59 44
Width: 258
Flags: W
LayerCount: 2
Fore
SplineSet
191 396 m 0,0,1
 191 369 191 369 172.5 350 c 128,-1,2
 154 331 154 331 127 331 c 0,3,4
 124 331 124 331 123 332 c 0,5,6
 98 334 98 334 84.5 353 c 128,-1,7
 71 372 71 372 71 395 c 0,8,9
 71 423 71 423 87.5 440.5 c 128,-1,10
 104 458 104 458 132 458 c 0,11,12
 156 458 156 458 173.5 438.5 c 128,-1,13
 191 419 191 419 191 396 c 0,0,1
212 -12 m 0,14,15
 212 -49 212 -49 197.5 -78.5 c 128,-1,16
 183 -108 183 -108 156 -132 c 0,17,18
 151 -136 151 -136 139 -144.5 c 128,-1,19
 127 -153 127 -153 113.5 -162 c 128,-1,20
 100 -171 100 -171 87.5 -177.5 c 128,-1,21
 75 -184 75 -184 69 -184 c 0,22,23
 62 -184 62 -184 61 -177 c 1,24,25
 56 -175 56 -175 56 -168 c 0,26,27
 56 -167 56 -167 59.5 -163.5 c 128,-1,28
 63 -160 63 -160 67 -156.5 c 128,-1,29
 71 -153 71 -153 75 -150 c 128,-1,30
 79 -147 79 -147 81 -146 c 0,31,32
 96 -136 96 -136 108.5 -126 c 128,-1,33
 121 -116 121 -116 130 -104.5 c 128,-1,34
 139 -93 139 -93 144 -78.5 c 128,-1,35
 149 -64 149 -64 149 -44 c 0,36,37
 149 -26 149 -26 141.5 -17.5 c 128,-1,38
 134 -9 134 -9 122.5 -4.5 c 128,-1,39
 111 0 111 0 98 3 c 128,-1,40
 85 6 85 6 74 13 c 0,41,42
 51 27 51 27 51 51 c 0,43,44
 51 78 51 78 74 93 c 128,-1,45
 97 108 97 108 121 108 c 256,46,47
 145 108 145 108 162 97 c 128,-1,48
 179 86 179 86 190.5 68.5 c 128,-1,49
 202 51 202 51 207 30 c 128,-1,50
 212 9 212 9 212 -12 c 0,14,15
EndSplineSet
Validated: 1
EndChar

StartChar: less
Encoding: 60 60 45
Width: 458
Flags: W
LayerCount: 2
Fore
SplineSet
133 225 m 1,0,1
 181 188 181 188 215 162 c 128,-1,2
 249 136 249 136 280 114 c 128,-1,3
 311 92 311 92 343.5 69.5 c 128,-1,4
 376 47 376 47 421 16 c 1,5,6
 421 7 421 7 419.5 3 c 128,-1,7
 418 -1 418 -1 416 -4.5 c 128,-1,8
 414 -8 414 -8 412.5 -12 c 128,-1,9
 411 -16 411 -16 411 -25 c 1,10,11
 353 5 353 5 312.5 28.5 c 128,-1,12
 272 52 272 52 233.5 76 c 128,-1,13
 195 100 195 100 152.5 127.5 c 128,-1,14
 110 155 110 155 49 193 c 1,15,-1
 49 255 l 1,16,17
 91 279 91 279 122.5 298.5 c 128,-1,18
 154 318 154 318 180 335.5 c 128,-1,19
 206 353 206 353 229.5 369.5 c 128,-1,20
 253 386 253 386 278.5 402.5 c 128,-1,21
 304 419 304 419 334.5 437.5 c 128,-1,22
 365 456 365 456 406 478 c 1,23,24
 406 469 406 469 407 465 c 128,-1,25
 408 461 408 461 409 458 c 128,-1,26
 410 455 410 455 411 451.5 c 128,-1,27
 412 448 412 448 412 439 c 1,28,29
 366 405 366 405 330.5 378 c 128,-1,30
 295 351 295 351 263.5 326 c 128,-1,31
 232 301 232 301 201 277 c 128,-1,32
 170 253 170 253 133 225 c 1,0,1
EndSplineSet
Validated: 1
EndChar

StartChar: equal
Encoding: 61 61 46
Width: 512
Flags: W
LayerCount: 2
Fore
SplineSet
452 332 m 1,0,1
 452 324 452 324 451.5 314.5 c 128,-1,2
 451 305 451 305 446 299 c 1,3,4
 435 300 435 300 422 300 c 0,5,6
 410 300 410 300 395 300 c 2,7,-1
 320 300 l 2,8,9
 275 300 275 300 211.5 299.5 c 128,-1,10
 148 299 148 299 60 299 c 1,11,12
 49 316 49 316 48 328.5 c 128,-1,13
 47 341 47 341 60 363 c 1,14,15
 152 363 152 363 235.5 362 c 128,-1,16
 319 361 319 361 380 361 c 2,17,-1
 450 361 l 1,18,19
 452 351 452 351 452 346 c 2,20,-1
 452 332 l 1,21,-1
 452 332 l 1,0,1
56 203 m 1,22,23
 77 203 77 203 104 203.5 c 128,-1,24
 131 204 131 204 176 204 c 2,25,-1
 447 204 l 1,26,27
 460 186 460 186 457.5 171.5 c 128,-1,28
 455 157 455 157 447 140 c 1,29,30
 426 139 426 139 402 139 c 256,31,32
 378 139 378 139 350 139 c 2,33,-1
 241 139 l 2,34,35
 187 139 187 139 137.5 139.5 c 128,-1,36
 88 140 88 140 55 141 c 1,37,38
 55 150 55 150 52.5 157 c 128,-1,39
 50 164 50 164 50 173 c 0,40,41
 50 179 50 179 52.5 188 c 128,-1,42
 55 197 55 197 56 203 c 1,22,23
EndSplineSet
Validated: 37
EndChar

StartChar: greater
Encoding: 62 62 47
Width: 458
Flags: W
LayerCount: 2
Fore
SplineSet
335 225 m 1,0,1
 297 253 297 253 266.5 277 c 128,-1,2
 236 301 236 301 204.5 325.5 c 128,-1,3
 173 350 173 350 137.5 377.5 c 128,-1,4
 102 405 102 405 56 439 c 1,5,6
 56 448 56 448 57 451.5 c 128,-1,7
 58 455 58 455 59 458 c 128,-1,8
 60 461 60 461 61 465 c 128,-1,9
 62 469 62 469 62 478 c 1,10,11
 123 445 123 445 163 419.5 c 128,-1,12
 203 394 203 394 238.5 369.5 c 128,-1,13
 274 345 274 345 315 318 c 128,-1,14
 356 291 356 291 419 255 c 1,15,-1
 419 193 l 1,16,17
 378 168 378 168 346 147.5 c 128,-1,18
 314 127 314 127 286.5 109.5 c 128,-1,19
 259 92 259 92 234 76.5 c 128,-1,20
 209 61 209 61 182.5 45 c 128,-1,21
 156 29 156 29 125.5 12 c 128,-1,22
 95 -5 95 -5 57 -25 c 1,23,24
 57 -16 57 -16 55.5 -12 c 128,-1,25
 54 -8 54 -8 52 -4.5 c 128,-1,26
 50 -1 50 -1 48.5 3 c 128,-1,27
 47 7 47 7 47 16 c 1,28,29
 92 47 92 47 125 71 c 128,-1,30
 158 95 158 95 189 117.5 c 128,-1,31
 220 140 220 140 254 165.5 c 128,-1,32
 288 191 288 191 335 225 c 1,0,1
EndSplineSet
Validated: 1
EndChar

StartChar: question
Encoding: 63 63 48
Width: 359
Flags: W
LayerCount: 2
Fore
SplineSet
170 39 m 0,0,1
 170 14 170 14 150.5 -3 c 128,-1,2
 131 -20 131 -20 106 -15 c 0,3,4
 83 -13 83 -13 70.5 4 c 128,-1,5
 58 21 58 21 58 43 c 0,6,7
 58 68 58 68 73 84.5 c 128,-1,8
 88 101 88 101 114 101 c 0,9,10
 139 101 139 101 154.5 81.5 c 128,-1,11
 170 62 170 62 170 39 c 0,0,1
320 468 m 0,12,13
 320 430 320 430 307 404 c 128,-1,14
 294 378 294 378 274.5 359.5 c 128,-1,15
 255 341 255 341 231.5 328 c 128,-1,16
 208 315 208 315 186.5 303.5 c 128,-1,17
 165 292 165 292 149 279.5 c 128,-1,18
 133 267 133 267 128 249 c 0,19,20
 124 246 124 246 124 233 c 2,21,-1
 124 207 l 2,22,23
 124 194 124 194 120.5 182.5 c 128,-1,24
 117 171 117 171 106 170 c 0,25,26
 93 173 93 173 92 186 c 0,27,28
 91 190 91 190 90.5 194.5 c 128,-1,29
 90 199 90 199 90 205 c 2,30,-1
 90 231 l 2,31,32
 90 245 90 245 90.5 257 c 128,-1,33
 91 269 91 269 91 277 c 0,34,35
 91 296 91 296 90 309.5 c 128,-1,36
 89 323 89 323 89.5 333 c 128,-1,37
 90 343 90 343 92.5 349.5 c 128,-1,38
 95 356 95 356 102 361 c 0,39,40
 129 372 129 372 157 385.5 c 128,-1,41
 185 399 185 399 208.5 417.5 c 128,-1,42
 232 436 232 436 246.5 461 c 128,-1,43
 261 486 261 486 261 521 c 0,44,45
 261 545 261 545 252.5 568 c 128,-1,46
 244 591 244 591 229 609.5 c 128,-1,47
 214 628 214 628 193 639.5 c 128,-1,48
 172 651 172 651 147 651 c 0,49,50
 130 651 130 651 113 645 c 128,-1,51
 96 639 96 639 79 639 c 256,52,53
 62 639 62 639 49.5 649.5 c 128,-1,54
 37 660 37 660 37 677 c 0,55,56
 37 692 37 692 43 701 c 128,-1,57
 49 710 49 710 59 715.5 c 128,-1,58
 69 721 69 721 81 722.5 c 128,-1,59
 93 724 93 724 105 724 c 0,60,61
 147 724 147 724 186 698.5 c 128,-1,62
 225 673 225 673 255 635 c 128,-1,63
 285 597 285 597 302.5 552 c 128,-1,64
 320 507 320 507 320 468 c 0,12,13
EndSplineSet
Validated: 33
EndChar

StartChar: at
Encoding: 64 64 49
Width: 877
Flags: W
LayerCount: 2
Fore
SplineSet
500 91 m 0,0,1
 506 98 506 98 514.5 111 c 128,-1,2
 523 124 523 124 526 135 c 2,3,-1
 528 170 l 1,4,-1
 528 198 l 2,5,6
 528 206 528 206 527.5 213 c 128,-1,7
 527 220 527 220 526 225 c 1,8,9
 517 223 517 223 505 219.5 c 128,-1,10
 493 216 493 216 480.5 211.5 c 128,-1,11
 468 207 468 207 456.5 202.5 c 128,-1,12
 445 198 445 198 436 195 c 0,13,14
 409 185 409 185 386.5 166 c 128,-1,15
 364 147 364 147 364 116 c 0,16,17
 364 88 364 88 377 71.5 c 128,-1,18
 390 55 390 55 422 55 c 0,19,20
 443 55 443 55 464.5 65.5 c 128,-1,21
 486 76 486 76 500 91 c 0,0,1
522 79 m 1,22,23
 511 64 511 64 494.5 50 c 128,-1,24
 478 36 478 36 458 24.5 c 128,-1,25
 438 13 438 13 416.5 6.5 c 128,-1,26
 395 0 395 0 375 0 c 0,27,28
 324 0 324 0 303.5 28 c 128,-1,29
 283 56 283 56 283 101 c 0,30,31
 283 123 283 123 294.5 141.5 c 128,-1,32
 306 160 306 160 323.5 175 c 128,-1,33
 341 190 341 190 361.5 201 c 128,-1,34
 382 212 382 212 400 219 c 0,35,36
 435 232 435 232 463.5 241.5 c 128,-1,37
 492 251 492 251 528 260 c 1,38,-1
 528 333 l 2,39,40
 528 375 528 375 512.5 401 c 128,-1,41
 497 427 497 427 452 427 c 0,42,43
 422 427 422 427 404 417.5 c 128,-1,44
 386 408 386 408 375.5 395 c 128,-1,45
 365 382 365 382 361 369 c 128,-1,46
 357 356 357 356 355 349 c 0,47,48
 350 333 350 333 334 321.5 c 128,-1,49
 318 310 318 310 299 310 c 0,50,51
 288 310 288 310 286 319.5 c 128,-1,52
 284 329 284 329 284 337 c 0,53,54
 284 361 284 361 304 385.5 c 128,-1,55
 324 410 324 410 353 430.5 c 128,-1,56
 382 451 382 451 416 464 c 128,-1,57
 450 477 450 477 478 477 c 0,58,59
 485 477 485 477 495.5 475.5 c 128,-1,60
 506 474 506 474 517 472 c 128,-1,61
 528 470 528 470 538 467 c 128,-1,62
 548 464 548 464 554 461 c 0,63,64
 587 444 587 444 595 416.5 c 128,-1,65
 603 389 603 389 603 355 c 0,66,67
 603 313 603 313 602 271.5 c 128,-1,68
 601 230 601 230 601 188 c 2,69,-1
 601 159 l 2,70,71
 601 136 601 136 602.5 112.5 c 128,-1,72
 604 89 604 89 609 81 c 0,73,74
 613 74 613 74 621 71.5 c 128,-1,75
 629 69 629 69 637 69 c 0,76,77
 667 69 667 69 690.5 93 c 128,-1,78
 714 117 714 117 730.5 151 c 128,-1,79
 747 185 747 185 755.5 221 c 128,-1,80
 764 257 764 257 764 281 c 0,81,82
 764 344 764 344 739.5 397 c 128,-1,83
 715 450 715 450 673 488 c 128,-1,84
 631 526 631 526 576 547 c 128,-1,85
 521 568 521 568 460 568 c 0,86,87
 386 568 386 568 326.5 539.5 c 128,-1,88
 267 511 267 511 225 463 c 128,-1,89
 183 415 183 415 160.5 351 c 128,-1,90
 138 287 138 287 138 217 c 0,91,92
 138 148 138 148 160 91 c 128,-1,93
 182 34 182 34 222 -11 c 0,94,95
 268 -60 268 -60 329.5 -87 c 128,-1,96
 391 -114 391 -114 466 -114 c 0,97,98
 494 -114 494 -114 527.5 -108.5 c 128,-1,99
 561 -103 561 -103 593.5 -91.5 c 128,-1,100
 626 -80 626 -80 655 -63.5 c 128,-1,101
 684 -47 684 -47 703 -25 c 1,102,103
 714 -28 714 -28 725.5 -31 c 128,-1,104
 737 -34 737 -34 748 -36 c 1,105,106
 690 -99 690 -99 617 -131.5 c 128,-1,107
 544 -164 544 -164 459 -164 c 0,108,109
 397 -164 397 -164 339 -146.5 c 128,-1,110
 281 -129 281 -129 231.5 -96 c 128,-1,111
 182 -63 182 -63 143.5 -16.5 c 128,-1,112
 105 30 105 30 83 89 c 0,113,114
 70 123 70 123 65 159 c 128,-1,115
 60 195 60 195 60 231 c 0,116,117
 60 309 60 309 92.5 380.5 c 128,-1,118
 125 452 125 452 182 506 c 256,119,120
 239 560 239 560 310.5 586.5 c 128,-1,121
 382 613 382 613 460 613 c 0,122,123
 509 613 509 613 558.5 600.5 c 128,-1,124
 608 588 608 588 651.5 563 c 128,-1,125
 695 538 695 538 730.5 502 c 128,-1,126
 766 466 766 466 787 419 c 0,127,128
 801 388 801 388 809 355.5 c 128,-1,129
 817 323 817 323 817 289 c 0,130,131
 817 245 817 245 803.5 199.5 c 128,-1,132
 790 154 790 154 765.5 114.5 c 128,-1,133
 741 75 741 75 705 46.5 c 128,-1,134
 669 18 669 18 624 9 c 0,135,136
 619 8 619 8 613 7.5 c 128,-1,137
 607 7 607 7 602 7 c 0,138,139
 569 7 569 7 550 28 c 128,-1,140
 531 49 531 49 523 79 c 1,141,-1
 522 79 l 1,22,23
EndSplineSet
Validated: 1
EndChar

StartChar: A
Encoding: 65 65 50
Width: 778
Flags: W
LayerCount: 2
Fore
SplineSet
10 11 m 0,0,1
 10 24 10 24 18 28 c 128,-1,2
 26 32 26 32 37.5 34 c 128,-1,3
 49 36 49 36 61.5 40 c 128,-1,4
 74 44 74 44 83 58 c 0,5,6
 86 62 86 62 92 75.5 c 128,-1,7
 98 89 98 89 104.5 104 c 128,-1,8
 111 119 111 119 116.5 133.5 c 128,-1,9
 122 148 122 148 125 155 c 0,10,11
 146 209 146 209 167.5 261.5 c 128,-1,12
 189 314 189 314 211 368 c 0,13,14
 248 459 248 459 285 549 c 128,-1,15
 322 639 322 639 359 730 c 0,16,17
 361 736 361 736 363.5 739.5 c 128,-1,18
 366 743 366 743 374 743 c 0,19,20
 381 743 381 743 385 737.5 c 128,-1,21
 389 732 389 732 391 727 c 0,22,23
 414 670 414 670 438 611 c 128,-1,24
 462 552 462 552 485 495 c 0,25,26
 527 386 527 386 573 279 c 128,-1,27
 619 172 619 172 670 66 c 0,28,29
 679 47 679 47 695.5 41 c 128,-1,30
 712 35 712 35 728 32 c 128,-1,31
 744 29 744 29 756 25.5 c 128,-1,32
 768 22 768 22 768 9 c 0,33,34
 768 0 768 0 757.5 -3.5 c 128,-1,35
 747 -7 747 -7 737 -7 c 2,36,-1
 726 -7 l 2,37,38
 702 -7 702 -7 678 -4 c 128,-1,39
 654 -1 654 -1 630 -1 c 0,40,41
 595 -1 595 -1 560.5 -4 c 128,-1,42
 526 -7 526 -7 491 -7 c 0,43,44
 482 -7 482 -7 475 -1 c 128,-1,45
 468 5 468 5 468 14 c 0,46,47
 468 25 468 25 482 27 c 128,-1,48
 496 29 496 29 513.5 30 c 128,-1,49
 531 31 531 31 545 35 c 128,-1,50
 559 39 559 39 559 56 c 0,51,52
 559 59 559 59 558 62.5 c 128,-1,53
 557 66 557 66 556 69 c 0,54,55
 553 79 553 79 545 99.5 c 128,-1,56
 537 120 537 120 526 148 c 128,-1,57
 515 176 515 176 501 210 c 128,-1,58
 487 244 487 244 472 280 c 0,59,60
 467 290 467 290 463.5 298 c 128,-1,61
 460 306 460 306 458 308 c 0,62,63
 450 316 450 316 434 317.5 c 128,-1,64
 418 319 418 319 401 319 c 2,65,-1
 382 319 l 2,66,67
 370 319 370 319 350.5 319.5 c 128,-1,68
 331 320 331 320 310 320 c 0,69,70
 290 320 290 320 270.5 319 c 128,-1,71
 251 318 251 318 238 315 c 1,72,73
 220 273 220 273 204.5 231.5 c 128,-1,74
 189 190 189 190 178 156 c 128,-1,75
 167 122 167 122 160.5 99 c 128,-1,76
 154 76 154 76 154 71 c 0,77,78
 154 50 154 50 170 44 c 128,-1,79
 186 38 186 38 205.5 36 c 128,-1,80
 225 34 225 34 241 30.5 c 128,-1,81
 257 27 257 27 257 12 c 0,82,83
 257 4 257 4 251 -1.5 c 128,-1,84
 245 -7 245 -7 237 -7 c 0,85,86
 205 -7 205 -7 172 -3.5 c 128,-1,87
 139 0 139 0 107 0 c 0,88,89
 84 0 84 0 65.5 -2.5 c 128,-1,90
 47 -5 47 -5 24 -5 c 0,91,92
 17 -5 17 -5 13.5 0 c 128,-1,93
 10 5 10 5 10 11 c 0,0,1
357 600 m 1,94,95
 343 568 343 568 333 544.5 c 128,-1,96
 323 521 323 521 313 496 c 128,-1,97
 303 471 303 471 290 440 c 128,-1,98
 277 409 277 409 257 361 c 1,99,-1
 284 361 l 2,100,101
 301 361 301 361 335.5 361.5 c 128,-1,102
 370 362 370 362 433 362 c 1,103,104
 433 363 433 363 436.5 363.5 c 128,-1,105
 440 364 440 364 442 365 c 0,106,107
 429 400 429 400 415 439.5 c 128,-1,108
 401 479 401 479 389 513.5 c 128,-1,109
 377 548 377 548 368.5 572 c 128,-1,110
 360 596 360 596 357 600 c 1,94,95
EndSplineSet
Validated: 1
Substitution2: "'c2sc' Versalien in Kapit+AOQA-lchen in Lateinisch Nachschlagetabelle 0 Subtabelle" uni1D00
EndChar

StartChar: B
Encoding: 66 66 51
Width: 689
Flags: W
LayerCount: 2
Fore
SplineSet
489 557 m 0,0,1
 489 624 489 624 447.5 659 c 128,-1,2
 406 694 406 694 342 694 c 2,3,-1
 328 694 l 2,4,5
 317 694 317 694 304 693.5 c 128,-1,6
 291 693 291 693 278.5 689.5 c 128,-1,7
 266 686 266 686 257 679 c 128,-1,8
 248 672 248 672 246 659 c 0,9,10
 244 648 244 648 243.5 636.5 c 128,-1,11
 243 625 243 625 243 614 c 2,12,-1
 243 423 l 2,13,14
 243 418 243 418 251 412 c 128,-1,15
 259 406 259 406 276 406 c 2,16,-1
 310 406 l 2,17,18
 346 406 346 406 378.5 414 c 128,-1,19
 411 422 411 422 435.5 440 c 128,-1,20
 460 458 460 458 474.5 487 c 128,-1,21
 489 516 489 516 489 557 c 0,0,1
536 201 m 0,22,23
 536 248 536 248 514 285 c 0,24,25
 496 316 496 316 470.5 333.5 c 128,-1,26
 445 351 445 351 415 360 c 128,-1,27
 385 369 385 369 352.5 371 c 128,-1,28
 320 373 320 373 288 373 c 2,29,-1
 271 373 l 2,30,31
 260 373 260 373 250.5 368 c 128,-1,32
 241 363 241 363 241 348 c 2,33,-1
 241 144 l 2,34,35
 241 121 241 121 244.5 96 c 128,-1,36
 248 71 248 71 267 54 c 0,37,38
 283 40 283 40 309 37 c 128,-1,39
 335 34 335 34 355 34 c 0,40,41
 447 34 447 34 491.5 80.5 c 128,-1,42
 536 127 536 127 536 201 c 0,22,23
641 211 m 0,43,44
 641 155 641 155 620.5 114.5 c 128,-1,45
 600 74 600 74 565.5 47.5 c 128,-1,46
 531 21 531 21 485 8 c 128,-1,47
 439 -5 439 -5 387 -6 c 0,48,49
 382 -7 382 -7 378 -7 c 256,50,51
 374 -7 374 -7 369 -7 c 2,52,-1
 74 -7 l 2,53,54
 63 -7 63 -7 49 -4.5 c 128,-1,55
 35 -2 35 -2 35 13 c 0,56,57
 35 23 35 23 50.5 25.5 c 128,-1,58
 66 28 66 28 85 31 c 128,-1,59
 104 34 104 34 121 41 c 128,-1,60
 138 48 138 48 141 65 c 0,61,62
 142 67 142 67 143 97 c 128,-1,63
 144 127 144 127 144.5 174.5 c 128,-1,64
 145 222 145 222 146 281.5 c 128,-1,65
 147 341 147 341 147.5 403 c 128,-1,66
 148 465 148 465 148 524 c 256,67,68
 148 583 148 583 148 628 c 0,69,70
 148 647 148 647 144 658.5 c 128,-1,71
 140 670 140 670 132 676 c 128,-1,72
 124 682 124 682 111.5 684.5 c 128,-1,73
 99 687 99 687 82 689 c 0,74,75
 79 689 79 689 72.5 690 c 128,-1,76
 66 691 66 691 60 693 c 128,-1,77
 54 695 54 695 49 698 c 128,-1,78
 44 701 44 701 44 705 c 0,79,80
 44 715 44 715 56 719 c 128,-1,81
 68 723 68 723 85.5 724 c 128,-1,82
 103 725 103 725 121.5 724 c 128,-1,83
 140 723 140 723 152 723 c 0,84,85
 197 723 197 723 241.5 727 c 128,-1,86
 286 731 286 731 332 731 c 0,87,88
 373 731 373 731 417.5 722 c 128,-1,89
 462 713 462 713 499.5 692.5 c 128,-1,90
 537 672 537 672 561 638 c 128,-1,91
 585 604 585 604 585 555 c 0,92,93
 585 498 585 498 550 461.5 c 128,-1,94
 515 425 515 425 464 408 c 1,95,96
 469 404 469 404 484 399.5 c 128,-1,97
 499 395 499 395 507 392 c 0,98,99
 567 369 567 369 604 323 c 128,-1,100
 641 277 641 277 641 211 c 0,43,44
EndSplineSet
Validated: 33
Substitution2: "'c2sc' Versalien in Kapit+AOQA-lchen in Lateinisch Nachschlagetabelle 0 Subtabelle" uni0299
EndChar

StartChar: C
Encoding: 67 67 52
Width: 727
Flags: W
LayerCount: 2
Fore
SplineSet
666 758 m 0,0,1
 673 758 673 758 675 748 c 128,-1,2
 677 738 677 738 677 724 c 256,3,4
 677 710 677 710 675.5 695 c 128,-1,5
 674 680 674 680 674 669 c 0,6,7
 674 643 674 643 673 617 c 128,-1,8
 672 591 672 591 670 565 c 0,9,10
 668 556 668 556 665 553 c 128,-1,11
 662 550 662 550 658 550 c 256,12,13
 654 550 654 550 650.5 551 c 128,-1,14
 647 552 647 552 644 552 c 0,15,16
 638 552 638 552 634 561 c 128,-1,17
 630 570 630 570 627 582.5 c 128,-1,18
 624 595 624 595 620.5 608.5 c 128,-1,19
 617 622 617 622 611 632 c 0,20,21
 579 667 579 667 532.5 685.5 c 128,-1,22
 486 704 486 704 437 704 c 0,23,24
 368 704 368 704 319 677 c 128,-1,25
 270 650 270 650 239 605 c 128,-1,26
 208 560 208 560 193.5 500.5 c 128,-1,27
 179 441 179 441 179 377 c 0,28,29
 179 308 179 308 193.5 243 c 128,-1,30
 208 178 208 178 240 127.5 c 128,-1,31
 272 77 272 77 323 46 c 128,-1,32
 374 15 374 15 447 15 c 0,33,34
 471 15 471 15 497 20.5 c 128,-1,35
 523 26 523 26 547.5 36.5 c 128,-1,36
 572 47 572 47 593.5 62 c 128,-1,37
 615 77 615 77 631 97 c 0,38,39
 636 104 636 104 642.5 116 c 128,-1,40
 649 128 649 128 656 140 c 128,-1,41
 663 152 663 152 669 161 c 128,-1,42
 675 170 675 170 680 170 c 0,43,44
 691 170 691 170 695.5 166 c 128,-1,45
 700 162 700 162 700 151 c 0,46,47
 700 143 700 143 697.5 125 c 128,-1,48
 695 107 695 107 691 87.5 c 128,-1,49
 687 68 687 68 682 52 c 128,-1,50
 677 36 677 36 672 31 c 0,51,52
 655 16 655 16 627 5.5 c 128,-1,53
 599 -5 599 -5 567 -12 c 128,-1,54
 535 -19 535 -19 501.5 -22 c 128,-1,55
 468 -25 468 -25 441 -25 c 0,56,57
 353 -25 353 -25 282.5 7.5 c 128,-1,58
 212 40 212 40 162.5 95 c 128,-1,59
 113 150 113 150 86.5 223 c 128,-1,60
 60 296 60 296 60 376 c 0,61,62
 60 463 60 463 87.5 530.5 c 128,-1,63
 115 598 115 598 163.5 644.5 c 128,-1,64
 212 691 212 691 280 715 c 128,-1,65
 348 739 348 739 429 739 c 0,66,67
 463 739 463 739 496.5 735 c 128,-1,68
 530 731 530 731 564 724 c 0,69,70
 572 722 572 722 582.5 718.5 c 128,-1,71
 593 715 593 715 604 712 c 0,72,73
 611 706 611 706 616 712.5 c 128,-1,74
 621 719 621 719 627 729 c 128,-1,75
 633 739 633 739 642 748.5 c 128,-1,76
 651 758 651 758 666 758 c 0,0,1
EndSplineSet
Validated: 1
Substitution2: "'c2sc' Versalien in Kapit+AOQA-lchen in Lateinisch Nachschlagetabelle 0 Subtabelle" uni1D04
EndChar

StartChar: D
Encoding: 68 68 53
Width: 833
Flags: W
LayerCount: 2
Fore
SplineSet
659 359 m 0,0,1
 659 480 659 480 597.5 565.5 c 128,-1,2
 536 651 536 651 418 686 c 0,3,4
 397 692 397 692 375 696.5 c 128,-1,5
 353 701 353 701 330 701 c 2,6,-1
 302 701 l 1,7,8
 303 701 303 701 296.5 700.5 c 128,-1,9
 290 700 290 700 281 697 c 128,-1,10
 272 694 272 694 262.5 687.5 c 128,-1,11
 253 681 253 681 248 669 c 0,12,13
 245 659 245 659 244 649.5 c 128,-1,14
 243 640 243 640 243 630 c 0,15,16
 243 604 243 604 243.5 577 c 128,-1,17
 244 550 244 550 244 524 c 0,18,19
 244 436 244 436 243 349.5 c 128,-1,20
 242 263 242 263 242 175 c 0,21,22
 242 131 242 131 247.5 102 c 128,-1,23
 253 73 253 73 265.5 56 c 128,-1,24
 278 39 278 39 297 32 c 128,-1,25
 316 25 316 25 343 25 c 0,26,27
 413 25 413 25 471.5 51 c 128,-1,28
 530 77 530 77 571.5 122.5 c 128,-1,29
 613 168 613 168 636 229 c 128,-1,30
 659 290 659 290 659 359 c 0,0,1
773 352 m 0,31,32
 773 266 773 266 737 199 c 128,-1,33
 701 132 701 132 642 86 c 128,-1,34
 583 40 583 40 507 16 c 128,-1,35
 431 -8 431 -8 352 -8 c 0,36,37
 328 -8 328 -8 312.5 -7 c 128,-1,38
 297 -6 297 -6 283 -5 c 128,-1,39
 269 -4 269 -4 253.5 -3 c 128,-1,40
 238 -2 238 -2 214 -2 c 0,41,42
 172 -2 172 -2 133.5 -4.5 c 128,-1,43
 95 -7 95 -7 53 -7 c 0,44,45
 44 -7 44 -7 44 2 c 0,46,47
 44 12 44 12 49.5 17 c 128,-1,48
 55 22 55 22 62.5 25 c 128,-1,49
 70 28 70 28 78.5 29 c 128,-1,50
 87 30 87 30 94 32 c 0,51,52
 126 39 126 39 133.5 53.5 c 128,-1,53
 141 68 141 68 143 98 c 0,54,55
 144 108 144 108 144.5 121 c 128,-1,56
 145 134 145 134 145.5 156.5 c 128,-1,57
 146 179 146 179 146.5 215 c 128,-1,58
 147 251 147 251 147 309 c 2,59,-1
 147 542 l 2,60,61
 147 558 147 558 146.5 577 c 128,-1,62
 146 596 146 596 145 613.5 c 128,-1,63
 144 631 144 631 142.5 644.5 c 128,-1,64
 141 658 141 658 139 663 c 0,65,66
 132 678 132 678 117.5 681.5 c 128,-1,67
 103 685 103 685 88 685 c 0,68,69
 80 685 80 685 72 684.5 c 128,-1,70
 64 684 64 684 56 684 c 0,71,72
 47 684 47 684 39 689 c 0,73,74
 34 693 34 693 35.5 701 c 128,-1,75
 37 709 37 709 41 713 c 256,76,77
 45 717 45 717 65 720.5 c 128,-1,78
 85 724 85 724 113.5 726.5 c 128,-1,79
 142 729 142 729 174.5 730.5 c 128,-1,80
 207 732 207 732 237.5 733 c 128,-1,81
 268 734 268 734 292 734.5 c 128,-1,82
 316 735 316 735 326 735 c 0,83,84
 426 735 426 735 508.5 709 c 128,-1,85
 591 683 591 683 650 633.5 c 128,-1,86
 709 584 709 584 741 513 c 128,-1,87
 773 442 773 442 773 352 c 0,31,32
EndSplineSet
Validated: 1
Substitution2: "'c2sc' Versalien in Kapit+AOQA-lchen in Lateinisch Nachschlagetabelle 0 Subtabelle" uni1D05
EndChar

StartChar: E
Encoding: 69 69 54
Width: 671
Flags: W
LayerCount: 2
Fore
SplineSet
561 568 m 0,0,1
 551 568 551 568 545 580.5 c 128,-1,2
 539 593 539 593 533 610 c 128,-1,3
 527 627 527 627 519.5 643.5 c 128,-1,4
 512 660 512 660 498 668 c 0,5,6
 489 673 489 673 472 676.5 c 128,-1,7
 455 680 455 680 434 682 c 128,-1,8
 413 684 413 684 390.5 684.5 c 128,-1,9
 368 685 368 685 348 685 c 2,10,-1
 304 685 l 2,11,12
 281 685 281 685 269 675.5 c 128,-1,13
 257 666 257 666 251.5 651 c 128,-1,14
 246 636 246 636 245 617.5 c 128,-1,15
 244 599 244 599 244 582 c 0,16,17
 244 548 244 548 244.5 514 c 128,-1,18
 245 480 245 480 245 446 c 2,19,-1
 245 423 l 2,20,21
 245 410 245 410 247 402 c 0,22,23
 251 397 251 397 259 395 c 128,-1,24
 267 393 267 393 276.5 392.5 c 128,-1,25
 286 392 286 392 295 392.5 c 128,-1,26
 304 393 304 393 310 393 c 0,27,28
 337 393 337 393 365 393.5 c 128,-1,29
 393 394 393 394 420 398 c 0,30,31
 450 403 450 403 463 423 c 128,-1,32
 476 443 476 443 478 472 c 0,33,34
 481 478 481 478 484.5 483.5 c 128,-1,35
 488 489 488 489 496 489 c 0,36,37
 507 489 507 489 508 479 c 128,-1,38
 509 469 509 469 509 458 c 0,39,40
 509 437 509 437 508 416 c 128,-1,41
 507 395 507 395 507 374 c 256,42,43
 507 353 507 353 508 332.5 c 128,-1,44
 509 312 509 312 509 291 c 0,45,46
 509 286 509 286 509.5 278.5 c 128,-1,47
 510 271 510 271 509 264 c 128,-1,48
 508 257 508 257 504.5 252.5 c 128,-1,49
 501 248 501 248 494 248 c 256,50,51
 487 248 487 248 483 257 c 128,-1,52
 479 266 479 266 476.5 277.5 c 128,-1,53
 474 289 474 289 472 300.5 c 128,-1,54
 470 312 470 312 467 317 c 0,55,56
 463 336 463 336 446.5 345.5 c 128,-1,57
 430 355 430 355 407.5 358.5 c 128,-1,58
 385 362 385 362 360.5 361.5 c 128,-1,59
 336 361 336 361 317 361 c 0,60,61
 312 361 312 361 304 360.5 c 128,-1,62
 296 360 296 360 287 359.5 c 128,-1,63
 278 359 278 359 269.5 358 c 128,-1,64
 261 357 261 357 257 356 c 0,65,66
 251 355 251 355 249 347 c 128,-1,67
 247 339 247 339 246 329 c 128,-1,68
 245 319 245 319 245.5 309 c 128,-1,69
 246 299 246 299 246 295 c 2,70,-1
 246 137 l 2,71,72
 246 126 246 126 246.5 112.5 c 128,-1,73
 247 99 247 99 249.5 85.5 c 128,-1,74
 252 72 252 72 257.5 60.5 c 128,-1,75
 263 49 263 49 274 43 c 0,76,77
 282 39 282 39 302 36.5 c 128,-1,78
 322 34 322 34 344.5 33 c 128,-1,79
 367 32 367 32 388 31.5 c 128,-1,80
 409 31 409 31 418 31 c 2,81,-1
 449 31 l 2,82,83
 462 31 462 31 478 32 c 128,-1,84
 494 33 494 33 508.5 34.5 c 128,-1,85
 523 36 523 36 535.5 39 c 128,-1,86
 548 42 548 42 556 47 c 0,87,88
 570 56 570 56 582 75 c 128,-1,89
 594 94 594 94 604.5 113 c 128,-1,90
 615 132 615 132 624.5 146.5 c 128,-1,91
 634 161 634 161 642 161 c 0,92,93
 654 161 654 161 655.5 153 c 128,-1,94
 657 145 657 145 653 137 c 0,95,96
 653 136 653 136 651 127 c 128,-1,97
 649 118 649 118 648 116 c 0,98,99
 647 113 647 113 643 95.5 c 128,-1,100
 639 78 639 78 634.5 58.5 c 128,-1,101
 630 39 630 39 626.5 23 c 128,-1,102
 623 7 623 7 623 7 c 1,103,104
 615 -5 615 -5 598 -5 c 2,105,-1
 126 -5 l 2,106,107
 112 -5 112 -5 97.5 -6 c 128,-1,108
 83 -7 83 -7 68 -7 c 0,109,110
 57 -7 57 -7 46 -6 c 128,-1,111
 35 -5 35 -5 35 10 c 0,112,113
 35 18 35 18 47.5 22 c 128,-1,114
 60 26 60 26 77.5 30 c 128,-1,115
 95 34 95 34 112 40.5 c 128,-1,116
 129 47 129 47 138 60 c 0,117,118
 146 72 146 72 149 99 c 128,-1,119
 152 126 152 126 152 158 c 0,120,121
 152 191 152 191 151 224.5 c 128,-1,122
 150 258 150 258 150 283 c 0,123,124
 150 364 150 364 149 444 c 128,-1,125
 148 524 148 524 148 605 c 2,126,-1
 148 623 l 2,127,128
 148 628 148 628 148 632 c 256,129,130
 148 636 148 636 147 641 c 0,131,132
 145 667 145 667 128.5 675.5 c 128,-1,133
 112 684 112 684 92.5 686.5 c 128,-1,134
 73 689 73 689 57.5 691.5 c 128,-1,135
 42 694 42 694 42 707 c 0,136,137
 42 716 42 716 50.5 719.5 c 128,-1,138
 59 723 59 723 70.5 724.5 c 128,-1,139
 82 726 82 726 95 725.5 c 128,-1,140
 108 725 108 725 117 725 c 0,141,142
 151 725 151 725 185 723.5 c 128,-1,143
 219 722 219 722 254 722 c 0,144,145
 323 722 323 722 389.5 723.5 c 128,-1,146
 456 725 456 725 525 725 c 2,147,-1
 536 725 l 2,148,149
 547 725 547 725 558 723 c 128,-1,150
 569 721 569 721 571 713 c 0,151,152
 575 693 575 693 575 676 c 0,153,154
 575 667 575 667 574.5 654.5 c 128,-1,155
 574 642 574 642 574 624 c 0,156,157
 574 604 574 604 571.5 586.5 c 128,-1,158
 569 569 569 569 561 568 c 0,0,1
EndSplineSet
Validated: 33
Substitution2: "'c2sc' Versalien in Kapit+AOQA-lchen in Lateinisch Nachschlagetabelle 0 Subtabelle" uni1D07
EndChar

StartChar: F
Encoding: 70 70 55
Width: 608
Flags: W
LayerCount: 2
Fore
SplineSet
40 703 m 0,0,1
 40 709 40 709 42 713 c 128,-1,2
 44 717 44 717 51.5 719.5 c 128,-1,3
 59 722 59 722 73.5 722.5 c 128,-1,4
 88 723 88 723 114 723 c 0,5,6
 138 723 138 723 159.5 722.5 c 128,-1,7
 181 722 181 722 189 722 c 2,8,-1
 344 722 l 2,9,10
 390 722 390 722 435 722.5 c 128,-1,11
 480 723 480 723 526 723 c 2,12,-1
 548 723 l 2,13,14
 556 723 556 723 562 722.5 c 128,-1,15
 568 722 568 722 570 722 c 0,16,17
 575 721 575 721 577 705.5 c 128,-1,18
 579 690 579 690 579.5 670.5 c 128,-1,19
 580 651 580 651 579.5 632 c 128,-1,20
 579 613 579 613 579 605 c 0,21,22
 579 599 579 599 579 592 c 256,23,24
 579 585 579 585 578 579 c 128,-1,25
 577 573 577 573 574 569 c 128,-1,26
 571 565 571 565 565 565 c 0,27,28
 550 565 550 565 546 579 c 128,-1,29
 542 593 542 593 538.5 611.5 c 128,-1,30
 535 630 535 630 526.5 648.5 c 128,-1,31
 518 667 518 667 496 675 c 0,32,33
 486 679 486 679 468 681 c 128,-1,34
 450 683 450 683 430.5 684.5 c 128,-1,35
 411 686 411 686 392.5 686.5 c 128,-1,36
 374 687 374 687 363 687 c 2,37,-1
 341 687 l 2,38,39
 321 687 321 687 297.5 684 c 128,-1,40
 274 681 274 681 264 675 c 0,41,42
 246 663 246 663 243.5 645.5 c 128,-1,43
 241 628 241 628 241 608 c 0,44,45
 241 563 241 563 241.5 518 c 128,-1,46
 242 473 242 473 242 428 c 0,47,48
 242 412 242 412 246.5 404.5 c 128,-1,49
 251 397 251 397 258.5 394.5 c 128,-1,50
 266 392 266 392 275.5 392.5 c 128,-1,51
 285 393 285 393 296 393 c 2,52,-1
 332 393 l 2,53,54
 349 393 349 393 368 393.5 c 128,-1,55
 387 394 387 394 404.5 396.5 c 128,-1,56
 422 399 422 399 435.5 403 c 128,-1,57
 449 407 449 407 456 414 c 0,58,59
 466 424 466 424 470.5 438 c 128,-1,60
 475 452 475 452 478 464 c 128,-1,61
 481 476 481 476 486 484.5 c 128,-1,62
 491 493 491 493 503 493 c 0,63,64
 510 493 510 493 511.5 484 c 128,-1,65
 513 475 513 475 513 470 c 0,66,67
 513 448 513 448 512 427 c 128,-1,68
 511 406 511 406 511 384 c 256,69,70
 511 362 511 362 512.5 341 c 128,-1,71
 514 320 514 320 514 298 c 0,72,73
 514 292 514 292 514.5 284.5 c 128,-1,74
 515 277 515 277 513.5 269.5 c 128,-1,75
 512 262 512 262 508.5 257 c 128,-1,76
 505 252 505 252 498 252 c 0,77,78
 488 252 488 252 484 266 c 128,-1,79
 480 280 480 280 475 297.5 c 128,-1,80
 470 315 470 315 460 332 c 128,-1,81
 450 349 450 349 428 355 c 0,82,83
 414 360 414 360 386 361.5 c 128,-1,84
 358 363 358 363 335 363 c 2,85,-1
 308 363 l 2,86,87
 301 363 301 363 290 363.5 c 128,-1,88
 279 364 279 364 268.5 362.5 c 128,-1,89
 258 361 258 361 250.5 356 c 128,-1,90
 243 351 243 351 243 341 c 0,91,92
 243 296 243 296 242 252 c 128,-1,93
 241 208 241 208 241 163 c 2,94,-1
 241 142 l 2,95,96
 241 132 241 132 241 119 c 0,97,98
 241 107 241 107 242 95.5 c 128,-1,99
 243 84 243 84 243.5 75 c 128,-1,100
 244 66 244 66 246 63 c 0,101,102
 255 44 255 44 274.5 38 c 128,-1,103
 294 32 294 32 314 30 c 128,-1,104
 334 28 334 28 349 24.5 c 128,-1,105
 364 21 364 21 364 7 c 0,106,107
 364 -2 364 -2 354.5 -5.5 c 128,-1,108
 345 -9 345 -9 335 -9 c 2,109,-1
 325 -9 l 2,110,111
 288 -9 288 -9 251 -5.5 c 128,-1,112
 214 -2 214 -2 177 -2 c 0,113,114
 148 -2 148 -2 120.5 -5.5 c 128,-1,115
 93 -9 93 -9 65 -9 c 0,116,117
 57 -9 57 -9 46 -7.5 c 128,-1,118
 35 -6 35 -6 35 5 c 0,119,120
 35 13 35 13 44 17.5 c 128,-1,121
 53 22 53 22 65 24 c 128,-1,122
 77 26 77 26 89.5 27.5 c 128,-1,123
 102 29 102 29 108 31 c 0,124,125
 130 35 130 35 138 55 c 0,126,127
 141 61 141 61 143 77 c 128,-1,128
 145 93 145 93 146 113.5 c 128,-1,129
 147 134 147 134 147.5 155.5 c 128,-1,130
 148 177 148 177 148 195 c 2,131,-1
 148 232 l 2,132,133
 148 332 148 332 146.5 429 c 128,-1,134
 145 526 145 526 145 626 c 0,135,136
 145 650 145 650 137 662.5 c 128,-1,137
 129 675 129 675 117.5 680.5 c 128,-1,138
 106 686 106 686 92.5 687 c 128,-1,139
 79 688 79 688 67.5 688.5 c 128,-1,140
 56 689 56 689 48 691.5 c 128,-1,141
 40 694 40 694 40 703 c 0,0,1
EndSplineSet
Validated: 33
Substitution2: "'c2sc' Versalien in Kapit+AOQA-lchen in Lateinisch Nachschlagetabelle 0 Subtabelle" uniA730
EndChar

StartChar: G
Encoding: 71 71 56
Width: 806
Flags: W
LayerCount: 2
Fore
SplineSet
668 739 m 0,0,1
 675 739 675 739 677 729 c 128,-1,2
 679 719 679 719 679 705 c 256,3,4
 679 691 679 691 677.5 676 c 128,-1,5
 676 661 676 661 676 650 c 0,6,7
 676 624 676 624 675 598 c 128,-1,8
 674 572 674 572 672 546 c 0,9,10
 670 537 670 537 667 534 c 128,-1,11
 664 531 664 531 660 531 c 256,12,13
 656 531 656 531 652.5 532 c 128,-1,14
 649 533 649 533 646 533 c 0,15,16
 640 533 640 533 635.5 541 c 128,-1,17
 631 549 631 549 627.5 561 c 128,-1,18
 624 573 624 573 621 586.5 c 128,-1,19
 618 600 618 600 614 611 c 0,20,21
 605 632 605 632 586 649 c 128,-1,22
 567 666 567 666 542 678 c 128,-1,23
 517 690 517 690 489 696.5 c 128,-1,24
 461 703 461 703 434 703 c 0,25,26
 360 703 360 703 311.5 674.5 c 128,-1,27
 263 646 263 646 234 599 c 128,-1,28
 205 552 205 552 193 491.5 c 128,-1,29
 181 431 181 431 181 368 c 0,30,31
 181 302 181 302 194 241.5 c 128,-1,32
 207 181 207 181 236 134.5 c 128,-1,33
 265 88 265 88 310.5 60.5 c 128,-1,34
 356 33 356 33 421 33 c 0,35,36
 487 33 487 33 523.5 44.5 c 128,-1,37
 560 56 560 56 577 77.5 c 128,-1,38
 594 99 594 99 597 130.5 c 128,-1,39
 600 162 600 162 600 203 c 0,40,41
 600 258 600 258 598 289 c 128,-1,42
 596 320 596 320 588 335.5 c 128,-1,43
 580 351 580 351 564 354.5 c 128,-1,44
 548 358 548 358 520 358 c 0,45,46
 507 358 507 358 496.5 360 c 128,-1,47
 486 362 486 362 486 379 c 0,48,49
 486 386 486 386 491.5 389.5 c 128,-1,50
 497 393 497 393 504.5 394.5 c 128,-1,51
 512 396 512 396 519.5 396.5 c 128,-1,52
 527 397 527 397 532 397 c 0,53,54
 562 397 562 397 582.5 395 c 128,-1,55
 603 393 603 393 633 393 c 0,56,57
 666 393 666 393 690.5 395.5 c 128,-1,58
 715 398 715 398 748 398 c 0,59,60
 759 398 759 398 771.5 396 c 128,-1,61
 784 394 784 394 784 380 c 0,62,63
 784 370 784 370 775.5 367.5 c 128,-1,64
 767 365 767 365 754 364.5 c 128,-1,65
 741 364 741 364 727 362 c 128,-1,66
 713 360 713 360 702 351 c 0,67,68
 698 349 698 349 695 341 c 128,-1,69
 692 333 692 333 690.5 321.5 c 128,-1,70
 689 310 689 310 688 297 c 128,-1,71
 687 284 687 284 687 273 c 2,72,-1
 687 253 l 2,73,74
 687 240 687 240 687.5 218 c 128,-1,75
 688 196 688 196 688.5 172.5 c 128,-1,76
 689 149 689 149 689.5 127 c 128,-1,77
 690 105 690 105 690 92 c 0,78,79
 690 85 690 85 689.5 75 c 128,-1,80
 689 65 689 65 684 60 c 0,81,82
 666 37 666 37 630.5 24.5 c 128,-1,83
 595 12 595 12 554.5 5.5 c 128,-1,84
 514 -1 514 -1 475.5 -2.5 c 128,-1,85
 437 -4 437 -4 414 -4 c 0,86,87
 336 -4 336 -4 270.5 17.5 c 128,-1,88
 205 39 205 39 158.5 83 c 128,-1,89
 112 127 112 127 86 194 c 128,-1,90
 60 261 60 261 60 351 c 0,91,92
 60 442 60 442 87.5 514 c 128,-1,93
 115 586 115 586 165 636.5 c 128,-1,94
 215 687 215 687 285 713.5 c 128,-1,95
 355 740 355 740 441 740 c 0,96,97
 484 740 484 740 531.5 728 c 128,-1,98
 579 716 579 716 614 693 c 0,99,100
 621 688 621 688 627 694.5 c 128,-1,101
 633 701 633 701 639 711 c 128,-1,102
 645 721 645 721 652 730 c 128,-1,103
 659 739 659 739 668 739 c 0,0,1
EndSplineSet
Validated: 1
Substitution2: "'c2sc' Versalien in Kapit+AOQA-lchen in Lateinisch Nachschlagetabelle 0 Subtabelle" uni0262
EndChar

StartChar: H
Encoding: 72 72 57
Width: 865
Flags: W
HStem: -9 34<35.3784 122.044 263.532 348.936 512.023 602.304 747.304 827.997> 333 43.5<249.735 617.812> 689 33.5<50.7355 71.6876 83.8123 125.378 256.938 347.75 530.704 609.015 735.221 829.354> 704 20G<67 96>
VStem: 147 96<43.7875 322.295 378.246 672.647> 625.5 96.5<44.0751 323.295 376.596 675.409>
LayerCount: 2
Fore
SplineSet
830 698 m 0,0,1
 827 692 827 692 814.5 690.5 c 128,-1,2
 802 689 802 689 786.5 688 c 128,-1,3
 771 687 771 687 756.5 684 c 128,-1,4
 742 681 742 681 735 672 c 0,5,6
 727 663 727 663 724.5 648 c 128,-1,7
 722 633 722 633 722 616 c 2,8,-1
 722 599 l 2,9,10
 722 473 722 473 721 349.5 c 128,-1,11
 720 226 720 226 720 100 c 0,12,13
 720 75 720 75 728 61.5 c 128,-1,14
 736 48 736 48 748 41.5 c 128,-1,15
 760 35 760 35 774 33 c 128,-1,16
 788 31 788 31 800 29 c 128,-1,17
 812 27 812 27 820 23 c 128,-1,18
 828 19 828 19 828 8 c 0,19,20
 828 -7 828 -7 817.5 -8 c 128,-1,21
 807 -9 807 -9 795 -9 c 0,22,23
 762 -9 762 -9 728.5 -6 c 128,-1,24
 695 -3 695 -3 662 -3 c 0,25,26
 630 -3 630 -3 597.5 -6 c 128,-1,27
 565 -9 565 -9 533 -9 c 0,28,29
 512 -9 512 -9 512 7 c 0,30,31
 512 22 512 22 522.5 25 c 128,-1,32
 533 28 533 28 548 28 c 256,33,34
 563 28 563 28 579.5 30.5 c 128,-1,35
 596 33 596 33 607 47 c 256,36,37
 618 61 618 61 621 82 c 128,-1,38
 624 103 624 103 624 120 c 2,39,-1
 624 302 l 2,40,41
 624 317 624 317 618 323.5 c 128,-1,42
 612 330 612 330 603 332 c 128,-1,43
 594 334 594 334 583.5 333.5 c 128,-1,44
 573 333 573 333 564 333 c 2,45,-1
 320 333 l 2,46,47
 308 333 308 333 294 333.5 c 128,-1,48
 280 334 280 334 268.5 331.5 c 128,-1,49
 257 329 257 329 249.5 322.5 c 128,-1,50
 242 316 242 316 242 301 c 2,51,-1
 242 105 l 2,52,53
 242 85 242 85 242.5 81.5 c 128,-1,54
 243 78 243 78 243 75 c 0,55,56
 246 48 246 48 263 39.5 c 128,-1,57
 280 31 280 31 299 29 c 128,-1,58
 318 27 318 27 333.5 25.5 c 128,-1,59
 349 24 349 24 349 10 c 0,60,61
 349 -5 349 -5 338.5 -6.5 c 128,-1,62
 328 -8 328 -8 315 -8 c 0,63,64
 289 -8 289 -8 262 -5.5 c 128,-1,65
 235 -3 235 -3 209 -3 c 2,66,-1
 170 -3 l 2,67,68
 143 -3 143 -3 117 -6 c 128,-1,69
 91 -9 91 -9 65 -9 c 0,70,71
 57 -9 57 -9 46 -8 c 128,-1,72
 35 -7 35 -7 35 4 c 0,73,74
 35 19 35 19 50.5 22.5 c 128,-1,75
 66 26 66 26 85 29 c 128,-1,76
 104 32 104 32 121.5 41.5 c 128,-1,77
 139 51 139 51 143 78 c 0,78,79
 146 100 146 100 146.5 123 c 128,-1,80
 147 146 147 146 147 168 c 2,81,-1
 147 607 l 2,82,83
 147 637 147 637 139.5 653 c 128,-1,84
 132 669 132 669 120 676.5 c 128,-1,85
 108 684 108 684 95 686 c 128,-1,86
 82 688 82 688 70 689.5 c 128,-1,87
 58 691 58 691 50.5 694.5 c 128,-1,88
 43 698 43 698 43 710 c 0,89,90
 43 719 43 719 52.5 721.5 c 128,-1,91
 62 724 62 724 72 724 c 2,92,-1
 83 724 l 2,93,94
 109 724 109 724 134 722.5 c 128,-1,95
 159 721 159 721 185 721 c 0,96,97
 221 721 221 721 257.5 722 c 128,-1,98
 294 723 294 723 330 723 c 0,99,100
 336 723 336 723 342 720 c 128,-1,101
 348 717 348 717 348 710 c 0,102,103
 348 690 348 690 332 687.5 c 128,-1,104
 316 685 316 685 296 685 c 0,105,106
 286 685 286 685 277 683 c 128,-1,107
 268 681 268 681 260.5 675.5 c 128,-1,108
 253 670 253 670 248.5 659.5 c 128,-1,109
 244 649 244 649 244 632 c 0,110,111
 244 618 244 618 243.5 604 c 128,-1,112
 243 590 243 590 243 576 c 2,113,-1
 243 406 l 2,114,115
 243 378 243 378 269 378 c 0,116,117
 311 378 311 378 343.5 377.5 c 128,-1,118
 376 377 376 377 407 377 c 256,119,120
 438 377 438 377 470.5 376.5 c 128,-1,121
 503 376 503 376 545 376 c 0,122,123
 555 376 555 376 567.5 375.5 c 128,-1,124
 580 375 580 375 592 375.5 c 128,-1,125
 604 376 604 376 612.5 378.5 c 128,-1,126
 621 381 621 381 623 387 c 0,127,128
 624 390 624 390 624.5 405.5 c 128,-1,129
 625 421 625 421 625 443 c 0,130,131
 625 466 625 466 625.5 491.5 c 128,-1,132
 626 517 626 517 626 540 c 2,133,-1
 626 605 l 2,134,135
 626 612 626 612 625.5 621.5 c 128,-1,136
 625 631 625 631 623.5 640.5 c 128,-1,137
 622 650 622 650 619 658.5 c 128,-1,138
 616 667 616 667 610 672 c 0,139,140
 604 676 604 676 595 678.5 c 128,-1,141
 586 681 586 681 576 682 c 128,-1,142
 566 683 566 683 558 684.5 c 128,-1,143
 550 686 550 686 547 689 c 0,144,145
 537 689 537 689 530.5 691 c 128,-1,146
 524 693 524 693 524 705 c 0,147,148
 524 713 524 713 528 716.5 c 128,-1,149
 532 720 532 720 539 721.5 c 128,-1,150
 546 723 546 723 553.5 722.5 c 128,-1,151
 561 722 561 722 569 722 c 0,152,153
 595 722 595 722 620 719.5 c 128,-1,154
 645 717 645 717 670 717 c 0,155,156
 701 717 701 717 732 719 c 128,-1,157
 763 721 763 721 794 721 c 0,158,159
 817 721 817 721 823.5 717 c 128,-1,160
 830 713 830 713 830 698 c 0,0,1
EndSplineSet
Validated: 8388609
Substitution2: "'c2sc' Versalien in Kapit+AOQA-lchen in Lateinisch Nachschlagetabelle 0 Subtabelle" uni029C
EndChar

StartChar: I
Encoding: 73 73 58
Width: 380
Flags: W
HStem: -9 22G<59 93 284 305.5> -6.5 28.5<298.469 341.903> 686 35<48.798 126.655 245.827 344.904> 693 29.5<39.1484 65.7496>
VStem: 138 96<44.3459 670.747>
LayerCount: 2
Fore
SplineSet
345 706 m 0,0,1
 345 692 345 692 334.5 689 c 128,-1,2
 324 686 324 686 310 686 c 0,3,4
 283 686 283 686 268 682 c 128,-1,5
 253 678 253 678 246 669 c 128,-1,6
 239 660 239 660 238 647 c 128,-1,7
 237 634 237 634 237 616 c 0,8,9
 237 553 237 553 235.5 491 c 128,-1,10
 234 429 234 429 234 366 c 2,11,-1
 234 111 l 2,12,13
 234 95 234 95 236.5 75 c 128,-1,14
 239 55 239 55 251 44 c 0,15,16
 260 36 260 36 275.5 33 c 128,-1,17
 291 30 291 30 305.5 27.5 c 128,-1,18
 320 25 320 25 331 22 c 128,-1,19
 342 19 342 19 342 10 c 0,20,21
 342 -5 342 -5 327.5 -6.5 c 128,-1,22
 313 -8 313 -8 298 -8 c 0,23,24
 270 -8 270 -8 242 -5 c 128,-1,25
 214 -2 214 -2 186 -2 c 0,26,27
 156 -2 156 -2 132 -5.5 c 128,-1,28
 108 -9 108 -9 78 -9 c 2,29,-1
 64 -9 l 2,30,31
 54 -9 54 -9 44.5 -5.5 c 128,-1,32
 35 -2 35 -2 35 10 c 0,33,34
 35 19 35 19 45 22.5 c 128,-1,35
 55 26 55 26 68.5 28.5 c 128,-1,36
 82 31 82 31 97 34.5 c 128,-1,37
 112 38 112 38 122 47 c 0,38,39
 132 55 132 55 134.5 75.5 c 128,-1,40
 137 96 137 96 137 115 c 2,41,-1
 137 136 l 1,42,-1
 138 486 l 2,43,44
 138 512 138 512 138.5 537 c 128,-1,45
 139 562 139 562 139 587 c 2,46,-1
 139 606 l 2,47,48
 139 623 139 623 136 643 c 128,-1,49
 133 663 133 663 127 671 c 0,50,51
 116 682 116 682 101 684.5 c 128,-1,52
 86 687 86 687 72 688 c 128,-1,53
 58 689 58 689 48.5 693 c 128,-1,54
 39 697 39 697 39 711 c 0,55,56
 39 721 39 721 48.5 722.5 c 128,-1,57
 58 724 58 724 66 724 c 2,58,-1
 77 724 l 2,59,60
 106 724 106 724 135.5 721 c 128,-1,61
 165 718 165 718 194 718 c 0,62,63
 208 718 208 718 223 719.5 c 128,-1,64
 238 721 238 721 252 721 c 2,65,-1
 339 721 l 2,66,67
 341 719 341 719 343 714 c 128,-1,68
 345 709 345 709 345 706 c 0,0,1
EndSplineSet
Validated: 8388609
Substitution2: "'c2sc' Versalien in Kapit+AOQA-lchen in Lateinisch Nachschlagetabelle 0 Subtabelle" uni026A
EndChar

StartChar: J
Encoding: 74 74 59
Width: 357
Flags: W
LayerCount: 2
Fore
SplineSet
335 704 m 0,0,1
 335 699 335 699 329.5 694.5 c 128,-1,2
 324 690 324 690 304 688 c 0,3,4
 262 689 262 689 247 671 c 128,-1,5
 232 653 232 653 232 611 c 0,6,7
 232 600 232 600 232.5 589.5 c 128,-1,8
 233 579 233 579 233 568 c 0,9,10
 233 453 233 453 232.5 340.5 c 128,-1,11
 232 228 232 228 232 113 c 0,12,13
 232 57 232 57 222.5 -1.5 c 128,-1,14
 213 -60 213 -60 189.5 -110.5 c 128,-1,15
 166 -161 166 -161 125 -198 c 128,-1,16
 84 -235 84 -235 21 -249 c 0,17,18
 15 -250 15 -250 11.5 -245 c 128,-1,19
 8 -240 8 -240 8 -233 c 256,20,21
 8 -226 8 -226 11 -219.5 c 128,-1,22
 14 -213 14 -213 21 -212 c 0,23,24
 49 -209 49 -209 68 -188 c 128,-1,25
 87 -167 87 -167 99.5 -136 c 128,-1,26
 112 -105 112 -105 118.5 -68 c 128,-1,27
 125 -31 125 -31 128 5 c 128,-1,28
 131 41 131 41 132 71 c 128,-1,29
 133 101 133 101 134 118 c 0,30,31
 135 178 135 178 135.5 238 c 128,-1,32
 136 298 136 298 136 358 c 2,33,-1
 136 602 l 2,34,35
 136 625 136 625 133 649 c 0,36,37
 131 672 131 672 113.5 678 c 128,-1,38
 96 684 96 684 75.5 685 c 128,-1,39
 55 686 55 686 38 688.5 c 128,-1,40
 21 691 21 691 21 707 c 0,41,42
 21 715 21 715 27.5 719 c 128,-1,43
 34 723 34 723 41 723 c 0,44,45
 87 723 87 723 132.5 720 c 128,-1,46
 178 717 178 717 224 717 c 0,47,48
 246 717 246 717 268 719.5 c 128,-1,49
 290 722 290 722 312 722 c 0,50,51
 320 722 320 722 327.5 718 c 128,-1,52
 335 714 335 714 335 704 c 0,0,1
EndSplineSet
Validated: 33
Substitution2: "'c2sc' Versalien in Kapit+AOQA-lchen in Lateinisch Nachschlagetabelle 0 Subtabelle" uni1D0A
EndChar

StartChar: K
Encoding: 75 75 60
Width: 800
Flags: W
LayerCount: 2
Fore
SplineSet
220 718 m 2,0,1
 243 718 243 718 265 720.5 c 128,-1,2
 287 723 287 723 310 723 c 2,3,-1
 319 723 l 2,4,5
 327 723 327 723 336 720 c 128,-1,6
 345 717 345 717 345 711 c 0,7,8
 343 707 343 707 342 701.5 c 128,-1,9
 341 696 341 696 339 693 c 0,10,11
 334 685 334 685 318.5 686.5 c 128,-1,12
 303 688 303 688 286.5 686 c 128,-1,13
 270 684 270 684 257.5 672 c 128,-1,14
 245 660 245 660 245 624 c 2,15,-1
 245 571 l 2,16,17
 245 547 245 547 245.5 524.5 c 128,-1,18
 246 502 246 502 246 478 c 2,19,-1
 246 425 l 2,20,21
 246 423 246 423 244.5 416.5 c 128,-1,22
 243 410 243 410 245 409 c 0,23,24
 256 409 256 409 267 415 c 128,-1,25
 278 421 278 421 288 429 c 128,-1,26
 298 437 298 437 306 445 c 128,-1,27
 314 453 314 453 319 458 c 0,28,29
 326 465 326 465 344.5 482 c 128,-1,30
 363 499 363 499 386 520.5 c 128,-1,31
 409 542 409 542 434.5 566 c 128,-1,32
 460 590 460 590 481 611.5 c 128,-1,33
 502 633 502 633 515.5 649 c 128,-1,34
 529 665 529 665 529 671 c 0,35,36
 529 681 529 681 515 683 c 128,-1,37
 501 685 501 685 484.5 685.5 c 128,-1,38
 468 686 468 686 454 688 c 128,-1,39
 440 690 440 690 440 700 c 2,40,-1
 440 708 l 1,41,42
 445 721 445 721 460 721.5 c 128,-1,43
 475 722 475 722 489 722 c 0,44,45
 516 722 516 722 543.5 720.5 c 128,-1,46
 571 719 571 719 599 719 c 0,47,48
 624 719 624 719 648.5 720.5 c 128,-1,49
 673 722 673 722 698 722 c 0,50,51
 706 722 706 722 713 718 c 128,-1,52
 720 714 720 714 720 705 c 0,53,54
 720 694 720 694 709 690 c 128,-1,55
 698 686 698 686 682 684 c 128,-1,56
 666 682 666 682 648.5 679.5 c 128,-1,57
 631 677 631 677 618 670 c 0,58,59
 610 666 610 666 587.5 648 c 128,-1,60
 565 630 565 630 536 605.5 c 128,-1,61
 507 581 507 581 475 552.5 c 128,-1,62
 443 524 443 524 416 499 c 128,-1,63
 389 474 389 474 370.5 456 c 128,-1,64
 352 438 352 438 350 433 c 0,65,66
 352 428 352 428 369.5 408 c 128,-1,67
 387 388 387 388 411.5 360.5 c 128,-1,68
 436 333 436 333 465 301.5 c 128,-1,69
 494 270 494 270 520 242 c 128,-1,70
 546 214 546 214 566 192.5 c 128,-1,71
 586 171 586 171 593 164 c 0,72,73
 610 145 610 145 628 123.5 c 128,-1,74
 646 102 646 102 665.5 83 c 128,-1,75
 685 64 685 64 706.5 49.5 c 128,-1,76
 728 35 728 35 753 29 c 0,77,78
 766 27 766 27 778 23.5 c 128,-1,79
 790 20 790 20 789 4 c 0,80,81
 788 -4 788 -4 778.5 -5.5 c 128,-1,82
 769 -7 769 -7 763 -7 c 0,83,84
 731 -7 731 -7 700 -4.5 c 128,-1,85
 669 -2 669 -2 637 -2 c 0,86,87
 599 -2 599 -2 560 -4.5 c 128,-1,88
 521 -7 521 -7 483 -7 c 0,89,90
 473 -7 473 -7 467 -4.5 c 128,-1,91
 461 -2 461 -2 461 10 c 0,92,93
 461 20 461 20 471.5 25 c 128,-1,94
 482 30 482 30 496 32 c 128,-1,95
 510 34 510 34 523 33.5 c 128,-1,96
 536 33 536 33 541 33 c 0,97,98
 549 33 549 33 556.5 36 c 128,-1,99
 564 39 564 39 556 51 c 0,100,101
 555 53 555 53 550 59.5 c 128,-1,102
 545 66 545 66 539 74 c 128,-1,103
 533 82 533 82 527.5 89 c 128,-1,104
 522 96 522 96 520 99 c 0,105,106
 509 112 509 112 489.5 135 c 128,-1,107
 470 158 470 158 446 186 c 128,-1,108
 422 214 422 214 396 243 c 128,-1,109
 370 272 370 272 345.5 297.5 c 128,-1,110
 321 323 321 323 301 341.5 c 128,-1,111
 281 360 281 360 269 366 c 1,112,113
 258 367 258 367 252.5 369 c 128,-1,114
 247 371 247 371 245 363 c 0,115,116
 244 358 244 358 243.5 345.5 c 128,-1,117
 243 333 243 333 243 319 c 2,118,-1
 243 274 l 2,119,120
 243 237 243 237 242.5 201 c 128,-1,121
 242 165 242 165 242 128 c 0,122,123
 242 113 242 113 243.5 95 c 128,-1,124
 245 77 245 77 250.5 62 c 128,-1,125
 256 47 256 47 268 38 c 128,-1,126
 280 29 280 29 301 31 c 0,127,128
 305 28 305 28 313.5 28.5 c 128,-1,129
 322 29 322 29 331 28.5 c 128,-1,130
 340 28 340 28 346.5 25.5 c 128,-1,131
 353 23 353 23 353 14 c 0,132,133
 353 3 353 3 344 -1.5 c 128,-1,134
 335 -6 335 -6 325 -6 c 2,135,-1
 312 -6 l 2,136,137
 291 -6 291 -6 270.5 -3.5 c 128,-1,138
 250 -1 250 -1 229 -1 c 0,139,140
 187 -1 187 -1 148 -4 c 128,-1,141
 109 -7 109 -7 67 -7 c 0,142,143
 58 -7 58 -7 46.5 -5 c 128,-1,144
 35 -3 35 -3 35 8 c 0,145,146
 35 20 35 20 45 24.5 c 128,-1,147
 55 29 55 29 68.5 30.5 c 128,-1,148
 82 32 82 32 96 32.5 c 128,-1,149
 110 33 110 33 118 37 c 0,150,151
 127 41 127 41 132.5 50.5 c 128,-1,152
 138 60 138 60 141 71 c 128,-1,153
 144 82 144 82 145 93.5 c 128,-1,154
 146 105 146 105 146 114 c 0,155,156
 146 214 146 214 147.5 312.5 c 128,-1,157
 149 411 149 411 149 511 c 2,158,-1
 149 633 l 2,159,160
 149 649 149 649 144.5 665.5 c 128,-1,161
 140 682 140 682 121 685 c 0,162,163
 111 687 111 687 98.5 686.5 c 128,-1,164
 86 686 86 686 74.5 687.5 c 128,-1,165
 63 689 63 689 55.5 694 c 128,-1,166
 48 699 48 699 48 711 c 0,167,168
 48 719 48 719 57.5 721.5 c 128,-1,169
 67 724 67 724 76 724 c 2,170,-1
 87 724 l 2,171,172
 113 724 113 724 138 721 c 128,-1,173
 163 718 163 718 189 718 c 2,174,-1
 220 718 l 2,0,1
EndSplineSet
Validated: 33
Substitution2: "'c2sc' Versalien in Kapit+AOQA-lchen in Lateinisch Nachschlagetabelle 0 Subtabelle" uni1D0B
EndChar

StartChar: L
Encoding: 76 76 61
Width: 627
Flags: W
HStem: -9 33.5<35.0098 124.423> 689.5 32.5<36.0038 69.6561 295 361.975> 704 20G<64.5 87.5>
VStem: 149 96<62.1898 672.686>
LayerCount: 2
Fore
SplineSet
207 717 m 0,0,1
 244 717 244 717 277.5 719 c 128,-1,2
 311 721 311 721 353 721 c 1,3,4
 362 713 362 713 362 705 c 0,5,6
 362 693 362 693 350.5 689.5 c 128,-1,7
 339 686 339 686 323 684.5 c 128,-1,8
 307 683 307 683 291 681.5 c 128,-1,9
 275 680 275 680 265 672 c 0,10,11
 258 666 258 666 254.5 656 c 128,-1,12
 251 646 251 646 249.5 635 c 128,-1,13
 248 624 248 624 247.5 613 c 128,-1,14
 247 602 247 602 247 594 c 0,15,16
 247 503 247 503 246 415.5 c 128,-1,17
 245 328 245 328 245 237 c 2,18,-1
 245 199 l 2,19,20
 245 181 245 181 245.5 159.5 c 128,-1,21
 246 138 246 138 248 118.5 c 128,-1,22
 250 99 250 99 254 83.5 c 128,-1,23
 258 68 258 68 265 62 c 0,24,25
 290 43 290 43 322.5 39 c 128,-1,26
 355 35 355 35 386 39.5 c 128,-1,27
 417 44 417 44 442 53 c 128,-1,28
 467 62 467 62 476 68 c 0,29,30
 492 77 492 77 509.5 99.5 c 128,-1,31
 527 122 527 122 542 146.5 c 128,-1,32
 557 171 557 171 568 190.5 c 128,-1,33
 579 210 579 210 582 213 c 0,34,35
 591 220 591 220 602 217.5 c 128,-1,36
 613 215 613 215 617 206 c 1,37,38
 592 166 592 166 578 126.5 c 128,-1,39
 564 87 564 87 556 55.5 c 128,-1,40
 548 24 548 24 542.5 4.5 c 128,-1,41
 537 -15 537 -15 530 -15 c 0,42,43
 464 -15 464 -15 394 -6 c 128,-1,44
 324 3 324 3 258 3 c 0,45,46
 225 3 225 3 200.5 1 c 128,-1,47
 176 -1 176 -1 153.5 -3 c 128,-1,48
 131 -5 131 -5 106.5 -7 c 128,-1,49
 82 -9 82 -9 49 -9 c 0,50,51
 43 -9 43 -9 39 -4 c 128,-1,52
 35 1 35 1 35 7 c 0,53,54
 35 21 35 21 45 24.5 c 128,-1,55
 55 28 55 28 70 29 c 128,-1,56
 85 30 85 30 102 32.5 c 128,-1,57
 119 35 119 35 133 48 c 0,58,59
 145 60 145 60 149 92 c 128,-1,60
 153 124 153 124 153 162 c 0,61,62
 153 201 153 201 151 240.5 c 128,-1,63
 149 280 149 280 149 308 c 2,64,-1
 149 600 l 2,65,66
 149 625 149 625 145 645 c 0,67,68
 141 667 141 667 123.5 674.5 c 128,-1,69
 106 682 106 682 86.5 684.5 c 128,-1,70
 67 687 67 687 51.5 689.5 c 128,-1,71
 36 692 36 692 36 706 c 256,72,73
 36 720 36 720 47.5 722 c 128,-1,74
 59 724 59 724 70 724 c 0,75,76
 105 724 105 724 138.5 720.5 c 128,-1,77
 172 717 172 717 207 717 c 0,0,1
EndSplineSet
Validated: 8388641
Substitution2: "'c2sc' Versalien in Kapit+AOQA-lchen in Lateinisch Nachschlagetabelle 0 Subtabelle" uni029F
EndChar

StartChar: M
Encoding: 77 77 62
Width: 1001
Flags: W
LayerCount: 2
Fore
SplineSet
959 699 m 0,0,1
 959 691 959 691 951 686.5 c 128,-1,2
 943 682 943 682 932 680 c 128,-1,3
 921 678 921 678 910 677.5 c 128,-1,4
 899 677 899 677 893 677 c 0,5,6
 873 677 873 677 862 669.5 c 128,-1,7
 851 662 851 662 846 650 c 128,-1,8
 841 638 841 638 840 622 c 128,-1,9
 839 606 839 606 839 590 c 2,10,-1
 839 565 l 2,11,12
 841 451 841 451 846 343 c 128,-1,13
 851 235 851 235 857 117 c 0,14,15
 858 99 858 99 861 77 c 128,-1,16
 864 55 864 55 881 44 c 0,17,18
 886 41 886 41 898 37.5 c 128,-1,19
 910 34 910 34 924 30.5 c 128,-1,20
 938 27 938 27 951 23.5 c 128,-1,21
 964 20 964 20 972 16 c 0,22,23
 978 13 978 13 978 5 c 0,24,25
 978 -5 978 -5 968.5 -6.5 c 128,-1,26
 959 -8 959 -8 949 -8 c 2,27,-1
 939 -8 l 2,28,29
 910 -8 910 -8 880.5 -4.5 c 128,-1,30
 851 -1 851 -1 822 -1 c 0,31,32
 790 -1 790 -1 757.5 -4.5 c 128,-1,33
 725 -8 725 -8 693 -8 c 0,34,35
 686 -8 686 -8 673.5 -6 c 128,-1,36
 661 -4 661 -4 661 6 c 0,37,38
 661 15 661 15 669 19.5 c 128,-1,39
 677 24 677 24 683 28 c 1,40,41
 710 28 710 28 726.5 33 c 128,-1,42
 743 38 743 38 751 49 c 128,-1,43
 759 60 759 60 761.5 77.5 c 128,-1,44
 764 95 764 95 764 121 c 2,45,-1
 751 454 l 2,46,47
 750 480 750 480 749.5 501 c 128,-1,48
 749 522 749 522 749 536 c 0,49,50
 749 566 749 566 741 571 c 1,51,52
 737 568 737 568 732.5 560.5 c 128,-1,53
 728 553 728 553 724 544 c 128,-1,54
 720 535 720 535 716.5 526.5 c 128,-1,55
 713 518 713 518 711 514 c 0,56,57
 665 410 665 410 620.5 313 c 128,-1,58
 576 216 576 216 533 111 c 0,59,60
 528 99 528 99 521 79.5 c 128,-1,61
 514 60 514 60 505.5 42 c 128,-1,62
 497 24 497 24 489 10.5 c 128,-1,63
 481 -3 481 -3 475 -3 c 0,64,65
 464 -3 464 -3 458 11 c 128,-1,66
 452 25 452 25 450 33 c 0,67,68
 417 127 417 127 380.5 218 c 128,-1,69
 344 309 344 309 302 399 c 0,70,71
 298 408 298 408 286.5 436 c 128,-1,72
 275 464 275 464 261.5 495 c 128,-1,73
 248 526 248 526 236 550 c 128,-1,74
 224 574 224 574 219 574 c 0,75,76
 217 574 217 574 215.5 544.5 c 128,-1,77
 214 515 214 515 212.5 468 c 128,-1,78
 211 421 211 421 210 363.5 c 128,-1,79
 209 306 209 306 208.5 251 c 128,-1,80
 208 196 208 196 207.5 149 c 128,-1,81
 207 102 207 102 207 77 c 0,82,83
 207 60 207 60 215.5 51 c 128,-1,84
 224 42 224 42 236.5 37 c 128,-1,85
 249 32 249 32 264 30 c 128,-1,86
 279 28 279 28 291.5 26 c 128,-1,87
 304 24 304 24 312.5 19.5 c 128,-1,88
 321 15 321 15 321 5 c 0,89,90
 321 -6 321 -6 308.5 -7 c 128,-1,91
 296 -8 296 -8 289 -8 c 0,92,93
 263 -8 263 -8 237.5 -6 c 128,-1,94
 212 -4 212 -4 186 -4 c 0,95,96
 154 -4 154 -4 122.5 -6 c 128,-1,97
 91 -8 91 -8 59 -8 c 0,98,99
 53 -8 53 -8 41.5 -5.5 c 128,-1,100
 30 -3 30 -3 30 5 c 0,101,102
 30 21 30 21 44 24.5 c 128,-1,103
 58 28 58 28 76 30.5 c 128,-1,104
 94 33 94 33 112 38.5 c 128,-1,105
 130 44 130 44 138 64 c 0,106,107
 144 79 144 79 147 97 c 128,-1,108
 150 115 150 115 152 132 c 0,109,110
 163 250 163 250 172 370 c 128,-1,111
 181 490 181 490 181 608 c 0,112,113
 181 643 181 643 165 660 c 128,-1,114
 149 677 149 677 112 684 c 0,115,116
 107 685 107 685 97 687 c 128,-1,117
 87 689 87 689 76.5 691.5 c 128,-1,118
 66 694 66 694 58 698 c 128,-1,119
 50 702 50 702 50 708 c 0,120,121
 50 719 50 719 61 720.5 c 128,-1,122
 72 722 72 722 80 722 c 0,123,124
 97 722 97 722 112.5 720 c 128,-1,125
 128 718 128 718 145 718 c 0,126,127
 171 718 171 718 195.5 720 c 128,-1,128
 220 722 220 722 246 722 c 0,129,130
 254 722 254 722 259 721.5 c 128,-1,131
 264 721 264 721 269 714 c 0,132,133
 288 688 288 688 299 655.5 c 128,-1,134
 310 623 310 623 323 593 c 0,135,136
 353 523 353 523 383.5 454 c 128,-1,137
 414 385 414 385 444 313 c 0,138,139
 451 296 451 296 460 273 c 128,-1,140
 469 250 469 250 478 228.5 c 128,-1,141
 487 207 487 207 494.5 192 c 128,-1,142
 502 177 502 177 507 177 c 256,143,144
 512 177 512 177 516 185 c 128,-1,145
 520 193 520 193 523 200 c 0,146,147
 580 318 580 318 630 438.5 c 128,-1,148
 680 559 680 559 737 677 c 0,149,150
 749 703 749 703 756 710.5 c 128,-1,151
 763 718 763 718 774 718 c 2,152,-1
 795 718 l 2,153,154
 813 718 813 718 821.5 717 c 128,-1,155
 830 716 830 716 845 716 c 0,156,157
 867 716 867 716 888 717 c 128,-1,158
 909 718 909 718 931 718 c 0,159,160
 938 718 938 718 949 714.5 c 128,-1,161
 960 711 960 711 959 699 c 0,0,1
EndSplineSet
Validated: 1
Substitution2: "'c2sc' Versalien in Kapit+AOQA-lchen in Lateinisch Nachschlagetabelle 0 Subtabelle" uni1D0D
EndChar

StartChar: N
Encoding: 78 78 63
Width: 901
Flags: W
LayerCount: 2
Fore
SplineSet
186 -4 m 0,0,1
 153 -4 153 -4 120 -6 c 128,-1,2
 87 -8 87 -8 53 -8 c 0,3,4
 45 -8 45 -8 34.5 -5 c 128,-1,5
 24 -2 24 -2 24 9 c 0,6,7
 24 18 24 18 31.5 22 c 128,-1,8
 39 26 39 26 50 27.5 c 128,-1,9
 61 29 61 29 73 29.5 c 128,-1,10
 85 30 85 30 93 31 c 0,11,12
 110 34 110 34 119.5 43 c 128,-1,13
 129 52 129 52 133.5 65 c 128,-1,14
 138 78 138 78 139 93 c 128,-1,15
 140 108 140 108 140 122 c 0,16,17
 142 242 142 242 144 358.5 c 128,-1,18
 146 475 146 475 146 595 c 0,19,20
 146 611 146 611 144.5 625.5 c 128,-1,21
 143 640 143 640 136 651 c 128,-1,22
 129 662 129 662 116 670 c 128,-1,23
 103 678 103 678 80 682 c 0,24,25
 74 683 74 683 63 683.5 c 128,-1,26
 52 684 52 684 41 686 c 128,-1,27
 30 688 30 688 22 692 c 128,-1,28
 14 696 14 696 14 704 c 0,29,30
 14 713 14 713 24.5 718 c 128,-1,31
 35 723 35 723 42 723 c 0,32,33
 64 723 64 723 85 722 c 128,-1,34
 106 721 106 721 128 721 c 0,35,36
 145 721 145 721 160.5 722 c 128,-1,37
 176 723 176 723 193 723 c 0,38,39
 211 723 211 723 220.5 718.5 c 128,-1,40
 230 714 230 714 238.5 705 c 128,-1,41
 247 696 247 696 257 683 c 128,-1,42
 267 670 267 670 286 652 c 0,43,44
 326 604 326 604 367.5 555.5 c 128,-1,45
 409 507 409 507 459.5 448.5 c 128,-1,46
 510 390 510 390 572.5 316.5 c 128,-1,47
 635 243 635 243 718 144 c 1,48,49
 732 145 732 145 731 166 c 2,50,-1
 731 287 l 2,51,52
 732 365 732 365 731.5 443 c 128,-1,53
 731 521 731 521 731 599 c 0,54,55
 731 613 731 613 730.5 626 c 128,-1,56
 730 639 730 639 727 652 c 0,57,58
 722 674 722 674 703.5 679.5 c 128,-1,59
 685 685 685 685 664.5 685.5 c 128,-1,60
 644 686 644 686 627.5 688 c 128,-1,61
 611 690 611 690 611 706 c 0,62,63
 611 716 611 716 618 719.5 c 128,-1,64
 625 723 625 723 633 723 c 0,65,66
 665 723 665 723 697 721 c 128,-1,67
 729 719 729 719 761 719 c 0,68,69
 787 719 787 719 813.5 720.5 c 128,-1,70
 840 722 840 722 866 722 c 0,71,72
 888 722 888 722 888 705 c 0,73,74
 888 693 888 693 875.5 689.5 c 128,-1,75
 863 686 863 686 847 684.5 c 128,-1,76
 831 683 831 683 815 680.5 c 128,-1,77
 799 678 799 678 792 669 c 0,78,79
 786 661 786 661 782 641 c 128,-1,80
 778 621 778 621 776.5 598.5 c 128,-1,81
 775 576 775 576 774.5 555 c 128,-1,82
 774 534 774 534 774 524 c 2,83,-1
 774 317 l 2,84,85
 774 259 774 259 773.5 186 c 128,-1,86
 773 113 773 113 773 14 c 0,87,88
 773 -3 773 -3 771.5 -17.5 c 128,-1,89
 770 -32 770 -32 757 -34 c 0,90,91
 752 -35 752 -35 747 -31.5 c 128,-1,92
 742 -28 742 -28 737.5 -23 c 128,-1,93
 733 -18 733 -18 728.5 -12.5 c 128,-1,94
 724 -7 724 -7 721 -3 c 0,95,96
 692 31 692 31 663.5 65 c 128,-1,97
 635 99 635 99 607 134 c 0,98,99
 606 135 606 135 603.5 138 c 128,-1,100
 601 141 601 141 591 152.5 c 128,-1,101
 581 164 581 164 560 188.5 c 128,-1,102
 539 213 539 213 501 257 c 128,-1,103
 463 301 463 301 405.5 368 c 128,-1,104
 348 435 348 435 264 533 c 0,105,106
 247 553 247 553 229.5 576.5 c 128,-1,107
 212 600 212 600 190 618 c 1,108,109
 187 601 187 601 187 584 c 0,110,111
 187 530 187 530 188 482.5 c 128,-1,112
 189 435 189 435 189.5 384 c 128,-1,113
 190 333 190 333 191 273.5 c 128,-1,114
 192 214 192 214 192 136 c 0,115,116
 192 90 192 90 198 69 c 128,-1,117
 204 48 204 48 216.5 40.5 c 128,-1,118
 229 33 229 33 248.5 32 c 128,-1,119
 268 31 268 31 296 25 c 0,120,121
 304 23 304 23 311.5 17.5 c 128,-1,122
 319 12 319 12 319 2 c 0,123,124
 319 -4 319 -4 313 -6 c 128,-1,125
 307 -8 307 -8 302 -8 c 0,126,127
 273 -8 273 -8 244 -6 c 128,-1,128
 215 -4 215 -4 186 -4 c 0,0,1
EndSplineSet
Validated: 33
Substitution2: "'c2sc' Versalien in Kapit+AOQA-lchen in Lateinisch Nachschlagetabelle 0 Subtabelle" uni0274
EndChar

StartChar: O
Encoding: 79 79 64
Width: 885
Flags: W
LayerCount: 2
Fore
SplineSet
701 410 m 0,0,1
 689 474 689 474 662 532 c 128,-1,2
 635 590 635 590 593.5 631.5 c 128,-1,3
 552 673 552 673 496 692.5 c 128,-1,4
 440 712 440 712 370 699 c 0,5,6
 295 685 295 685 252 645 c 128,-1,7
 209 605 209 605 189.5 551 c 128,-1,8
 170 497 170 497 169.5 435.5 c 128,-1,9
 169 374 169 374 180 317 c 0,10,11
 190 258 190 258 214.5 199 c 128,-1,12
 239 140 239 140 279 95 c 128,-1,13
 319 50 319 50 376 27 c 128,-1,14
 433 4 433 4 509 18 c 0,15,16
 583 31 583 31 626 72.5 c 128,-1,17
 669 114 669 114 689 170.5 c 128,-1,18
 709 227 709 227 710 290 c 128,-1,19
 711 353 711 353 701 410 c 0,0,1
825 365 m 0,20,21
 825 285 825 285 794.5 213.5 c 128,-1,22
 764 142 764 142 710.5 88.5 c 128,-1,23
 657 35 657 35 585 3.5 c 128,-1,24
 513 -28 513 -28 431 -28 c 0,25,26
 350 -28 350 -28 281.5 0.5 c 128,-1,27
 213 29 213 29 164 80 c 128,-1,28
 115 131 115 131 87.5 200.5 c 128,-1,29
 60 270 60 270 60 353 c 256,30,31
 60 436 60 436 88 507 c 128,-1,32
 116 578 116 578 166.5 630 c 128,-1,33
 217 682 217 682 286 711.5 c 128,-1,34
 355 741 355 741 437 741 c 0,35,36
 516 741 516 741 586.5 713.5 c 128,-1,37
 657 686 657 686 710 636.5 c 128,-1,38
 763 587 763 587 794 518 c 128,-1,39
 825 449 825 449 825 365 c 0,20,21
EndSplineSet
Validated: 33
Substitution2: "'c2sc' Versalien in Kapit+AOQA-lchen in Lateinisch Nachschlagetabelle 0 Subtabelle" uni1D0F
EndChar

StartChar: P
Encoding: 80 80 65
Width: 617
Flags: W
LayerCount: 2
Fore
SplineSet
469 514 m 0,0,1
 469 548 469 548 458.5 579.5 c 128,-1,2
 448 611 448 611 426.5 635 c 128,-1,3
 405 659 405 659 373 674 c 128,-1,4
 341 689 341 689 299 691 c 0,5,6
 288 691 288 691 275 689.5 c 128,-1,7
 262 688 262 688 253 680 c 0,8,9
 244 671 244 671 240.5 651.5 c 128,-1,10
 237 632 237 632 237 614 c 2,11,-1
 237 594 l 2,12,13
 237 543 237 543 238 493 c 128,-1,14
 239 443 239 443 240 392 c 1,15,-1
 239 392 l 1,16,-1
 239 318 l 2,17,18
 238 307 238 307 237.5 288.5 c 128,-1,19
 237 270 237 270 236.5 249.5 c 128,-1,20
 236 229 236 229 236 208 c 256,21,22
 236 187 236 187 236 171 c 2,23,-1
 236 110 l 2,24,25
 236 98 236 98 237 86 c 128,-1,26
 238 74 238 74 242 63.5 c 128,-1,27
 246 53 246 53 252.5 45 c 128,-1,28
 259 37 259 37 271 34 c 0,29,30
 277 32 277 32 288 30 c 128,-1,31
 299 28 299 28 310.5 26 c 128,-1,32
 322 24 322 24 331.5 22.5 c 128,-1,33
 341 21 341 21 345 20 c 0,34,35
 353 16 353 16 350.5 11 c 128,-1,36
 348 6 348 6 346 -1 c 0,37,38
 341 -5 341 -5 334 -6 c 128,-1,39
 327 -7 327 -7 320 -7 c 0,40,41
 288 -7 288 -7 255 -3.5 c 128,-1,42
 222 0 222 0 189 0 c 0,43,44
 154 0 154 0 120.5 -3.5 c 128,-1,45
 87 -7 87 -7 52 -7 c 0,46,47
 42 -7 42 -7 39 -0.5 c 128,-1,48
 36 6 36 6 36 14 c 0,49,50
 36 18 36 18 48.5 21.5 c 128,-1,51
 61 25 61 25 77.5 29.5 c 128,-1,52
 94 34 94 34 109.5 40.5 c 128,-1,53
 125 47 125 47 131 58 c 0,54,55
 139 75 139 75 140 95.5 c 128,-1,56
 141 116 141 116 141 135 c 0,57,58
 141 195 141 195 142 255 c 128,-1,59
 143 315 143 315 143 375 c 0,60,61
 143 441 143 441 142.5 506.5 c 128,-1,62
 142 572 142 572 142 638 c 0,63,64
 142 660 142 660 134 670 c 128,-1,65
 126 680 126 680 114.5 683.5 c 128,-1,66
 103 687 103 687 89 686 c 128,-1,67
 75 685 75 685 63.5 685.5 c 128,-1,68
 52 686 52 686 44 690 c 128,-1,69
 36 694 36 694 36 707 c 0,70,71
 36 715 36 715 42 718 c 128,-1,72
 48 721 48 721 55 722 c 0,73,74
 103 727 103 727 150.5 728 c 128,-1,75
 198 729 198 729 246 729 c 2,76,-1
 303 729 l 2,77,78
 357 729 357 729 406 716.5 c 128,-1,79
 455 704 455 704 492 678 c 128,-1,80
 529 652 529 652 551 611.5 c 128,-1,81
 573 571 573 571 573 516 c 0,82,83
 573 469 573 469 554 430.5 c 128,-1,84
 535 392 535 392 503 364 c 128,-1,85
 471 336 471 336 427.5 320.5 c 128,-1,86
 384 305 384 305 336 305 c 0,87,88
 319 305 319 305 315.5 307.5 c 128,-1,89
 312 310 312 310 305 315 c 0,90,91
 303 317 303 317 300.5 322.5 c 128,-1,92
 298 328 298 328 297.5 334 c 128,-1,93
 297 340 297 340 298.5 344.5 c 128,-1,94
 300 349 300 349 305 349 c 0,95,96
 309 348 309 348 310 348 c 0,97,98
 346 349 346 349 375 361.5 c 128,-1,99
 404 374 404 374 425 395.5 c 128,-1,100
 446 417 446 417 457.5 447.5 c 128,-1,101
 469 478 469 478 469 514 c 0,0,1
EndSplineSet
Validated: 1
Substitution2: "'c2sc' Versalien in Kapit+AOQA-lchen in Lateinisch Nachschlagetabelle 0 Subtabelle" uni1D18
EndChar

StartChar: Q
Encoding: 81 81 66
Width: 885
Flags: W
LayerCount: 2
Fore
SplineSet
701 410 m 0,0,1
 689 474 689 474 662.5 532 c 128,-1,2
 636 590 636 590 594 631.5 c 128,-1,3
 552 673 552 673 496 692.5 c 128,-1,4
 440 712 440 712 370 699 c 0,5,6
 303 686 303 686 261 646 c 128,-1,7
 219 606 219 606 197.5 552 c 128,-1,8
 176 498 176 498 172.5 436 c 128,-1,9
 169 374 169 374 180 317 c 0,10,11
 190 258 190 258 214.5 198.5 c 128,-1,12
 239 139 239 139 279 93.5 c 128,-1,13
 319 48 319 48 376 25.5 c 128,-1,14
 433 3 433 3 509 18 c 0,15,16
 566 30 566 30 607.5 71 c 128,-1,17
 649 112 649 112 673 168.5 c 128,-1,18
 697 225 697 225 704 289 c 128,-1,19
 711 353 711 353 701 410 c 0,0,1
825 365 m 0,20,21
 825 312 825 312 810 262.5 c 128,-1,22
 795 213 795 213 767.5 170 c 128,-1,23
 740 127 740 127 702.5 91 c 128,-1,24
 665 55 665 55 620 29 c 1,25,26
 645 -7 645 -7 668.5 -29.5 c 128,-1,27
 692 -52 692 -52 715 -67 c 128,-1,28
 738 -82 738 -82 761.5 -91.5 c 128,-1,29
 785 -101 785 -101 811 -111 c 0,30,31
 815 -113 815 -113 817 -119 c 128,-1,32
 819 -125 819 -125 819 -131 c 0,33,34
 819 -138 819 -138 816.5 -144 c 128,-1,35
 814 -150 814 -150 810 -150 c 0,36,37
 775 -153 775 -153 736 -146 c 128,-1,38
 697 -139 697 -139 657.5 -122 c 128,-1,39
 618 -105 618 -105 579.5 -78.5 c 128,-1,40
 541 -52 541 -52 507 -16 c 1,41,42
 495 -19 495 -19 486.5 -21.5 c 128,-1,43
 478 -24 478 -24 469.5 -25.5 c 128,-1,44
 461 -27 461 -27 452 -27.5 c 128,-1,45
 443 -28 443 -28 431 -28 c 0,46,47
 350 -28 350 -28 281.5 0.5 c 128,-1,48
 213 29 213 29 164 80 c 128,-1,49
 115 131 115 131 87.5 200.5 c 128,-1,50
 60 270 60 270 60 353 c 256,51,52
 60 436 60 436 88 507 c 128,-1,53
 116 578 116 578 166.5 630 c 128,-1,54
 217 682 217 682 286 711.5 c 128,-1,55
 355 741 355 741 437 741 c 0,56,57
 516 741 516 741 586.5 713.5 c 128,-1,58
 657 686 657 686 710 636.5 c 128,-1,59
 763 587 763 587 794 518 c 128,-1,60
 825 449 825 449 825 365 c 0,20,21
EndSplineSet
Validated: 33
Substitution2: "'c2sc' Versalien in Kapit+AOQA-lchen in Lateinisch Nachschlagetabelle 0 Subtabelle" Q.sc
EndChar

StartChar: R
Encoding: 82 82 67
Width: 718
Flags: W
LayerCount: 2
Fore
SplineSet
472 531 m 0,0,1
 472 571 472 571 459 601 c 128,-1,2
 446 631 446 631 423.5 651.5 c 128,-1,3
 401 672 401 672 370 682.5 c 128,-1,4
 339 693 339 693 302 693 c 0,5,6
 267 693 267 693 256 680.5 c 128,-1,7
 245 668 245 668 245 644 c 2,8,-1
 245 610 l 2,9,10
 245 570 245 570 244 520 c 128,-1,11
 243 470 243 470 243 430 c 0,12,13
 243 415 243 415 242.5 404.5 c 128,-1,14
 242 394 242 394 244.5 387 c 128,-1,15
 247 380 247 380 255.5 377 c 128,-1,16
 264 374 264 374 282 374 c 0,17,18
 322 374 322 374 357 380.5 c 128,-1,19
 392 387 392 387 417.5 404.5 c 128,-1,20
 443 422 443 422 457.5 452.5 c 128,-1,21
 472 483 472 483 472 531 c 0,0,1
425 351 m 1,22,23
 445 343 445 343 463.5 315.5 c 128,-1,24
 482 288 482 288 500.5 250 c 128,-1,25
 519 212 519 212 540 169.5 c 128,-1,26
 561 127 561 127 587 89 c 128,-1,27
 613 51 613 51 645 22.5 c 128,-1,28
 677 -6 677 -6 719 -15 c 0,29,30
 730 -20 730 -20 741.5 -22.5 c 128,-1,31
 753 -25 753 -25 753 -34 c 0,32,33
 753 -40 753 -40 744 -49 c 1,34,35
 733 -53 733 -53 708 -53 c 0,36,37
 698 -53 698 -53 688 -52 c 128,-1,38
 678 -51 678 -51 671 -50 c 0,39,40
 586 -35 586 -35 528.5 19 c 128,-1,41
 471 73 471 73 441 151 c 1,42,43
 424 183 424 183 409.5 217 c 128,-1,44
 395 251 395 251 376.5 278.5 c 128,-1,45
 358 306 358 306 333.5 324 c 128,-1,46
 309 342 309 342 273 342 c 0,47,48
 253 342 253 342 248.5 334 c 128,-1,49
 244 326 244 326 244 302 c 2,50,-1
 244 96 l 2,51,52
 244 70 244 70 250.5 57 c 128,-1,53
 257 44 257 44 268.5 38 c 128,-1,54
 280 32 280 32 296 30 c 128,-1,55
 312 28 312 28 332 24 c 0,56,57
 334 23 334 23 340 23 c 0,58,59
 348 23 348 23 355 21 c 128,-1,60
 362 19 362 19 362 11 c 0,61,62
 362 -3 362 -3 352 -6 c 128,-1,63
 342 -9 342 -9 322 -9 c 0,64,65
 286 -9 286 -9 250 -5.5 c 128,-1,66
 214 -2 214 -2 179 -2 c 0,67,68
 148 -2 148 -2 117.5 -5 c 128,-1,69
 87 -8 87 -8 56 -8 c 0,70,71
 43 -8 43 -8 39 -5.5 c 128,-1,72
 35 -3 35 -3 35 11 c 0,73,74
 35 18 35 18 43 20.5 c 128,-1,75
 51 23 51 23 63.5 25 c 128,-1,76
 76 27 76 27 90 29.5 c 128,-1,77
 104 32 104 32 116.5 39 c 128,-1,78
 129 46 129 46 137 58 c 128,-1,79
 145 70 145 70 145 91 c 2,80,-1
 145 297 l 2,81,82
 145 382 145 382 146.5 466 c 128,-1,83
 148 550 148 550 148 635 c 0,84,85
 148 655 148 655 140 666 c 128,-1,86
 132 677 132 677 119.5 681.5 c 128,-1,87
 107 686 107 686 93 687 c 128,-1,88
 79 688 79 688 66.5 689 c 128,-1,89
 54 690 54 690 46 693 c 128,-1,90
 38 696 38 696 38 705 c 0,91,92
 38 719 38 719 48.5 721.5 c 128,-1,93
 59 724 59 724 70 724 c 256,94,95
 81 724 81 724 92.5 723 c 128,-1,96
 104 722 104 722 115 722 c 2,97,-1
 202 722 l 2,98,99
 240 722 240 722 278.5 723.5 c 128,-1,100
 317 725 317 725 355 725 c 0,101,102
 388 725 388 725 426 716.5 c 128,-1,103
 464 708 464 708 497 685.5 c 128,-1,104
 530 663 530 663 552 625 c 128,-1,105
 574 587 574 587 574 528 c 0,106,107
 574 496 574 496 560.5 468.5 c 128,-1,108
 547 441 547 441 525.5 419 c 128,-1,109
 504 397 504 397 477.5 380 c 128,-1,110
 451 363 451 363 425 351 c 1,22,23
EndSplineSet
Validated: 1
Substitution2: "'c2sc' Versalien in Kapit+AOQA-lchen in Lateinisch Nachschlagetabelle 0 Subtabelle" uni0280
EndChar

StartChar: S
Encoding: 83 83 68
Width: 521
Flags: W
LayerCount: 2
Fore
SplineSet
60 -36 m 0,0,1
 53 -36 53 -36 51 -23.5 c 128,-1,2
 49 -11 49 -11 49 6 c 256,3,4
 49 23 49 23 50.5 41 c 128,-1,5
 52 59 52 59 52 70 c 0,6,7
 52 96 52 96 52.5 117 c 128,-1,8
 53 138 53 138 55 164 c 0,9,10
 56 173 56 173 59.5 176 c 128,-1,11
 63 179 63 179 67 179 c 256,12,13
 71 179 71 179 74.5 178 c 128,-1,14
 78 177 78 177 81 177 c 0,15,16
 88 177 88 177 92 168.5 c 128,-1,17
 96 160 96 160 99 147.5 c 128,-1,18
 102 135 102 135 105.5 121 c 128,-1,19
 109 107 109 107 114 97 c 0,20,21
 132 58 132 58 170 36.5 c 128,-1,22
 208 15 208 15 249 15 c 0,23,24
 279 15 279 15 304.5 24.5 c 128,-1,25
 330 34 330 34 349 52 c 128,-1,26
 368 70 368 70 378.5 95 c 128,-1,27
 389 120 389 120 389 152 c 0,28,29
 389 199 389 199 363.5 231 c 128,-1,30
 338 263 338 263 300 288 c 128,-1,31
 262 313 262 313 217.5 335 c 128,-1,32
 173 357 173 357 135 384.5 c 128,-1,33
 97 412 97 412 71.5 448.5 c 128,-1,34
 46 485 46 485 46 539 c 0,35,36
 46 587 46 587 63.5 624.5 c 128,-1,37
 81 662 81 662 111 687.5 c 128,-1,38
 141 713 141 713 181.5 726.5 c 128,-1,39
 222 740 222 740 267 740 c 0,40,41
 288 740 288 740 314 729 c 128,-1,42
 340 718 340 718 358 707 c 0,43,44
 369 701 369 701 374.5 706.5 c 128,-1,45
 380 712 380 712 385 722 c 128,-1,46
 390 732 390 732 397.5 741 c 128,-1,47
 405 750 405 750 420 750 c 0,48,49
 427 750 427 750 429 740 c 128,-1,50
 431 730 431 730 431 716 c 256,51,52
 431 702 431 702 429.5 687 c 128,-1,53
 428 672 428 672 428 661 c 0,54,55
 429 609 429 609 425 557 c 0,56,57
 423 548 423 548 420 545 c 128,-1,58
 417 542 417 542 413 542 c 256,59,60
 409 542 409 542 405 543 c 128,-1,61
 401 544 401 544 398 544 c 0,62,63
 392 544 392 544 388 553 c 128,-1,64
 384 562 384 562 381 574.5 c 128,-1,65
 378 587 378 587 375 600.5 c 128,-1,66
 372 614 372 614 366 624 c 0,67,68
 350 662 350 662 319 683 c 128,-1,69
 288 704 288 704 256 704 c 0,70,71
 230 704 230 704 206.5 696 c 128,-1,72
 183 688 183 688 165.5 673 c 128,-1,73
 148 658 148 658 138 636 c 128,-1,74
 128 614 128 614 128 587 c 0,75,76
 128 545 128 545 155.5 513.5 c 128,-1,77
 183 482 183 482 223 457.5 c 128,-1,78
 263 433 263 433 307.5 412 c 128,-1,79
 352 391 352 391 386 369 c 0,80,81
 428 341 428 341 451.5 296 c 128,-1,82
 475 251 475 251 476 200 c 0,83,84
 476 145 476 145 458.5 103.5 c 128,-1,85
 441 62 441 62 409.5 34 c 128,-1,86
 378 6 378 6 334.5 -8.5 c 128,-1,87
 291 -23 291 -23 239 -24 c 0,88,89
 220 -24 220 -24 203.5 -19 c 128,-1,90
 187 -14 187 -14 172.5 -8.5 c 128,-1,91
 158 -3 158 -3 145.5 2 c 128,-1,92
 133 7 133 7 122 7 c 0,93,94
 110 7 110 7 104.5 0.5 c 128,-1,95
 99 -6 99 -6 94 -14.5 c 128,-1,96
 89 -23 89 -23 82 -29.5 c 128,-1,97
 75 -36 75 -36 60 -36 c 0,0,1
EndSplineSet
Validated: 33
Substitution2: "'c2sc' Versalien in Kapit+AOQA-lchen in Lateinisch Nachschlagetabelle 0 Subtabelle" uniA731
EndChar

StartChar: T
Encoding: 84 84 69
Width: 706
Flags: W
HStem: -8 32<190.281 278.607 437.252 534.957> 670 41.5<105.927 307.933 417.641 614.156>
VStem: 310 96.5<46.889 665.91>
LayerCount: 2
Fore
SplineSet
691 723 m 0,0,1
 684 704 684 704 681.5 672.5 c 128,-1,2
 679 641 679 641 675.5 611 c 128,-1,3
 672 581 672 581 665.5 559 c 128,-1,4
 659 537 659 537 644 537 c 0,5,6
 632 537 632 537 630 546.5 c 128,-1,7
 628 556 628 556 629.5 570.5 c 128,-1,8
 631 585 631 585 632 602 c 128,-1,9
 633 619 633 619 627 634 c 0,10,11
 622 646 622 646 607.5 653.5 c 128,-1,12
 593 661 593 661 573 664.5 c 128,-1,13
 553 668 553 668 530.5 669.5 c 128,-1,14
 508 671 508 671 488 671 c 0,15,16
 473 671 473 671 461 670.5 c 128,-1,17
 449 670 449 670 441 670 c 0,18,19
 434 670 434 670 428 670.5 c 128,-1,20
 422 671 422 671 417.5 666.5 c 128,-1,21
 413 662 413 662 410.5 650.5 c 128,-1,22
 408 639 408 639 408 616 c 2,23,-1
 406 494 l 2,24,25
 404 406 404 406 406.5 318 c 128,-1,26
 409 230 409 230 407 142 c 0,27,28
 407 126 407 126 407.5 110 c 128,-1,29
 408 94 408 94 411 78 c 0,30,31
 416 50 416 50 436 40.5 c 128,-1,32
 456 31 456 31 478 28.5 c 128,-1,33
 500 26 500 26 517.5 24 c 128,-1,34
 535 22 535 22 535 10 c 0,35,36
 535 -6 535 -6 528 -7 c 128,-1,37
 521 -8 521 -8 508 -8 c 0,38,39
 468 -8 468 -8 428.5 -5.5 c 128,-1,40
 389 -3 389 -3 349 -3 c 0,41,42
 313 -3 313 -3 277.5 -5.5 c 128,-1,43
 242 -8 242 -8 206 -8 c 0,44,45
 198 -8 198 -8 189.5 -7 c 128,-1,46
 181 -6 181 -6 181 5 c 0,47,48
 181 17 181 17 190 20.5 c 128,-1,49
 199 24 199 24 209 24 c 0,50,51
 218 24 218 24 222 25 c 0,52,53
 251 28 251 28 268.5 35 c 128,-1,54
 286 42 286 42 295 54.5 c 128,-1,55
 304 67 304 67 307 86 c 128,-1,56
 310 105 310 105 310 133 c 2,57,-1
 310 617 l 2,58,59
 310 622 310 622 309.5 635.5 c 128,-1,60
 309 649 309 649 308 654 c 0,61,62
 306 663 306 663 285 666.5 c 128,-1,63
 264 670 264 670 240 670 c 2,64,-1
 178 670 l 2,65,66
 155 670 155 670 133.5 663.5 c 128,-1,67
 112 657 112 657 92 638 c 0,68,69
 87 633 87 633 79 617 c 128,-1,70
 71 601 71 601 62 583.5 c 128,-1,71
 53 566 53 566 44.5 552 c 128,-1,72
 36 538 36 538 32 538 c 0,73,74
 22 538 22 538 17 542 c 128,-1,75
 12 546 12 546 12 557 c 0,76,77
 12 574 12 574 20 602.5 c 128,-1,78
 28 631 28 631 33 683 c 0,79,80
 34 694 34 694 35 706.5 c 128,-1,81
 36 719 36 719 39.5 729 c 128,-1,82
 43 739 43 739 50 745.5 c 128,-1,83
 57 752 57 752 70 752 c 0,84,85
 75 752 75 752 78.5 747 c 128,-1,86
 82 742 82 742 87 735.5 c 128,-1,87
 92 729 92 729 100.5 723 c 128,-1,88
 109 717 109 717 124 716 c 0,89,90
 184 713 184 713 247 711.5 c 128,-1,91
 310 710 310 710 370 710 c 0,92,93
 418 710 418 710 462.5 711 c 128,-1,94
 507 712 507 712 555 712 c 0,95,96
 570 712 570 712 585.5 712.5 c 128,-1,97
 601 713 601 713 616 715 c 0,98,99
 628 717 628 717 636 724 c 128,-1,100
 644 731 644 731 650 739 c 128,-1,101
 656 747 656 747 660 753.5 c 128,-1,102
 664 760 664 760 669 760 c 0,103,104
 686 760 686 760 690.5 747 c 128,-1,105
 695 734 695 734 691 723 c 0,0,1
EndSplineSet
Validated: 33
Substitution2: "'c2sc' Versalien in Kapit+AOQA-lchen in Lateinisch Nachschlagetabelle 0 Subtabelle" uni1D1B
EndChar

StartChar: U
Encoding: 85 85 70
Width: 812
Flags: W
LayerCount: 2
Fore
SplineSet
795 707 m 0,0,1
 795 696 795 696 783 690 c 128,-1,2
 771 684 771 684 755 680.5 c 128,-1,3
 739 677 739 677 724.5 675 c 128,-1,4
 710 673 710 673 705 670 c 0,5,6
 698 666 698 666 695 638.5 c 128,-1,7
 692 611 692 611 691.5 574 c 128,-1,8
 691 537 691 537 691.5 497 c 128,-1,9
 692 457 692 457 692 427 c 0,10,11
 692 400 692 400 692.5 373 c 128,-1,12
 693 346 693 346 693 319 c 0,13,14
 693 275 693 275 690.5 227 c 128,-1,15
 688 179 688 179 675 135.5 c 128,-1,16
 662 92 662 92 636 57 c 128,-1,17
 610 22 610 22 562 3 c 0,18,19
 520 -13 520 -13 475 -19.5 c 128,-1,20
 430 -26 430 -26 387 -26 c 0,21,22
 336 -26 336 -26 290 -16.5 c 128,-1,23
 244 -7 244 -7 208 16 c 128,-1,24
 172 39 172 39 149 77 c 128,-1,25
 126 115 126 115 120 173 c 0,26,27
 119 182 119 182 118.5 191 c 128,-1,28
 118 200 118 200 118 209 c 2,29,-1
 118 246 l 2,30,31
 118 331 118 331 120 414 c 128,-1,32
 122 497 122 497 122 582 c 0,33,34
 122 596 122 596 121.5 614 c 128,-1,35
 121 632 121 632 116.5 647.5 c 128,-1,36
 112 663 112 663 101.5 674 c 128,-1,37
 91 685 91 685 71 685 c 2,38,-1
 60 685 l 2,39,40
 55 685 55 685 47.5 685.5 c 128,-1,41
 40 686 40 686 32.5 687.5 c 128,-1,42
 25 689 25 689 19.5 693 c 128,-1,43
 14 697 14 697 14 704 c 0,44,45
 14 723 14 723 34 723 c 0,46,47
 66 723 66 723 97.5 720 c 128,-1,48
 129 717 129 717 161 717 c 0,49,50
 196 717 196 717 229.5 720 c 128,-1,51
 263 723 263 723 298 723 c 0,52,53
 306 723 306 723 318 721 c 128,-1,54
 330 719 330 719 330 708 c 0,55,56
 330 694 330 694 316.5 690 c 128,-1,57
 303 686 303 686 286 683 c 128,-1,58
 269 680 269 680 252.5 675 c 128,-1,59
 236 670 236 670 229 654 c 0,60,61
 226 647 226 647 224 634 c 128,-1,62
 222 621 222 621 220.5 605 c 128,-1,63
 219 589 219 589 218.5 572 c 128,-1,64
 218 555 218 555 218 540 c 2,65,-1
 218 356 l 2,66,67
 218 325 218 325 218.5 294 c 128,-1,68
 219 263 219 263 221 232 c 0,69,70
 225 170 225 170 240.5 130 c 128,-1,71
 256 90 256 90 281.5 67 c 128,-1,72
 307 44 307 44 342 35 c 128,-1,73
 377 26 377 26 420 26 c 0,74,75
 471 26 471 26 507.5 35.5 c 128,-1,76
 544 45 544 45 569.5 67 c 128,-1,77
 595 89 595 89 611 123.5 c 128,-1,78
 627 158 627 158 636 209 c 0,79,80
 642 237 642 237 642 267 c 2,81,-1
 642 481 l 2,82,83
 642 504 642 504 643 533 c 128,-1,84
 644 562 644 562 644 589 c 256,85,86
 644 616 644 616 641 637.5 c 128,-1,87
 638 659 638 659 629 667 c 256,88,89
 620 675 620 675 606 677 c 128,-1,90
 592 679 592 679 578.5 681.5 c 128,-1,91
 565 684 565 684 555.5 689.5 c 128,-1,92
 546 695 546 695 546 709 c 0,93,94
 546 719 546 719 553 721 c 128,-1,95
 560 723 560 723 568 723 c 0,96,97
 594 723 594 723 620.5 721 c 128,-1,98
 647 719 647 719 673 719 c 0,99,100
 700 719 700 719 727 720.5 c 128,-1,101
 754 722 754 722 781 722 c 1,102,103
 795 717 795 717 795 707 c 0,0,1
EndSplineSet
Validated: 33
Substitution2: "'c2sc' Versalien in Kapit+AOQA-lchen in Lateinisch Nachschlagetabelle 0 Subtabelle" uni1D1C
EndChar

StartChar: V
Encoding: 86 86 71
Width: 768
Flags: W
LayerCount: 2
Fore
SplineSet
758 706 m 0,0,1
 758 693 758 693 749.5 689 c 128,-1,2
 741 685 741 685 729 683 c 128,-1,3
 717 681 717 681 704 676.5 c 128,-1,4
 691 672 691 672 682 659 c 0,5,6
 679 654 679 654 673.5 641 c 128,-1,7
 668 628 668 628 661.5 613 c 128,-1,8
 655 598 655 598 649.5 583.5 c 128,-1,9
 644 569 644 569 641 562 c 0,10,11
 620 508 620 508 597.5 455.5 c 128,-1,12
 575 403 575 403 553 349 c 0,13,14
 516 258 516 258 481 168 c 128,-1,15
 446 78 446 78 409 -13 c 0,16,17
 407 -19 407 -19 404.5 -22.5 c 128,-1,18
 402 -26 402 -26 394 -26 c 0,19,20
 387 -26 387 -26 383 -20.5 c 128,-1,21
 379 -15 379 -15 377 -10 c 0,22,23
 354 47 354 47 330 106 c 128,-1,24
 306 165 306 165 283 222 c 0,25,26
 241 330 241 330 200 437.5 c 128,-1,27
 159 545 159 545 108 651 c 0,28,29
 99 670 99 670 82.5 676 c 128,-1,30
 66 682 66 682 50 685 c 128,-1,31
 34 688 34 688 22 691.5 c 128,-1,32
 10 695 10 695 10 708 c 0,33,34
 10 717 10 717 20.5 720.5 c 128,-1,35
 31 724 31 724 41 724 c 2,36,-1
 52 724 l 2,37,38
 76 724 76 724 100 721 c 128,-1,39
 124 718 124 718 148 718 c 0,40,41
 183 718 183 718 217.5 721 c 128,-1,42
 252 724 252 724 287 724 c 0,43,44
 296 724 296 724 303 718 c 128,-1,45
 310 712 310 712 310 703 c 0,46,47
 310 692 310 692 296 690 c 128,-1,48
 282 688 282 688 264.5 687 c 128,-1,49
 247 686 247 686 233 681.5 c 128,-1,50
 219 677 219 677 219 661 c 0,51,52
 219 658 219 658 220 654.5 c 128,-1,53
 221 651 221 651 222 648 c 0,54,55
 227 633 227 633 242 592.5 c 128,-1,56
 257 552 257 552 277 500 c 128,-1,57
 297 448 297 448 319.5 390.5 c 128,-1,58
 342 333 342 333 362 284 c 128,-1,59
 382 235 382 235 397 201 c 128,-1,60
 412 167 412 167 418 162 c 0,61,62
 421 159 421 159 425 162.5 c 128,-1,63
 429 166 429 166 432.5 171.5 c 128,-1,64
 436 177 436 177 438.5 182.5 c 128,-1,65
 441 188 441 188 442 190 c 0,66,67
 448 204 448 204 462.5 241.5 c 128,-1,68
 477 279 477 279 495.5 327 c 128,-1,69
 514 375 514 375 533.5 428.5 c 128,-1,70
 553 482 553 482 569.5 528 c 128,-1,71
 586 574 586 574 596.5 606.5 c 128,-1,72
 607 639 607 639 607 646 c 0,73,74
 607 667 607 667 591 673 c 128,-1,75
 575 679 575 679 555.5 681 c 128,-1,76
 536 683 536 683 520 686.5 c 128,-1,77
 504 690 504 690 504 705 c 0,78,79
 504 713 504 713 510 718.5 c 128,-1,80
 516 724 516 724 524 724 c 0,81,82
 556 724 556 724 589 720.5 c 128,-1,83
 622 717 622 717 654 717 c 0,84,85
 677 717 677 717 699 719.5 c 128,-1,86
 721 722 721 722 744 722 c 0,87,88
 751 722 751 722 754.5 717 c 128,-1,89
 758 712 758 712 758 706 c 0,0,1
EndSplineSet
Validated: 1
Substitution2: "'c2sc' Versalien in Kapit+AOQA-lchen in Lateinisch Nachschlagetabelle 0 Subtabelle" uni1D20
EndChar

StartChar: W
Encoding: 87 87 72
Width: 1096
Flags: W
LayerCount: 2
Fore
SplineSet
553 372 m 1,0,1
 526 444 526 444 497.5 513 c 128,-1,2
 469 582 469 582 436 651 c 0,3,4
 427 670 427 670 410.5 676 c 128,-1,5
 394 682 394 682 378 685 c 128,-1,6
 362 688 362 688 350 691.5 c 128,-1,7
 338 695 338 695 338 708 c 0,8,9
 338 717 338 717 348.5 720.5 c 128,-1,10
 359 724 359 724 369 724 c 2,11,-1
 380 724 l 2,12,13
 404 724 404 724 428 721 c 128,-1,14
 452 718 452 718 476 718 c 0,15,16
 511 718 511 718 545.5 721 c 128,-1,17
 580 724 580 724 615 724 c 0,18,19
 624 724 624 724 631 718 c 128,-1,20
 638 712 638 712 638 703 c 0,21,22
 638 692 638 692 624 690 c 128,-1,23
 610 688 610 688 592.5 687 c 128,-1,24
 575 686 575 686 561 681.5 c 128,-1,25
 547 677 547 677 547 661 c 0,26,27
 547 658 547 658 548 654.5 c 128,-1,28
 549 651 549 651 550 648 c 0,29,30
 555 633 555 633 570 592.5 c 128,-1,31
 585 552 585 552 605 500 c 128,-1,32
 625 448 625 448 647.5 390.5 c 128,-1,33
 670 333 670 333 690 284 c 128,-1,34
 710 235 710 235 725 201 c 128,-1,35
 740 167 740 167 746 162 c 0,36,37
 749 159 749 159 753 162.5 c 128,-1,38
 757 166 757 166 760.5 171.5 c 128,-1,39
 764 177 764 177 766.5 182.5 c 128,-1,40
 769 188 769 188 770 190 c 0,41,42
 776 204 776 204 790.5 241.5 c 128,-1,43
 805 279 805 279 823.5 327 c 128,-1,44
 842 375 842 375 861.5 428.5 c 128,-1,45
 881 482 881 482 897.5 528 c 128,-1,46
 914 574 914 574 924.5 606.5 c 128,-1,47
 935 639 935 639 935 646 c 0,48,49
 935 667 935 667 919 673 c 128,-1,50
 903 679 903 679 883.5 681 c 128,-1,51
 864 683 864 683 848 686.5 c 128,-1,52
 832 690 832 690 832 705 c 0,53,54
 832 713 832 713 838 718.5 c 128,-1,55
 844 724 844 724 852 724 c 0,56,57
 884 724 884 724 917 720.5 c 128,-1,58
 950 717 950 717 982 717 c 0,59,60
 1005 717 1005 717 1027 719.5 c 128,-1,61
 1049 722 1049 722 1072 722 c 0,62,63
 1079 722 1079 722 1082.5 717 c 128,-1,64
 1086 712 1086 712 1086 706 c 0,65,66
 1086 693 1086 693 1077.5 689 c 128,-1,67
 1069 685 1069 685 1057 683 c 128,-1,68
 1045 681 1045 681 1032 676.5 c 128,-1,69
 1019 672 1019 672 1010 659 c 0,70,71
 1007 654 1007 654 1001.5 641 c 128,-1,72
 996 628 996 628 989.5 613 c 128,-1,73
 983 598 983 598 977.5 583.5 c 128,-1,74
 972 569 972 569 969 562 c 0,75,76
 948 508 948 508 925.5 455.5 c 128,-1,77
 903 403 903 403 881 349 c 0,78,79
 844 258 844 258 809 168 c 128,-1,80
 774 78 774 78 737 -13 c 0,81,82
 735 -19 735 -19 732.5 -22.5 c 128,-1,83
 730 -26 730 -26 722 -26 c 0,84,85
 715 -26 715 -26 711 -20.5 c 128,-1,86
 707 -15 707 -15 705 -10 c 0,87,88
 682 47 682 47 658 106 c 128,-1,89
 634 165 634 165 611 222 c 2,90,-1
 578 306 l 1,91,-1
 560 272 l 2,92,93
 554 264 554 264 539 234.5 c 128,-1,94
 524 205 524 205 507.5 169.5 c 128,-1,95
 491 134 491 134 475.5 101 c 128,-1,96
 460 68 460 68 454 54 c 0,97,98
 449 43 449 43 443 29.5 c 128,-1,99
 437 16 437 16 430 4 c 128,-1,100
 423 -8 423 -8 415 -16.5 c 128,-1,101
 407 -25 407 -25 400 -25 c 0,102,103
 387 -25 387 -25 382.5 -15 c 128,-1,104
 378 -5 378 -5 374 5 c 0,105,106
 305 164 305 164 239 318 c 128,-1,107
 173 472 173 472 101 629 c 0,108,109
 87 660 87 660 71 669.5 c 128,-1,110
 55 679 55 679 41.5 681.5 c 128,-1,111
 28 684 28 684 19 688 c 128,-1,112
 10 692 10 692 10 712 c 0,113,114
 10 718 10 718 15 720 c 128,-1,115
 20 722 20 722 27 723 c 128,-1,116
 34 724 34 724 40 723.5 c 128,-1,117
 46 723 46 723 48 723 c 0,118,119
 70 723 70 723 91.5 720.5 c 128,-1,120
 113 718 113 718 135 718 c 0,121,122
 161 718 161 718 187.5 720.5 c 128,-1,123
 214 723 214 723 240 723 c 0,124,125
 248 723 248 723 254 719 c 128,-1,126
 260 715 260 715 260 706 c 0,127,128
 260 695 260 695 250.5 692.5 c 128,-1,129
 241 690 241 690 229 688.5 c 128,-1,130
 217 687 217 687 207.5 683.5 c 128,-1,131
 198 680 198 680 198 667 c 0,132,133
 198 660 198 660 210 627.5 c 128,-1,134
 222 595 222 595 241 549.5 c 128,-1,135
 260 504 260 504 283 451.5 c 128,-1,136
 306 399 306 399 327 351.5 c 128,-1,137
 348 304 348 304 365 267 c 128,-1,138
 382 230 382 230 389 215 c 0,139,140
 393 205 393 205 401 187 c 128,-1,141
 409 169 409 169 417.5 152.5 c 128,-1,142
 426 136 426 136 433.5 126 c 128,-1,143
 441 116 441 116 444 123 c 2,144,-1
 553 372 l 1,0,1
EndSplineSet
Validated: 1
Substitution2: "'c2sc' Versalien in Kapit+AOQA-lchen in Lateinisch Nachschlagetabelle 0 Subtabelle" uni1D21
EndChar

StartChar: X
Encoding: 88 88 73
Width: 780
Flags: W
LayerCount: 2
Fore
SplineSet
760 13 m 0,0,1
 760 -6 760 -6 751.5 -7.5 c 128,-1,2
 743 -9 743 -9 728 -9 c 256,3,4
 713 -9 713 -9 702 -8 c 128,-1,5
 691 -7 691 -7 681 -6 c 128,-1,6
 671 -5 671 -5 660 -4 c 128,-1,7
 649 -3 649 -3 634 -3 c 0,8,9
 589 -3 589 -3 547.5 -5 c 128,-1,10
 506 -7 506 -7 461 -7 c 0,11,12
 450 -7 450 -7 446 2 c 128,-1,13
 442 11 442 11 447 21 c 1,14,15
 455 26 455 26 471 27 c 128,-1,16
 487 28 487 28 502.5 29.5 c 128,-1,17
 518 31 518 31 530 36 c 128,-1,18
 542 41 542 41 542 54 c 0,19,20
 542 60 542 60 539 65.5 c 128,-1,21
 536 71 536 71 533 76 c 0,22,23
 528 83 528 83 515.5 101.5 c 128,-1,24
 503 120 503 120 486.5 144.5 c 128,-1,25
 470 169 470 169 451 195.5 c 128,-1,26
 432 222 432 222 415 244.5 c 128,-1,27
 398 267 398 267 384.5 283 c 128,-1,28
 371 299 371 299 366 301 c 1,29,30
 355 295 355 295 348.5 285.5 c 128,-1,31
 342 276 342 276 335 267 c 0,32,33
 328 259 328 259 316 242 c 128,-1,34
 304 225 304 225 289.5 204.5 c 128,-1,35
 275 184 275 184 260 161.5 c 128,-1,36
 245 139 245 139 232.5 118.5 c 128,-1,37
 220 98 220 98 212 82 c 128,-1,38
 204 66 204 66 204 58 c 0,39,40
 204 42 204 42 219.5 37 c 128,-1,41
 235 32 235 32 254 29.5 c 128,-1,42
 273 27 273 27 288.5 23 c 128,-1,43
 304 19 304 19 304 4 c 0,44,45
 304 -2 304 -2 296 -4.5 c 128,-1,46
 288 -7 288 -7 280 -7 c 2,47,-1
 272 -7 l 2,48,49
 249 -7 249 -7 227.5 -4.5 c 128,-1,50
 206 -2 206 -2 183 -2 c 0,51,52
 163 -2 163 -2 146.5 -3 c 128,-1,53
 130 -4 130 -4 114.5 -4.5 c 128,-1,54
 99 -5 99 -5 83 -6 c 128,-1,55
 67 -7 67 -7 46 -7 c 0,56,57
 38 -7 38 -7 29 -4 c 128,-1,58
 20 -1 20 -1 20 10 c 0,59,60
 20 20 20 20 26 24 c 128,-1,61
 32 28 32 28 42.5 29.5 c 128,-1,62
 53 31 53 31 66 33 c 128,-1,63
 79 35 79 35 94 43 c 0,64,65
 114 54 114 54 132 73 c 128,-1,66
 150 92 150 92 167 114 c 128,-1,67
 184 136 184 136 200 159 c 128,-1,68
 216 182 216 182 232 201 c 0,69,70
 243 214 243 214 261 234 c 128,-1,71
 279 254 279 254 296.5 275 c 128,-1,72
 314 296 314 296 327 314.5 c 128,-1,73
 340 333 340 333 340 342 c 1,74,75
 329 364 329 364 313 383.5 c 128,-1,76
 297 403 297 403 283 423 c 0,77,78
 247 474 247 474 210.5 522.5 c 128,-1,79
 174 571 174 571 136 620 c 0,80,81
 126 632 126 632 117 644.5 c 128,-1,82
 108 657 108 657 97 668 c 0,83,84
 85 680 85 680 71.5 683.5 c 128,-1,85
 58 687 58 687 47.5 688 c 128,-1,86
 37 689 37 689 30 692 c 128,-1,87
 23 695 23 695 23 707 c 0,88,89
 23 718 23 718 34.5 721.5 c 128,-1,90
 46 725 46 725 54 725 c 0,91,92
 74 725 74 725 91.5 724 c 128,-1,93
 109 723 109 723 125.5 721.5 c 128,-1,94
 142 720 142 720 159.5 719 c 128,-1,95
 177 718 177 718 197 718 c 0,96,97
 223 718 223 718 249.5 721.5 c 128,-1,98
 276 725 276 725 302 725 c 2,99,-1
 312 725 l 2,100,101
 322 725 322 725 330.5 721.5 c 128,-1,102
 339 718 339 718 339 709 c 0,103,104
 339 694 339 694 323.5 690.5 c 128,-1,105
 308 687 308 687 289 686 c 128,-1,106
 270 685 270 685 254.5 682 c 128,-1,107
 239 679 239 679 239 666 c 0,108,109
 239 660 239 660 254 635.5 c 128,-1,110
 269 611 269 611 289 582 c 128,-1,111
 309 553 309 553 329.5 524.5 c 128,-1,112
 350 496 350 496 361 481 c 0,113,114
 364 478 364 478 370 469.5 c 128,-1,115
 376 461 376 461 382.5 451.5 c 128,-1,116
 389 442 389 442 395 435 c 128,-1,117
 401 428 401 428 405 428 c 0,118,119
 410 428 410 428 421.5 440.5 c 128,-1,120
 433 453 433 453 447 472 c 128,-1,121
 461 491 461 491 476.5 514 c 128,-1,122
 492 537 492 537 505.5 558.5 c 128,-1,123
 519 580 519 580 530 597 c 128,-1,124
 541 614 541 614 546 621 c 0,125,126
 551 627 551 627 557.5 640 c 128,-1,127
 564 653 564 653 564 660 c 0,128,129
 564 676 564 676 550.5 681.5 c 128,-1,130
 537 687 537 687 521.5 689.5 c 128,-1,131
 506 692 506 692 492.5 694.5 c 128,-1,132
 479 697 479 697 479 707 c 0,133,134
 479 720 479 720 491.5 722 c 128,-1,135
 504 724 504 724 513 724 c 0,136,137
 544 724 544 724 574 721 c 128,-1,138
 604 718 604 718 635 718 c 0,139,140
 659 718 659 718 680.5 720.5 c 128,-1,141
 702 723 702 723 727 723 c 0,142,143
 735 723 735 723 746.5 722 c 128,-1,144
 758 721 758 721 758 710 c 0,145,146
 758 704 758 704 753.5 700 c 128,-1,147
 749 696 749 696 744 694 c 0,148,149
 728 688 728 688 714 685.5 c 128,-1,150
 700 683 700 683 687 679 c 128,-1,151
 674 675 674 675 661 667.5 c 128,-1,152
 648 660 648 660 635 646 c 0,153,154
 583 589 583 589 536 527.5 c 128,-1,155
 489 466 489 466 444 405 c 0,156,157
 436 396 436 396 435 386 c 1,158,159
 440 371 440 371 449 358 c 128,-1,160
 458 345 458 345 467 332 c 0,161,162
 515 266 515 266 561.5 202 c 128,-1,163
 608 138 608 138 657 75 c 0,164,165
 664 66 664 66 671.5 58 c 128,-1,166
 679 50 679 50 689 44 c 0,167,168
 700 36 700 36 712.5 32.5 c 128,-1,169
 725 29 725 29 735.5 26.5 c 128,-1,170
 746 24 746 24 753 21.5 c 128,-1,171
 760 19 760 19 760 13 c 0,0,1
EndSplineSet
Validated: 1
Substitution2: "'c2sc' Versalien in Kapit+AOQA-lchen in Lateinisch Nachschlagetabelle 0 Subtabelle" x.sc
EndChar

StartChar: Y
Encoding: 89 89 74
Width: 783
Flags: W
LayerCount: 2
Fore
SplineSet
32 724 m 0,0,1
 60 724 60 724 87 720 c 128,-1,2
 114 716 114 716 142 716 c 0,3,4
 180 716 180 716 218.5 719.5 c 128,-1,5
 257 723 257 723 296 723 c 0,6,7
 301 723 301 723 308.5 718 c 128,-1,8
 316 713 316 713 316 708 c 0,9,10
 316 693 316 693 302 690.5 c 128,-1,11
 288 688 288 688 271.5 687.5 c 128,-1,12
 255 687 255 687 241 684.5 c 128,-1,13
 227 682 227 682 227 668 c 0,14,15
 227 657 227 657 236.5 640 c 128,-1,16
 246 623 246 623 258.5 604.5 c 128,-1,17
 271 586 271 586 284.5 568.5 c 128,-1,18
 298 551 298 551 307 539 c 0,19,20
 331 504 331 504 355 469.5 c 128,-1,21
 379 435 379 435 405 403 c 0,22,23
 408 399 408 399 410.5 395.5 c 128,-1,24
 413 392 413 392 418 390 c 0,25,26
 421 391 421 391 424.5 394 c 128,-1,27
 428 397 428 397 430 399 c 0,28,29
 436 405 436 405 451.5 425.5 c 128,-1,30
 467 446 467 446 487.5 473.5 c 128,-1,31
 508 501 508 501 530 532.5 c 128,-1,32
 552 564 552 564 570.5 591 c 128,-1,33
 589 618 589 618 601 637 c 128,-1,34
 613 656 613 656 613 660 c 0,35,36
 613 677 613 677 599 681.5 c 128,-1,37
 585 686 585 686 568.5 687 c 128,-1,38
 552 688 552 688 538 690.5 c 128,-1,39
 524 693 524 693 524 707 c 0,40,41
 524 719 524 719 529.5 720.5 c 128,-1,42
 535 722 535 722 545 722 c 0,43,44
 568 722 568 722 591 719 c 128,-1,45
 614 716 614 716 637 716 c 0,46,47
 663 716 663 716 688.5 719.5 c 128,-1,48
 714 723 714 723 740 723 c 0,49,50
 754 723 754 723 765.5 718 c 128,-1,51
 777 713 777 713 771 700 c 0,52,53
 767 692 767 692 757 689.5 c 128,-1,54
 747 687 747 687 735 685 c 128,-1,55
 723 683 723 683 710 678 c 128,-1,56
 697 673 697 673 686 660 c 0,57,58
 649 617 649 617 614.5 572 c 128,-1,59
 580 527 580 527 545 482 c 0,60,61
 529 462 529 462 509.5 439.5 c 128,-1,62
 490 417 490 417 472.5 393.5 c 128,-1,63
 455 370 455 370 443.5 346 c 128,-1,64
 432 322 432 322 432 300 c 2,65,-1
 432 101 l 2,66,67
 432 74 432 74 440 59.5 c 128,-1,68
 448 45 448 45 460 39 c 128,-1,69
 472 33 472 33 486.5 32 c 128,-1,70
 501 31 501 31 514.5 30.5 c 128,-1,71
 528 30 528 30 538 27.5 c 128,-1,72
 548 25 548 25 552 15 c 0,73,74
 552 6 552 6 548 -1 c 128,-1,75
 544 -8 544 -8 533 -8 c 0,76,77
 494 -8 494 -8 454.5 -4.5 c 128,-1,78
 415 -1 415 -1 376 -1 c 0,79,80
 340 -1 340 -1 304.5 -4.5 c 128,-1,81
 269 -8 269 -8 233 -8 c 0,82,83
 230 -8 230 -8 226 -7 c 128,-1,84
 222 -6 222 -6 222 -1 c 0,85,86
 217 14 217 14 228 19.5 c 128,-1,87
 239 25 239 25 256.5 27.5 c 128,-1,88
 274 30 274 30 292.5 33 c 128,-1,89
 311 36 311 36 322 48 c 0,90,91
 327 54 327 54 330 67.5 c 128,-1,92
 333 81 333 81 334.5 98.5 c 128,-1,93
 336 116 336 116 336.5 136 c 128,-1,94
 337 156 337 156 337 174 c 2,95,-1
 337 262 l 2,96,97
 337 293 337 293 336 314 c 128,-1,98
 335 335 335 335 323 352 c 0,99,100
 269 430 269 430 215.5 504.5 c 128,-1,101
 162 579 162 579 108 657 c 0,102,103
 97 673 97 673 80 680 c 128,-1,104
 63 687 63 687 47.5 690.5 c 128,-1,105
 32 694 32 694 21 697.5 c 128,-1,106
 10 701 10 701 10 712 c 0,107,108
 10 722 10 722 17 723 c 128,-1,109
 24 724 24 724 32 724 c 0,0,1
EndSplineSet
Validated: 1
Substitution2: "'c2sc' Versalien in Kapit+AOQA-lchen in Lateinisch Nachschlagetabelle 0 Subtabelle" uni028F
EndChar

StartChar: Z
Encoding: 90 90 75
Width: 757
Flags: W
LayerCount: 2
Fore
SplineSet
90 732 m 0,0,1
 101 732 101 732 106 731 c 128,-1,2
 111 730 111 730 115 728.5 c 128,-1,3
 119 727 119 727 124.5 725 c 128,-1,4
 130 723 130 723 141 722 c 1,5,6
 150 716 150 716 168 714 c 128,-1,7
 186 712 186 712 202 712 c 2,8,-1
 221 712 l 2,9,10
 266 712 266 712 321 713 c 128,-1,11
 376 714 376 714 433.5 714.5 c 128,-1,12
 491 715 491 715 546.5 716 c 128,-1,13
 602 717 602 717 647 717 c 0,14,15
 657 717 657 717 672 719.5 c 128,-1,16
 687 722 687 722 699.5 723 c 128,-1,17
 712 724 712 724 720.5 720 c 128,-1,18
 729 716 729 716 726 704 c 0,19,20
 726 703 726 703 709 682.5 c 128,-1,21
 692 662 692 662 663.5 629 c 128,-1,22
 635 596 635 596 598.5 553.5 c 128,-1,23
 562 511 562 511 523.5 466 c 128,-1,24
 485 421 485 421 446.5 376.5 c 128,-1,25
 408 332 408 332 376.5 294.5 c 128,-1,26
 345 257 345 257 322.5 230.5 c 128,-1,27
 300 204 300 204 293 195 c 0,28,29
 285 184 285 184 268.5 164.5 c 128,-1,30
 252 145 252 145 234.5 123.5 c 128,-1,31
 217 102 217 102 203.5 82.5 c 128,-1,32
 190 63 190 63 188 51 c 0,33,34
 188 43 188 43 194.5 39 c 128,-1,35
 201 35 201 35 210 34 c 128,-1,36
 219 33 219 33 229 33.5 c 128,-1,37
 239 34 239 34 247 34 c 0,38,39
 292 34 292 34 344.5 34.5 c 128,-1,40
 397 35 397 35 442 35 c 0,41,42
 477 35 477 35 518 36.5 c 128,-1,43
 559 38 559 38 594 48 c 0,44,45
 619 58 619 58 632.5 75.5 c 128,-1,46
 646 93 646 93 660 116 c 0,47,48
 666 127 666 127 670 140.5 c 128,-1,49
 674 154 674 154 679.5 164 c 128,-1,50
 685 174 685 174 692.5 176.5 c 128,-1,51
 700 179 700 179 712 169 c 1,52,53
 715 152 715 152 715 137 c 0,54,55
 715 120 715 120 710.5 102.5 c 128,-1,56
 706 85 706 85 703 68 c 0,57,58
 701 56 701 56 699.5 42.5 c 128,-1,59
 698 29 698 29 694 17.5 c 128,-1,60
 690 6 690 6 682 -1 c 128,-1,61
 674 -8 674 -8 658 -8 c 0,62,63
 620 -8 620 -8 582 -6 c 128,-1,64
 544 -4 544 -4 506 -4 c 2,65,-1
 419 -4 l 2,66,67
 328 -4 328 -4 229.5 -7.5 c 128,-1,68
 131 -11 131 -11 40 -11 c 0,69,70
 24 -11 24 -11 24 4 c 0,71,72
 24 6 24 6 40.5 26.5 c 128,-1,73
 57 47 57 47 83.5 80.5 c 128,-1,74
 110 114 110 114 145 156.5 c 128,-1,75
 180 199 180 199 217 244 c 128,-1,76
 254 289 254 289 290.5 333.5 c 128,-1,77
 327 378 327 378 357.5 414.5 c 128,-1,78
 388 451 388 451 409.5 477.5 c 128,-1,79
 431 504 431 504 438 513 c 256,80,81
 445 522 445 522 464 543 c 128,-1,82
 483 564 483 564 503 586.5 c 128,-1,83
 523 609 523 609 540 629 c 128,-1,84
 557 649 557 649 560 656 c 0,85,86
 562 658 562 658 565 663.5 c 128,-1,87
 568 669 568 669 569 672 c 0,88,89
 570 676 570 676 562.5 677.5 c 128,-1,90
 555 679 555 679 544 679 c 0,91,92
 534 679 534 679 524 678.5 c 128,-1,93
 514 678 514 678 511 678 c 2,94,-1
 441 678 l 2,95,96
 412 678 412 678 381 677.5 c 128,-1,97
 350 677 350 677 319.5 676.5 c 128,-1,98
 289 676 289 676 260.5 675.5 c 128,-1,99
 232 675 232 675 210 674 c 0,100,101
 178 672 178 672 152 664 c 128,-1,102
 126 656 126 656 103 631 c 0,103,104
 95 623 95 623 88 611 c 128,-1,105
 81 599 81 599 74.5 587 c 128,-1,106
 68 575 68 575 61 566.5 c 128,-1,107
 54 558 54 558 48 558 c 0,108,109
 43 558 43 558 33.5 560.5 c 128,-1,110
 24 563 24 563 27 571 c 0,111,112
 33 597 33 597 41 623 c 128,-1,113
 49 649 49 649 57 675 c 0,114,115
 65 697 65 697 70.5 714.5 c 128,-1,116
 76 732 76 732 90 732 c 0,0,1
EndSplineSet
Validated: 1
Substitution2: "'c2sc' Versalien in Kapit+AOQA-lchen in Lateinisch Nachschlagetabelle 0 Subtabelle" uni1D22
EndChar

StartChar: bracketleft
Encoding: 91 91 76
Width: 333
Flags: W
LayerCount: 2
Fore
SplineSet
335 717 m 0,0,1
 335 700 335 700 320 690.5 c 128,-1,2
 305 681 305 681 285.5 676 c 128,-1,3
 266 671 266 671 246 669.5 c 128,-1,4
 226 668 226 668 216 668 c 0,5,6
 207 668 207 668 198.5 669 c 128,-1,7
 190 670 190 670 182 670 c 0,8,9
 168 670 168 670 158.5 663.5 c 128,-1,10
 149 657 149 657 149 643 c 0,11,12
 145 586 145 586 144.5 532 c 128,-1,13
 144 478 144 478 144 421 c 0,14,15
 144 288 144 288 143.5 159 c 128,-1,16
 143 30 143 30 145 -103 c 0,17,18
 145 -110 145 -110 147 -124 c 128,-1,19
 149 -138 149 -138 154 -143 c 0,20,21
 162 -151 162 -151 178.5 -150.5 c 128,-1,22
 195 -150 195 -150 206 -150 c 0,23,24
 216 -150 216 -150 237 -151.5 c 128,-1,25
 258 -153 258 -153 279.5 -158.5 c 128,-1,26
 301 -164 301 -164 316.5 -173.5 c 128,-1,27
 332 -183 332 -183 331 -198 c 0,28,29
 330 -205 330 -205 325 -207 c 128,-1,30
 320 -209 320 -209 315 -209 c 0,31,32
 303 -209 303 -209 291 -204 c 128,-1,33
 279 -199 279 -199 267 -197 c 0,34,35
 239 -192 239 -192 211 -191 c 128,-1,36
 183 -190 183 -190 155 -195 c 0,37,38
 138 -198 138 -198 122.5 -204.5 c 128,-1,39
 107 -211 107 -211 90 -211 c 0,40,41
 80 -211 80 -211 77.5 -205 c 128,-1,42
 75 -199 75 -199 75 -191 c 2,43,-1
 77 713 l 2,44,45
 77 717 77 717 77.5 721.5 c 128,-1,46
 78 726 78 726 83 728 c 0,47,48
 85 730 85 730 92 730 c 0,49,50
 114 730 114 730 135 724.5 c 128,-1,51
 156 719 156 719 178 716 c 0,52,53
 189 714 189 714 201 713 c 128,-1,54
 213 712 213 712 224 712 c 0,55,56
 261 712 261 712 296 721 c 0,57,58
 304 723 304 723 311.5 726 c 128,-1,59
 319 729 319 729 327 729 c 0,60,61
 331 729 331 729 333 725 c 128,-1,62
 335 721 335 721 335 717 c 0,0,1
EndSplineSet
Validated: 33
EndChar

StartChar: backslash
Encoding: 92 92 77
Width: 327
Flags: W
LayerCount: 2
Fore
SplineSet
305 -21 m 1,0,1
 220 175 220 175 135 367 c 128,-1,2
 50 559 50 559 -35 755 c 1,3,-1
 22 755 l 1,4,5
 107 559 107 559 191.5 367 c 128,-1,6
 276 175 276 175 363 -21 c 1,7,-1
 305 -21 l 1,0,1
EndSplineSet
Validated: 1
EndChar

StartChar: bracketright
Encoding: 93 93 78
Width: 323
Flags: W
LayerCount: 2
Fore
SplineSet
0 717 m 0,0,1
 0 721 0 721 2 725 c 128,-1,2
 4 729 4 729 8 729 c 0,3,4
 16 729 16 729 23.5 726 c 128,-1,5
 31 723 31 723 39 721 c 0,6,7
 73 712 73 712 111 712 c 0,8,9
 122 712 122 712 134 713 c 128,-1,10
 146 714 146 714 157 716 c 0,11,12
 179 719 179 719 200 724.5 c 128,-1,13
 221 730 221 730 243 730 c 0,14,15
 250 730 250 730 252 728 c 0,16,17
 257 726 257 726 257.5 721.5 c 128,-1,18
 258 717 258 717 258 713 c 2,19,-1
 260 -191 l 2,20,21
 260 -199 260 -199 257.5 -205 c 128,-1,22
 255 -211 255 -211 245 -211 c 0,23,24
 228 -211 228 -211 212.5 -204.5 c 128,-1,25
 197 -198 197 -198 180 -195 c 0,26,27
 152 -190 152 -190 124 -191 c 128,-1,28
 96 -192 96 -192 68 -197 c 0,29,30
 56 -199 56 -199 44 -204 c 128,-1,31
 32 -209 32 -209 20 -209 c 0,32,33
 15 -209 15 -209 10 -207 c 128,-1,34
 5 -205 5 -205 4 -198 c 0,35,36
 3 -183 3 -183 18.5 -173.5 c 128,-1,37
 34 -164 34 -164 55.5 -158.5 c 128,-1,38
 77 -153 77 -153 98 -151.5 c 128,-1,39
 119 -150 119 -150 129 -150 c 0,40,41
 140 -150 140 -150 156.5 -150.5 c 128,-1,42
 173 -151 173 -151 181 -143 c 0,43,44
 186 -138 186 -138 188 -124 c 128,-1,45
 190 -110 190 -110 190 -103 c 0,46,47
 192 30 192 30 191.5 159 c 128,-1,48
 191 288 191 288 191 421 c 0,49,50
 191 478 191 478 190.5 532 c 128,-1,51
 190 586 190 586 186 643 c 0,52,53
 186 657 186 657 176.5 663.5 c 128,-1,54
 167 670 167 670 153 670 c 0,55,56
 145 670 145 670 136.5 669 c 128,-1,57
 128 668 128 668 119 668 c 0,58,59
 109 668 109 668 89 669.5 c 128,-1,60
 69 671 69 671 49.5 676 c 128,-1,61
 30 681 30 681 15 690.5 c 128,-1,62
 0 700 0 700 0 717 c 0,0,1
EndSplineSet
Validated: 33
EndChar

StartChar: asciicircum
Encoding: 94 94 79
Width: 386
Flags: W
LayerCount: 2
Fore
SplineSet
25 490 m 0,0,1
 19 490 19 490 19 497 c 0,2,3
 19 500 19 500 31 515 c 128,-1,4
 43 530 43 530 61 551.5 c 128,-1,5
 79 573 79 573 100.5 597.5 c 128,-1,6
 122 622 122 622 141.5 643.5 c 128,-1,7
 161 665 161 665 175.5 680 c 128,-1,8
 190 695 190 695 194 698 c 0,9,10
 197 697 197 697 204 690 c 0,11,12
 234 657 234 657 262.5 622.5 c 128,-1,13
 291 588 291 588 322 556 c 0,14,15
 323 554 323 554 330.5 546 c 128,-1,16
 338 538 338 538 345.5 529 c 128,-1,17
 353 520 353 520 359.5 512.5 c 128,-1,18
 366 505 366 505 366 505 c 2,19,20
 368 499 368 499 368 497 c 0,21,22
 368 490 368 490 359 490 c 0,23,24
 351 490 351 490 328 506 c 128,-1,25
 305 522 305 522 278.5 542 c 128,-1,26
 252 562 252 562 228 581.5 c 128,-1,27
 204 601 204 601 194 608 c 1,28,29
 183 600 183 600 159 580.5 c 128,-1,30
 135 561 135 561 108.5 541 c 128,-1,31
 82 521 82 521 58.5 505.5 c 128,-1,32
 35 490 35 490 25 490 c 0,0,1
EndSplineSet
Validated: 1
EndChar

StartChar: underscore
Encoding: 95 95 80
Width: 604
Flags: W
LayerCount: 2
Fore
SplineSet
10 -139 m 1,0,-1
 10 -84 l 1,1,-1
 594 -84 l 1,2,-1
 594 -139 l 1,3,-1
 10 -139 l 1,0,-1
EndSplineSet
Validated: 1
EndChar

StartChar: grave
Encoding: 96 96 81
Width: 437
Flags: W
LayerCount: 2
Fore
SplineSet
146 697 m 0,0,1
 152 702 152 702 154.5 704 c 128,-1,2
 157 706 157 706 160 708 c 128,-1,3
 163 710 163 710 167.5 713 c 128,-1,4
 172 716 172 716 181 723 c 0,5,6
 186 731 186 731 193 727.5 c 128,-1,7
 200 724 200 724 202 719 c 0,8,9
 207 709 207 709 222.5 684.5 c 128,-1,10
 238 660 238 660 255 633.5 c 128,-1,11
 272 607 272 607 285.5 584 c 128,-1,12
 299 561 299 561 300 554 c 0,13,14
 303 544 303 544 295.5 539 c 128,-1,15
 288 534 288 534 279 543 c 0,16,17
 269 552 269 552 250 569.5 c 128,-1,18
 231 587 231 587 210.5 607 c 128,-1,19
 190 627 190 627 172 645 c 128,-1,20
 154 663 154 663 145 674 c 0,21,22
 139 681 139 681 138.5 685.5 c 128,-1,23
 138 690 138 690 146 697 c 0,0,1
EndSplineSet
Validated: 1
EndChar

StartChar: a
Encoding: 97 97 82
Width: 480
Flags: W
LayerCount: 2
Fore
SplineSet
292 181 m 1,0,1
 292 191 292 191 291.5 198.5 c 128,-1,2
 291 206 291 206 290 211 c 1,3,4
 281 209 281 209 269 205.5 c 128,-1,5
 257 202 257 202 244.5 197.5 c 128,-1,6
 232 193 232 193 220.5 188.5 c 128,-1,7
 209 184 209 184 200 181 c 0,8,9
 173 171 173 171 150.5 152 c 128,-1,10
 128 133 128 133 128 102 c 0,11,12
 128 74 128 74 141 56 c 128,-1,13
 154 38 154 38 186 38 c 0,14,15
 207 38 207 38 228.5 48.5 c 128,-1,16
 250 59 250 59 264 74 c 0,17,18
 272 82 272 82 281 97.5 c 128,-1,19
 290 113 290 113 291 124 c 0,20,21
 291 131 291 131 291.5 133.5 c 128,-1,22
 292 136 292 136 292 137 c 2,23,-1
 292 181 l 1,24,-1
 292 181 l 1,0,1
460 70 m 0,25,26
 460 69 460 69 458 61 c 0,27,28
 450 29 450 29 424 9.5 c 128,-1,29
 398 -10 398 -10 365 -10 c 256,30,31
 332 -10 332 -10 313 11 c 128,-1,32
 294 32 294 32 286 62 c 1,33,34
 275 47 275 47 258.5 33 c 128,-1,35
 242 19 242 19 222 7.5 c 128,-1,36
 202 -4 202 -4 180.5 -10.5 c 128,-1,37
 159 -17 159 -17 139 -17 c 0,38,39
 88 -17 88 -17 67.5 12.5 c 128,-1,40
 47 42 47 42 47 87 c 0,41,42
 47 109 47 109 58.5 127.5 c 128,-1,43
 70 146 70 146 87.5 161 c 128,-1,44
 105 176 105 176 125.5 187 c 128,-1,45
 146 198 146 198 164 205 c 0,46,47
 199 218 199 218 227.5 227.5 c 128,-1,48
 256 237 256 237 292 246 c 1,49,-1
 292 323 l 2,50,51
 292 365 292 365 276.5 390.5 c 128,-1,52
 261 416 261 416 216 416 c 0,53,54
 186 416 186 416 168 405.5 c 128,-1,55
 150 395 150 395 139.5 380.5 c 128,-1,56
 129 366 129 366 125 352 c 128,-1,57
 121 338 121 338 119 331 c 0,58,59
 114 315 114 315 98 304 c 128,-1,60
 82 293 82 293 63 293 c 0,61,62
 52 293 52 293 50 302.5 c 128,-1,63
 48 312 48 312 48 320 c 0,64,65
 48 344 48 344 68 369.5 c 128,-1,66
 88 395 88 395 117 417 c 128,-1,67
 146 439 146 439 180 453 c 128,-1,68
 214 467 214 467 242 467 c 0,69,70
 249 467 249 467 259.5 465.5 c 128,-1,71
 270 464 270 464 281 462 c 128,-1,72
 292 460 292 460 302 457 c 128,-1,73
 312 454 312 454 318 451 c 0,74,75
 351 434 351 434 359 406.5 c 128,-1,76
 367 379 367 379 367 345 c 0,77,78
 367 307 367 307 366 264.5 c 128,-1,79
 365 222 365 222 365 184 c 0,80,81
 365 175 365 175 364.5 157.5 c 128,-1,82
 364 140 364 140 364.5 121.5 c 128,-1,83
 365 103 365 103 366.5 86.5 c 128,-1,84
 368 70 368 70 372 64 c 0,85,86
 376 57 376 57 384 54.5 c 128,-1,87
 392 52 392 52 400 52 c 0,88,89
 411 52 411 52 418 55.5 c 128,-1,90
 425 59 425 59 430 63.5 c 128,-1,91
 435 68 435 68 439 72 c 128,-1,92
 443 76 443 76 448 77 c 0,93,94
 460 80 460 80 460 70 c 0,25,26
EndSplineSet
Validated: 37
Substitution2: "'smcp' Gemeine in Kapit+AOQA-lchen in Lateinisch Nachschlagetabelle 0 Subtabelle" uni1D00
EndChar

StartChar: b
Encoding: 98 98 83
Width: 574
Flags: W
LayerCount: 2
Fore
SplineSet
435 199 m 0,0,1
 435 240 435 240 424 278.5 c 128,-1,2
 413 317 413 317 390.5 347 c 128,-1,3
 368 377 368 377 334 395 c 128,-1,4
 300 413 300 413 255 413 c 0,5,6
 230 413 230 413 215.5 406.5 c 128,-1,7
 201 400 201 400 180 386 c 0,8,9
 170 377 170 377 170.5 364 c 128,-1,10
 171 351 171 351 171 339 c 2,11,-1
 171 153 l 2,12,13
 171 131 171 131 176 111 c 128,-1,14
 181 91 181 91 195 74 c 0,15,16
 215 51 215 51 237 36.5 c 128,-1,17
 259 22 259 22 289 22 c 0,18,19
 324 22 324 22 351.5 37.5 c 128,-1,20
 379 53 379 53 397.5 78.5 c 128,-1,21
 416 104 416 104 425.5 135.5 c 128,-1,22
 435 167 435 167 435 199 c 0,0,1
524 229 m 0,23,24
 524 176 524 176 503.5 132 c 128,-1,25
 483 88 483 88 447.5 55.5 c 128,-1,26
 412 23 412 23 366 5 c 128,-1,27
 320 -13 320 -13 269 -13 c 0,28,29
 259 -13 259 -13 252.5 -12.5 c 128,-1,30
 246 -12 246 -12 240 -10.5 c 128,-1,31
 234 -9 234 -9 227.5 -7 c 128,-1,32
 221 -5 221 -5 212 -2 c 0,33,34
 204 0 204 0 188.5 8 c 128,-1,35
 173 16 173 16 152 16 c 0,36,37
 141 16 141 16 134.5 12.5 c 128,-1,38
 128 9 128 9 123.5 4.5 c 128,-1,39
 119 0 119 0 114 -5 c 128,-1,40
 109 -10 109 -10 101 -13 c 0,41,42
 89 -20 89 -20 82 -14.5 c 128,-1,43
 75 -9 75 -9 80 2 c 0,44,45
 89 38 89 38 91 85.5 c 128,-1,46
 93 133 93 133 93 184 c 2,47,-1
 93 252 l 2,48,49
 95 349 95 349 91.5 443 c 128,-1,50
 88 537 88 537 88 634 c 2,51,-1
 88 670 l 2,52,53
 88 694 88 694 78.5 704 c 128,-1,54
 69 714 69 714 58 718.5 c 128,-1,55
 47 723 47 723 37.5 725 c 128,-1,56
 28 727 28 727 28 735 c 256,57,58
 28 743 28 743 37 748 c 0,59,60
 64 756 64 756 82 764 c 128,-1,61
 100 772 100 772 112 778.5 c 128,-1,62
 124 785 124 785 132.5 789 c 128,-1,63
 141 793 141 793 150 793 c 0,64,65
 164 793 164 793 167.5 784 c 128,-1,66
 171 775 171 775 171 768 c 0,67,68
 171 754 171 754 168.5 739 c 128,-1,69
 166 724 166 724 166 710 c 0,70,71
 165 635 165 635 168 560 c 128,-1,72
 171 485 171 485 169 407 c 1,73,74
 187 419 187 419 202.5 429.5 c 128,-1,75
 218 440 218 440 233.5 447.5 c 128,-1,76
 249 455 249 455 266.5 459.5 c 128,-1,77
 284 464 284 464 306 464 c 0,78,79
 353 464 353 464 393 444 c 128,-1,80
 433 424 433 424 462 391 c 128,-1,81
 491 358 491 358 507.5 316 c 128,-1,82
 524 274 524 274 524 229 c 0,23,24
EndSplineSet
Validated: 33
Substitution2: "'smcp' Gemeine in Kapit+AOQA-lchen in Lateinisch Nachschlagetabelle 0 Subtabelle" uni0299
EndChar

StartChar: c
Encoding: 99 99 84
Width: 458
Flags: W
LayerCount: 2
Fore
SplineSet
420 391 m 0,0,1
 421 374 421 374 410 364.5 c 128,-1,2
 399 355 399 355 383 355 c 256,3,4
 367 355 367 355 354 367 c 128,-1,5
 341 379 341 379 328 393.5 c 128,-1,6
 315 408 315 408 300 420 c 128,-1,7
 285 432 285 432 265 432 c 0,8,9
 227 432 227 432 201 413.5 c 128,-1,10
 175 395 175 395 158.5 366 c 128,-1,11
 142 337 142 337 135 302.5 c 128,-1,12
 128 268 128 268 128 235 c 0,13,14
 128 199 128 199 137 164 c 128,-1,15
 146 129 146 129 165 101.5 c 128,-1,16
 184 74 184 74 213 57 c 128,-1,17
 242 40 242 40 282 40 c 2,18,-1
 304 40 l 2,19,20
 330 40 330 40 353 51 c 128,-1,21
 376 62 376 62 396 78 c 0,22,23
 401 82 401 82 405.5 85.5 c 128,-1,24
 410 89 410 89 415 92 c 1,25,26
 421 87 421 87 421 80 c 0,27,28
 421 71 421 71 414 62 c 128,-1,29
 407 53 407 53 402 46 c 0,30,31
 396 38 396 38 385.5 29.5 c 128,-1,32
 375 21 375 21 362.5 13 c 128,-1,33
 350 5 350 5 337.5 -1 c 128,-1,34
 325 -7 325 -7 316 -10 c 0,35,36
 281 -21 281 -21 251 -21 c 0,37,38
 204 -21 204 -21 166.5 -2.5 c 128,-1,39
 129 16 129 16 103 47.5 c 128,-1,40
 77 79 77 79 63.5 120 c 128,-1,41
 50 161 50 161 50 207 c 0,42,43
 49 258 49 258 65 304 c 128,-1,44
 81 350 81 350 111.5 385.5 c 128,-1,45
 142 421 142 421 184.5 442 c 128,-1,46
 227 463 227 463 279 463 c 0,47,48
 295 463 295 463 319.5 460 c 128,-1,49
 344 457 344 457 366 449 c 128,-1,50
 388 441 388 441 404 427 c 128,-1,51
 420 413 420 413 420 391 c 0,0,1
EndSplineSet
Validated: 33
Substitution2: "'smcp' Gemeine in Kapit+AOQA-lchen in Lateinisch Nachschlagetabelle 0 Subtabelle" uni1D04
EndChar

StartChar: d
Encoding: 100 100 85
Width: 587
Flags: W
LayerCount: 2
Fore
SplineSet
398 181 m 0,0,1
 398 218 398 218 398.5 260 c 128,-1,2
 399 302 399 302 390.5 338 c 128,-1,3
 382 374 382 374 360.5 397.5 c 128,-1,4
 339 421 339 421 295 421 c 0,5,6
 254 421 254 421 224.5 405 c 128,-1,7
 195 389 195 389 175 362.5 c 128,-1,8
 155 336 155 336 145.5 301.5 c 128,-1,9
 136 267 136 267 136 230 c 0,10,11
 136 191 136 191 147.5 156 c 128,-1,12
 159 121 159 121 180.5 94 c 128,-1,13
 202 67 202 67 234.5 51.5 c 128,-1,14
 267 36 267 36 309 36 c 0,15,16
 316 36 316 36 329.5 41 c 128,-1,17
 343 46 343 46 357 53 c 128,-1,18
 371 60 371 60 382.5 67.5 c 128,-1,19
 394 75 394 75 397 81 c 0,20,21
 396 107 396 107 397 132.5 c 128,-1,22
 398 158 398 158 398 181 c 0,0,1
552 27 m 0,23,24
 552 21 552 21 547 16 c 0,25,26
 544 13 544 13 524.5 7 c 128,-1,27
 505 1 505 1 481.5 -5 c 128,-1,28
 458 -11 458 -11 436.5 -15.5 c 128,-1,29
 415 -20 415 -20 409 -20 c 256,30,31
 403 -20 403 -20 402 -19 c 0,32,33
 397 -13 397 -13 397 -1 c 0,34,35
 397 7 397 7 398 14 c 128,-1,36
 399 21 399 21 399 29 c 0,37,38
 399 33 399 33 398.5 38 c 128,-1,39
 398 43 398 43 393 45 c 1,40,41
 385 41 385 41 377.5 35 c 128,-1,42
 370 29 370 29 362 24 c 0,43,44
 326 4 326 4 302.5 -5 c 128,-1,45
 279 -14 279 -14 251 -14 c 0,46,47
 208 -14 208 -14 171.5 3 c 128,-1,48
 135 20 135 20 108 49 c 128,-1,49
 81 78 81 78 65.5 115.5 c 128,-1,50
 50 153 50 153 50 195 c 0,51,52
 50 247 50 247 68 293.5 c 128,-1,53
 86 340 86 340 118.5 374.5 c 128,-1,54
 151 409 151 409 195.5 429 c 128,-1,55
 240 449 240 449 294 449 c 0,56,57
 311 449 311 449 322.5 447.5 c 128,-1,58
 334 446 334 446 344 443 c 128,-1,59
 354 440 354 440 365 435.5 c 128,-1,60
 376 431 376 431 392 425 c 1,61,62
 397 430 397 430 398 436 c 128,-1,63
 399 442 399 442 399 448 c 0,64,65
 399 487 399 487 400.5 526 c 128,-1,66
 402 565 402 565 402 603 c 0,67,68
 402 623 402 623 402.5 642 c 128,-1,69
 403 661 403 661 401 681 c 0,70,71
 399 702 399 702 391 707.5 c 128,-1,72
 383 713 383 713 365 719 c 0,73,74
 359 721 359 721 347.5 726.5 c 128,-1,75
 336 732 336 732 336 740 c 0,76,77
 336 745 336 745 342.5 750.5 c 128,-1,78
 349 756 349 756 355 757 c 0,79,80
 375 759 375 759 395 763 c 128,-1,81
 415 767 415 767 431 771.5 c 128,-1,82
 447 776 447 776 458.5 779 c 128,-1,83
 470 782 470 782 473 782 c 0,84,85
 477 782 477 782 479 778.5 c 128,-1,86
 481 775 481 775 481 772 c 2,87,-1
 481 680 l 2,88,89
 481 660 481 660 480 639.5 c 128,-1,90
 479 619 479 619 479 599 c 0,91,92
 479 473 479 473 477 352 c 128,-1,93
 475 231 475 231 475 105 c 2,94,-1
 475 90 l 2,95,96
 475 78 475 78 476.5 62 c 128,-1,97
 478 46 478 46 483 41 c 0,98,99
 489 35 489 35 502 35 c 0,100,101
 511 35 511 35 519.5 36.5 c 128,-1,102
 528 38 528 38 537 40 c 0,103,104
 542 38 542 38 547 36.5 c 128,-1,105
 552 35 552 35 552 27 c 0,23,24
EndSplineSet
Validated: 33
Substitution2: "'smcp' Gemeine in Kapit+AOQA-lchen in Lateinisch Nachschlagetabelle 0 Subtabelle" uni1D05
EndChar

StartChar: e
Encoding: 101 101 86
Width: 459
Flags: W
LayerCount: 2
Fore
SplineSet
334 350 m 0,0,1
 334 367 334 367 326.5 383 c 128,-1,2
 319 399 319 399 307 411 c 128,-1,3
 295 423 295 423 279.5 430 c 128,-1,4
 264 437 264 437 248 437 c 0,5,6
 227 437 227 437 207 426.5 c 128,-1,7
 187 416 187 416 171.5 399 c 128,-1,8
 156 382 156 382 147 360.5 c 128,-1,9
 138 339 138 339 138 318 c 0,10,11
 138 314 138 314 144.5 312.5 c 128,-1,12
 151 311 151 311 159.5 310.5 c 128,-1,13
 168 310 168 310 176 310.5 c 128,-1,14
 184 311 184 311 186 311 c 0,15,16
 214 311 214 311 232.5 310.5 c 128,-1,17
 251 310 251 310 278 312 c 0,18,19
 290 313 290 313 300 314 c 128,-1,20
 310 315 310 315 317.5 318 c 128,-1,21
 325 321 325 321 329.5 328.5 c 128,-1,22
 334 336 334 336 334 350 c 0,0,1
417 301 m 0,23,24
 417 288 417 288 413 281 c 0,25,26
 408 280 408 280 402.5 279.5 c 128,-1,27
 397 279 397 279 392 279 c 2,28,-1
 143 279 l 2,29,30
 139 279 139 279 133 277 c 0,31,32
 130 277 130 277 129 269 c 128,-1,33
 128 261 128 261 128 253 c 2,34,-1
 128 245 l 2,35,36
 129 204 129 204 137.5 167 c 128,-1,37
 146 130 146 130 165 102 c 128,-1,38
 184 74 184 74 215 57.5 c 128,-1,39
 246 41 246 41 292 41 c 0,40,41
 311 41 311 41 325.5 44 c 128,-1,42
 340 47 340 47 352.5 53 c 128,-1,43
 365 59 365 59 377.5 68 c 128,-1,44
 390 77 390 77 405 88 c 0,45,46
 406 89 406 89 413 89 c 256,47,48
 420 89 420 89 420 83 c 0,49,50
 420 78 420 78 414.5 70 c 128,-1,51
 409 62 409 62 402 54 c 128,-1,52
 395 46 395 46 387.5 39 c 128,-1,53
 380 32 380 32 376 29 c 0,54,55
 345 3 345 3 316 -8.5 c 128,-1,56
 287 -20 287 -20 247 -20 c 0,57,58
 200 -20 200 -20 164 -3.5 c 128,-1,59
 128 13 128 13 103 42.5 c 128,-1,60
 78 72 78 72 65 111 c 128,-1,61
 52 150 52 150 51 195 c 0,62,63
 50 242 50 242 60 290 c 128,-1,64
 70 338 70 338 93 376.5 c 128,-1,65
 116 415 116 415 153.5 439.5 c 128,-1,66
 191 464 191 464 244 464 c 0,67,68
 304 464 304 464 346.5 438.5 c 128,-1,69
 389 413 389 413 407 353 c 0,70,71
 411 340 411 340 413.5 327 c 128,-1,72
 416 314 416 314 417 301 c 0,23,24
EndSplineSet
Validated: 33
Substitution2: "'smcp' Gemeine in Kapit+AOQA-lchen in Lateinisch Nachschlagetabelle 0 Subtabelle" uni1D07
EndChar

StartChar: f
Encoding: 102 102 87
Width: 337
Flags: W
HStem: -8 27<23.2563 78.9062 200.66 259.78> 400 45<26.0953 97.2502 186.312 313.811> 743 50<231.768 350.111>
VStem: 101 78<39.8326 395.563 445.842 635.297>
LayerCount: 2
Fore
SplineSet
444 721 m 0,0,1
 447 709 447 709 440.5 698 c 128,-1,2
 434 687 434 687 423 680.5 c 128,-1,3
 412 674 412 674 399.5 673 c 128,-1,4
 387 672 387 672 379 679 c 0,5,6
 373 683 373 683 369.5 694 c 128,-1,7
 366 705 366 705 356.5 715.5 c 128,-1,8
 347 726 347 726 327 734.5 c 128,-1,9
 307 743 307 743 268 743 c 0,10,11
 247 743 247 743 232 730 c 128,-1,12
 217 717 217 717 207 696.5 c 128,-1,13
 197 676 197 676 191 650 c 128,-1,14
 185 624 185 624 182 597.5 c 128,-1,15
 179 571 179 571 178 547 c 128,-1,16
 177 523 177 523 177 506 c 2,17,-1
 177 492 l 2,18,19
 177 480 177 480 177.5 465 c 128,-1,20
 178 450 178 450 183 445 c 1,21,-1
 295 445 l 2,22,23
 308 445 308 445 314 439 c 0,24,25
 314 434 314 434 314.5 430 c 128,-1,26
 315 426 315 426 315 421 c 0,27,28
 315 410 315 410 310 402 c 0,29,30
 305 401 305 401 299 400.5 c 128,-1,31
 293 400 293 400 287 400 c 2,32,-1
 225 400 l 2,33,34
 215 400 215 400 205 400 c 0,35,36
 196 400 196 400 186 399 c 1,37,38
 179 392 179 392 179.5 377 c 128,-1,39
 180 362 180 362 180 353 c 0,40,41
 180 284 180 284 179.5 216.5 c 128,-1,42
 179 149 179 149 179 80 c 0,43,44
 179 58 179 58 186 47 c 128,-1,45
 193 36 193 36 204 30.5 c 128,-1,46
 215 25 215 25 230 23.5 c 128,-1,47
 245 22 245 22 262 19 c 0,48,49
 266 15 266 15 266 8 c 256,50,51
 266 1 266 1 261 -1 c 1,52,-1
 260 -4 l 1,53,54
 253 -8 253 -8 241 -8 c 0,55,56
 222 -8 222 -8 203 -5 c 128,-1,57
 184 -2 184 -2 165 -2 c 0,58,59
 136 -2 136 -2 107 -5 c 128,-1,60
 78 -8 78 -8 49 -8 c 0,61,62
 44 -8 44 -8 33.5 -7 c 128,-1,63
 23 -6 23 -6 23 2 c 0,64,65
 23 16 23 16 35 19 c 128,-1,66
 47 22 47 22 62 25.5 c 128,-1,67
 77 29 77 29 89 39.5 c 128,-1,68
 101 50 101 50 101 79 c 2,69,-1
 101 369 l 2,70,71
 101 382 101 382 98 396 c 1,72,73
 74 399 74 399 51 399 c 0,74,75
 43 399 43 399 33 401 c 128,-1,76
 23 403 23 403 23 414 c 0,77,78
 23 418 23 418 23.5 423.5 c 128,-1,79
 24 429 24 429 26 433 c 0,80,81
 29 438 29 438 38.5 440 c 128,-1,82
 48 442 48 442 59.5 443.5 c 128,-1,83
 71 445 71 445 82.5 446 c 128,-1,84
 94 447 94 447 100 450 c 1,85,86
 103 489 103 489 103.5 528 c 128,-1,87
 104 567 104 567 114 605 c 0,88,89
 123 643 123 643 141.5 677.5 c 128,-1,90
 160 712 160 712 186.5 738 c 128,-1,91
 213 764 213 764 247.5 779 c 128,-1,92
 282 794 282 794 323 793 c 0,93,94
 344 793 344 793 365.5 790 c 128,-1,95
 387 787 387 787 404 778.5 c 128,-1,96
 421 770 421 770 432 756 c 128,-1,97
 443 742 443 742 444 721 c 0,0,1
EndSplineSet
Validated: 33
Substitution2: "'smcp' Gemeine in Kapit+AOQA-lchen in Lateinisch Nachschlagetabelle 0 Subtabelle" uniA730
EndChar

StartChar: g
Encoding: 103 103 88
Width: 515
Flags: W
LayerCount: 2
Fore
SplineSet
340 313 m 0,0,1
 337 338 337 338 330.5 359.5 c 128,-1,2
 324 381 324 381 311.5 396 c 128,-1,3
 299 411 299 411 278.5 418 c 128,-1,4
 258 425 258 425 228 422 c 0,5,6
 202 419 202 419 185.5 406 c 128,-1,7
 169 393 169 393 159 375.5 c 128,-1,8
 149 358 149 358 145.5 339 c 128,-1,9
 142 320 142 320 143 306 c 0,10,11
 145 283 145 283 151.5 260 c 128,-1,12
 158 237 158 237 170.5 219.5 c 128,-1,13
 183 202 183 202 203 192.5 c 128,-1,14
 223 183 223 183 251 186 c 0,15,16
 280 189 280 189 298.5 199 c 128,-1,17
 317 209 317 209 326.5 225.5 c 128,-1,18
 336 242 336 242 339 264 c 128,-1,19
 342 286 342 286 340 313 c 0,0,1
442 -124 m 0,20,21
 442 -64 442 -64 401 -36.5 c 128,-1,22
 360 -9 360 -9 279 -10 c 0,23,24
 204 -10 204 -10 162.5 -42.5 c 128,-1,25
 121 -75 121 -75 121 -141 c 0,26,27
 121 -162 121 -162 134 -180.5 c 128,-1,28
 147 -199 147 -199 168 -213 c 128,-1,29
 189 -227 189 -227 215.5 -235 c 128,-1,30
 242 -243 242 -243 268 -243 c 0,31,32
 299 -243 299 -243 330 -234 c 128,-1,33
 361 -225 361 -225 386 -209 c 128,-1,34
 411 -193 411 -193 426.5 -171.5 c 128,-1,35
 442 -150 442 -150 442 -124 c 0,20,21
42 -133 m 0,36,37
 42 -122 42 -122 48 -106 c 128,-1,38
 54 -90 54 -90 68 -72 c 128,-1,39
 82 -54 82 -54 104.5 -35.5 c 128,-1,40
 127 -17 127 -17 161 0 c 1,41,42
 104 -5 104 -5 74.5 16 c 128,-1,43
 45 37 45 37 45 70 c 0,44,45
 44 84 44 84 58 98.5 c 128,-1,46
 72 113 72 113 93 125 c 128,-1,47
 114 137 114 137 138 146.5 c 128,-1,48
 162 156 162 156 181 160 c 1,49,50
 158 172 158 172 137 185.5 c 128,-1,51
 116 199 116 199 100 216 c 128,-1,52
 84 233 84 233 75 254.5 c 128,-1,53
 66 276 66 276 66 303 c 0,54,55
 66 340 66 340 80.5 369 c 128,-1,56
 95 398 95 398 119 417.5 c 128,-1,57
 143 437 143 437 174.5 447.5 c 128,-1,58
 206 458 206 458 241 458 c 0,59,60
 268 458 268 458 291.5 450 c 128,-1,61
 315 442 315 442 340 431 c 0,62,63
 352 426 352 426 362.5 419 c 128,-1,64
 373 412 373 412 389 404 c 0,65,66
 409 394 409 394 430 398 c 128,-1,67
 451 402 451 402 474 402 c 0,68,69
 485 402 485 402 488 392.5 c 128,-1,70
 491 383 491 383 491 375 c 0,71,72
 491 365 491 365 483.5 360.5 c 128,-1,73
 476 356 476 356 465.5 355 c 128,-1,74
 455 354 455 354 443 354.5 c 128,-1,75
 431 355 431 355 422 355 c 0,76,77
 414 355 414 355 415.5 354 c 128,-1,78
 417 353 417 353 411 348 c 1,79,80
 413 337 413 337 414 330 c 128,-1,81
 415 323 415 323 415 311 c 0,82,83
 415 300 415 300 414 293.5 c 128,-1,84
 413 287 413 287 409 276 c 0,85,86
 395 228 395 228 359 195.5 c 128,-1,87
 323 163 323 163 272 156 c 0,88,89
 256 154 256 154 231.5 149.5 c 128,-1,90
 207 145 207 145 184.5 137.5 c 128,-1,91
 162 130 162 130 146 118 c 128,-1,92
 130 106 130 106 130 90 c 0,93,94
 130 70 130 70 147 62.5 c 128,-1,95
 164 55 164 55 189 54.5 c 128,-1,96
 214 54 214 54 242.5 57.5 c 128,-1,97
 271 61 271 61 295 63 c 0,98,99
 332 66 332 66 369.5 57.5 c 128,-1,100
 407 49 407 49 436.5 29 c 128,-1,101
 466 9 466 9 484.5 -22.5 c 128,-1,102
 503 -54 503 -54 503 -96 c 0,103,104
 504 -157 504 -157 479.5 -194.5 c 128,-1,105
 455 -232 455 -232 416.5 -252.5 c 128,-1,106
 378 -273 378 -273 332.5 -280 c 128,-1,107
 287 -287 287 -287 245 -287 c 0,108,109
 204 -287 204 -287 166.5 -275 c 128,-1,110
 129 -263 129 -263 101 -242.5 c 128,-1,111
 73 -222 73 -222 57 -194 c 128,-1,112
 41 -166 41 -166 42 -133 c 0,36,37
EndSplineSet
Validated: 33
Substitution2: "'smcp' Gemeine in Kapit+AOQA-lchen in Lateinisch Nachschlagetabelle 0 Subtabelle" uni0262
EndChar

StartChar: h
Encoding: 104 104 89
Width: 581
Flags: W
LayerCount: 2
Fore
SplineSet
553 11 m 0,0,1
 553 5 553 5 551 3 c 2,2,-1
 550 3 l 1,3,4
 548 -5 548 -5 544.5 -6.5 c 128,-1,5
 541 -8 541 -8 533 -8 c 0,6,7
 511 -8 511 -8 489.5 -5 c 128,-1,8
 468 -2 468 -2 446 -2 c 0,9,10
 423 -2 423 -2 401.5 -5 c 128,-1,11
 380 -8 380 -8 357 -8 c 0,12,13
 348 -8 348 -8 337.5 -7 c 128,-1,14
 327 -6 327 -6 327 6 c 0,15,16
 327 16 327 16 338.5 17.5 c 128,-1,17
 350 19 350 19 364 22 c 128,-1,18
 378 25 378 25 389.5 35.5 c 128,-1,19
 401 46 401 46 401 75 c 2,20,-1
 401 324 l 2,21,22
 401 366 401 366 371.5 385.5 c 128,-1,23
 342 405 342 405 303 405 c 0,24,25
 223 405 223 405 192 329 c 1,26,27
 192 263 192 263 191 198 c 128,-1,28
 190 133 190 133 190 67 c 0,29,30
 190 46 190 46 198.5 37.5 c 128,-1,31
 207 29 207 29 219.5 26 c 128,-1,32
 232 23 232 23 246 22 c 128,-1,33
 260 21 260 21 272 14 c 1,34,35
 274 6 274 6 274 5 c 0,36,37
 274 -6 274 -6 266 -7 c 128,-1,38
 258 -8 258 -8 250 -8 c 0,39,40
 227 -8 227 -8 204.5 -5 c 128,-1,41
 182 -2 182 -2 159 -2 c 2,42,-1
 131 -2 l 2,43,44
 124 -2 124 -2 117.5 -2.5 c 128,-1,45
 111 -3 111 -3 104 -4 c 0,46,47
 92 -5 92 -5 79.5 -6.5 c 128,-1,48
 67 -8 67 -8 55 -8 c 0,49,50
 47 -8 47 -8 41 -6.5 c 128,-1,51
 35 -5 35 -5 35 5 c 0,52,53
 35 12 35 12 42 16 c 128,-1,54
 49 20 49 20 58.5 22 c 128,-1,55
 68 24 68 24 77.5 25.5 c 128,-1,56
 87 27 87 27 92 30 c 0,57,58
 105 38 105 38 108.5 56.5 c 128,-1,59
 112 75 112 75 112 89 c 2,60,-1
 112 664 l 2,61,62
 112 679 112 679 101.5 688 c 128,-1,63
 91 697 91 697 79 703 c 128,-1,64
 67 709 67 709 56.5 713.5 c 128,-1,65
 46 718 46 718 46 724 c 0,66,67
 46 729 46 729 50.5 733 c 128,-1,68
 55 737 55 737 60 738 c 0,69,70
 78 740 78 740 109 751.5 c 128,-1,71
 140 763 140 763 180 779 c 0,72,73
 184 780 184 780 188 774 c 0,74,75
 189 772 189 772 189.5 755 c 128,-1,76
 190 738 190 738 190 713 c 256,77,78
 190 688 190 688 190.5 658 c 128,-1,79
 191 628 191 628 191 601 c 2,80,-1
 191 391 l 2,81,82
 191 387 191 387 193 381 c 1,83,84
 210 396 210 396 226.5 411 c 128,-1,85
 243 426 243 426 261 437.5 c 128,-1,86
 279 449 279 449 299.5 456 c 128,-1,87
 320 463 320 463 345 463 c 0,88,89
 390 463 390 463 417 448 c 128,-1,90
 444 433 444 433 458.5 407.5 c 128,-1,91
 473 382 473 382 477 348 c 128,-1,92
 481 314 481 314 481 277 c 2,93,-1
 481 90 l 2,94,95
 481 85 481 85 482 79.5 c 128,-1,96
 483 74 483 74 483 69 c 0,97,98
 483 61 483 61 484.5 51.5 c 128,-1,99
 486 42 486 42 492 36 c 0,100,101
 497 31 497 31 506.5 27.5 c 128,-1,102
 516 24 516 24 526 21.5 c 128,-1,103
 536 19 536 19 543.5 16.5 c 128,-1,104
 551 14 551 14 553 11 c 0,0,1
EndSplineSet
Validated: 1
Substitution2: "'smcp' Gemeine in Kapit+AOQA-lchen in Lateinisch Nachschlagetabelle 0 Subtabelle" uni029C
EndChar

StartChar: i
Encoding: 105 105 90
Width: 313
Flags: W
LayerCount: 2
Fore
SplineSet
212 694 m 0,0,1
 212 672 212 672 195 656.5 c 128,-1,2
 178 641 178 641 157 641 c 0,3,4
 134 641 134 641 118.5 656.5 c 128,-1,5
 103 672 103 672 103 695 c 0,6,7
 103 716 103 716 120 732 c 128,-1,8
 137 748 137 748 158 748 c 0,9,10
 181 748 181 748 196.5 732.5 c 128,-1,11
 212 717 212 717 212 694 c 0,0,1
274 5 m 0,12,13
 274 -6 274 -6 263.5 -7 c 128,-1,14
 253 -8 253 -8 246 -8 c 0,15,16
 228 -8 228 -8 210.5 -5.5 c 128,-1,17
 193 -3 193 -3 176 -3 c 0,18,19
 150 -3 150 -3 123 -5.5 c 128,-1,20
 96 -8 96 -8 70 -8 c 2,21,-1
 59 -8 l 2,22,23
 51 -8 51 -8 44 -6 c 128,-1,24
 37 -4 37 -4 37 7 c 0,25,26
 37 10 37 10 39 12 c 128,-1,27
 41 14 41 14 43 16 c 0,28,29
 52 23 52 23 63.5 24.5 c 128,-1,30
 75 26 75 26 86 27.5 c 128,-1,31
 97 29 97 29 105.5 34.5 c 128,-1,32
 114 40 114 40 117 56 c 0,33,34
 119 66 119 66 119 70 c 2,35,-1
 119 85 l 2,36,37
 120 117 120 117 119.5 147.5 c 128,-1,38
 119 178 119 178 120 210 c 0,39,40
 121 234 121 234 122.5 257.5 c 128,-1,41
 124 281 124 281 124 305 c 0,42,43
 124 317 124 317 122.5 334 c 128,-1,44
 121 351 121 351 113 361 c 0,45,46
 108 367 108 367 99 371 c 128,-1,47
 90 375 90 375 81.5 378.5 c 128,-1,48
 73 382 73 382 66.5 385.5 c 128,-1,49
 60 389 60 389 60 394 c 256,50,51
 60 399 60 399 66 403 c 128,-1,52
 72 407 72 407 80.5 410.5 c 128,-1,53
 89 414 89 414 97 416.5 c 128,-1,54
 105 419 105 419 109 420 c 0,55,56
 116 422 116 422 129 429 c 128,-1,57
 142 436 142 436 155.5 443.5 c 128,-1,58
 169 451 169 451 180 457 c 128,-1,59
 191 463 191 463 195 463 c 0,60,61
 201 463 201 463 201 458 c 0,62,63
 201 443 201 443 200.5 428.5 c 128,-1,64
 200 414 200 414 199 399 c 0,65,66
 198 369 198 369 197.5 338.5 c 128,-1,67
 197 308 197 308 197 278 c 0,68,69
 197 241 197 241 197.5 204.5 c 128,-1,70
 198 168 198 168 199 131 c 0,71,72
 199 114 199 114 198.5 96.5 c 128,-1,73
 198 79 198 79 200 62 c 0,74,75
 202 41 202 41 213.5 34 c 128,-1,76
 225 27 225 27 238.5 24.5 c 128,-1,77
 252 22 252 22 263 19.5 c 128,-1,78
 274 17 274 17 274 5 c 0,12,13
EndSplineSet
Validated: 33
Substitution2: "'smcp' Gemeine in Kapit+AOQA-lchen in Lateinisch Nachschlagetabelle 0 Subtabelle" uni026A
EndChar

